<svg width="24" height="24" viewBox="0 0 24 24" fill="none" xmlns="http://www.w3.org/2000/svg">
<mask id="mask0" mask-type="alpha" maskUnits="userSpaceOnUse" x="0" y="0" width="24" height="24">
<rect x="0.5" y="0.5" width="23" height="23" fill="#C4C4C4" stroke="#FF9500" stroke-linecap="round"/>
</mask>
<g mask="url(#mask0)">
<path d="M13.775 19.8333C13.6285 20.0859 13.4182 20.2955 13.1652 20.4413C12.9122 20.587 12.6253 20.6637 12.3333 20.6637C12.0414 20.6637 11.7545 20.587 11.5015 20.4413C11.2485 20.2955 11.0382 20.0859 10.8917 19.8333M20.6667 16.5H4C4.66304 16.5 5.29893 16.2366 5.76777 15.7678C6.23661 15.2989 6.5 14.663 6.5 14V9.83333C6.5 8.28624 7.11458 6.80251 8.20854 5.70854C9.30251 4.61458 10.7862 4 12.3333 4C13.8804 4 15.3642 4.61458 16.4581 5.70854C17.5521 6.80251 18.1667 8.28624 18.1667 9.83333V14C18.1667 14.663 18.4301 15.2989 18.8989 15.7678C19.3677 16.2366 20.0036 16.5 20.6667 16.5V16.5Z" stroke="#FF9500" stroke-width="1.66667" stroke-linecap="round"/>
</g>
</svg>
