<svg width="146" height="146" fill="none" xmlns="http://www.w3.org/2000/svg"><path opacity=".08" d="M139.5 73c0 36.727-29.773 66.5-66.5 66.5-36.727 0-66.5-29.773-66.5-66.5C6.5 36.273 36.273 6.5 73 6.5c36.727 0 66.5 29.773 66.5 66.5z" stroke="#263DC2"/><path opacity=".04" d="M145.5 73c0 40.041-32.459 72.5-72.5 72.5C32.96 145.5.5 113.041.5 73 .5 32.96 32.96.5 73 .5c40.041 0 72.5 32.46 72.5 72.5z" stroke="#263DC2"/><circle cx="73.263" cy="73.263" r="61.263" fill="#BACFDF"/><path d="M97.925 51.548S91.15 45 72.5 45s-25.426 6.615-25.426 6.615a50.717 50.717 0 0 0-.603 7.884c0 19.71 10.532 36.949 26.029 45.501 15.497-8.62 26.03-25.79 26.03-45.568 0-2.672-.202-5.278-.605-7.884z" fill="#9ABAD1"/><path d="M91.12 55.593c.314.21.545.386.7.51.277 1.937.415 3.877.415 5.864 0 15.434-7.983 28.827-19.737 35.704-11.75-6.826-19.733-20.269-19.733-35.65 0-1.988.138-3.973.415-5.865.154-.126.386-.305.703-.52.684-.465 1.764-1.102 3.303-1.744 3.077-1.283 8.008-2.598 15.314-2.598 7.307 0 12.24 1.302 15.317 2.573 1.54.635 2.62 1.265 3.304 1.726z" stroke="#819AAC" stroke-width="2"/><path d="M72.059 45c18.966 0 25.856 6.548 25.856 6.548a50.52 50.52 0 0 1 .614 7.884c0 19.777-10.71 36.949-26.47 45.568V45z" fill="#000" fill-opacity=".06"/><mask id="a" maskUnits="userSpaceOnUse" x="58.706" y="59.882" width="26" height="18" fill="#000"><path fill="#fff" d="M58.706 59.882h26v18h-26z"/><path d="M84.412 60.882l-14.076 7.565 4.135.032 9.94-7.597zM68.117 73.361l4.119-3.153c-6.974 1.14-11.42 3.428-12.53 4.07.427 0 6.55-.074 11.112 2.483l3.271-3.865c-2-.024-3.999.133-5.972.468v-.004z"/><path d="M68.117 73.36l4.127-3.199c-6.974 1.155-11.429 3.475-12.538 4.117.427 0 6.55-.074 11.112 2.487l3.283-3.87a33.105 33.105 0 0 0-5.984.473v-.007z"/><path d="M74.47 68.479h3.391l6.55-7.597-9.94 7.597zm-6.353 4.882c1.973-.34 3.971-.501 5.972-.485l2.74-3.196a48.46 48.46 0 0 0-4.605.513l-4.107 3.168z"/><path d="M77.861 68.502h2.698l3.853-7.62-6.55 7.62zm-3.772 4.374c1.345.02 2.684.18 3.996.48l1.926-3.778c-1.089 0-2.14.038-3.155.114l-2.767 3.184z"/></mask><path d="M84.412 60.882l-14.076 7.565 4.135.032 9.94-7.597zM68.117 73.361l4.119-3.153c-6.974 1.14-11.42 3.428-12.53 4.07.427 0 6.55-.074 11.112 2.483l3.271-3.865c-2-.024-3.999.133-5.972.468v-.004z" fill="#819AAC"/><path d="M68.117 73.36l4.127-3.199c-6.974 1.155-11.429 3.475-12.538 4.117.427 0 6.55-.074 11.112 2.487l3.283-3.87a33.105 33.105 0 0 0-5.984.473v-.007z" fill="#819AAC"/><path d="M74.47 68.479h3.391l6.55-7.597-9.94 7.597zm-6.353 4.882c1.973-.34 3.971-.501 5.972-.485l2.74-3.196a48.46 48.46 0 0 0-4.605.513l-4.107 3.168z" fill="#819AAC"/><path d="M77.861 68.502h2.698l3.853-7.62-6.55 7.62zm-3.772 4.374c1.345.02 2.684.18 3.996.48l1.926-3.778c-1.089 0-2.14.038-3.155.114l-2.767 3.184z" fill="#819AAC"/><path d="M84.472 60.962a.1.1 0 0 0-.121-.16l.121.16zM74.41 68.399a.1.1 0 1 0 .121.16l-.121-.16zm.121.16l9.941-7.597-.121-.16L74.41 68.4l.121.16zm9.88-7.677l.18.09a.2.2 0 0 0-.274-.266l.095.176zm-14.075 7.565l-.094-.176a.2.2 0 0 0 .093.376l.001-.2zm4.135.032l-.002.2h.002v-.2zm-6.354 4.882l-.123-.159a.2.2 0 0 0-.077.159h.2zm4.119-3.153l.121.16a.2.2 0 0 0-.153-.357l.032.197zm-12.53 4.07l-.1-.173a.2.2 0 0 0 .1.373v-.2zm11.112 2.483l-.098.174a.2.2 0 0 0 .25-.045l-.152-.13zm3.271-3.865l.153.129a.2.2 0 0 0-.15-.33l-.003.2zm-5.972.468h-.2a.2.2 0 0 0 .233.198l-.033-.198zm4.127-3.203l.122.158a.2.2 0 0 0-.155-.355l.033.197zm-1.426 6.604l-.098.174a.2.2 0 0 0 .25-.045l-.152-.13zm3.283-3.87l.152.13a.2.2 0 0 0-.15-.33l-.002.2zm-5.984.473h-.2a.2.2 0 0 0 .234.198l-.034-.198zm9.744-4.89v.2a.2.2 0 0 0 .152-.069l-.152-.13zm-1.032 1.203l.152.13a.2.2 0 0 0-.165-.33l.013.2zm-4.605.512l-.032-.198a.2.2 0 0 0-.09.04l.122.158zm5.637-1.69l-.151-.131a.2.2 0 0 0 .151.33v-.2zm2.698 0v.2a.2.2 0 0 0 .178-.11l-.178-.09zm-2.474 4.853l-.045.196a.2.2 0 0 0 .223-.105l-.178-.09zm1.926-3.778l.179.09a.2.2 0 0 0-.179-.29v.2zm-3.155.114l-.015-.2a.2.2 0 0 0-.136.07l.15.13zm7.46-8.986l-14.074 7.565.19.352 14.074-7.565-.19-.352zm-13.981 7.941l4.134.032.003-.4-4.134-.032-.003.4zm-2.096 4.872l4.118-3.152-.243-.317-4.118 3.152.243.317zm3.965-3.508c-7.002 1.143-11.471 3.442-12.598 4.094l.2.347c1.092-.633 5.516-2.912 12.462-4.046l-.064-.395zm-12.498 4.468c.432 0 6.504-.072 11.014 2.456l.196-.349C66.302 74 60.128 74.08 59.706 74.08v.4zm11.265 2.41l3.27-3.864-.304-.259-3.272 3.865.306.259zm3.12-4.194a33.538 33.538 0 0 0-6.007.472l.066.395a33.138 33.138 0 0 1 5.937-.466l.005-.4zm-5.774.67v-.004h-.4v.003h.4zm-.077.154l4.126-3.2-.245-.316-4.126 3.2.245.316zm3.971-3.555c-7.002 1.159-11.48 3.49-12.605 4.141l.2.347c1.093-.633 5.525-2.944 12.47-4.093l-.065-.395zm-12.505 4.514c.432 0 6.504-.071 11.014 2.461l.196-.349C66.302 74 60.128 74.08 59.706 74.08v.4zm11.264 2.416l3.283-3.87-.305-.258-3.282 3.87.305.258zm3.133-4.198a33.314 33.314 0 0 0-6.02.475l.068.394a32.914 32.914 0 0 1 5.947-.47l.005-.4zm-5.786.672v-.007h-.4v.007h.4zm6.154-4.69h3.39v-.4h-3.39v.4zm3.542-.069l6.55-7.596-.303-.261-6.55 7.596.303.261zm-9.862 4.949a33.525 33.525 0 0 1 5.937-.482l.003-.4a33.925 33.925 0 0 0-6.008.487l.068.395zm6.09-.552l2.74-3.195-.304-.26-2.74 3.195.304.26zm2.575-3.525c-1.644.107-3.18.28-4.624.514l.064.395a48.301 48.301 0 0 1 4.586-.51l-.026-.4zm-4.714.553l-4.107 3.168.244.317 4.108-3.168-.245-.317zm5.76-1.332h2.697v-.4H77.86v.4zm2.875-.11l3.853-7.62-.357-.18-3.853 7.62.357.18zm3.523-7.84l-6.55 7.62.303.26 6.55-7.62-.303-.26zM74.086 73.076c1.33.02 2.656.179 3.954.476l.09-.39a19.435 19.435 0 0 0-4.038-.486l-.006.4zm4.177.371l1.927-3.778-.357-.182-1.926 3.779.356.181zm1.748-4.069c-1.093 0-2.15.038-3.17.115l.03.399a41.96 41.96 0 0 1 3.14-.114v-.4zm-3.306.183l-2.767 3.184.302.262 2.767-3.184-.302-.262z" fill="#819AAC" mask="url(#a)"/></svg>