<svg width="296" height="296" fill="none" xmlns="http://www.w3.org/2000/svg"><circle opacity=".1" cx="148" cy="148" r="148" fill="#4B87F4"/><circle opacity=".1" cx="148" cy="148" r="118" fill="#4B87F4"/><circle opacity=".1" cx="148" cy="148" r="95" fill="#4B87F4"/><circle opacity=".2" cx="148" cy="148" r="64" fill="#4B87F4"/><g filter="url(#filter0_d)"><circle cx="147" cy="147" r="36" fill="url(#paint0_linear)"/></g><path fill-rule="evenodd" clip-rule="evenodd" d="M161.384 137.526l-12.235-6.118c-.612-.204-1.224-.408-1.835-.408-.612 0-1.224.204-1.836.408l-12.235 6.118c-1.427.611-2.243 2.039-2.243 3.67a23.235 23.235 0 0 0 15.09 22.228c.408.203.816.203 1.224.203.408 0 .815 0 1.223-.203 5.098-1.632 15.09-8.565 15.09-22.228 0-1.631-.815-3.059-2.243-3.67zm-14.07 22.023s-12.236-4.078-12.236-18.353l12.236-6.118 12.235 6.118c0 14.275-12.235 18.353-12.235 18.353z" fill="#fff"/><defs><filter id="filter0_d" x="99" y="99" width="96" height="96" filterUnits="userSpaceOnUse" color-interpolation-filters="sRGB"><feFlood flood-opacity="0" result="BackgroundImageFix"/><feColorMatrix in="SourceAlpha" values="0 0 0 0 0 0 0 0 0 0 0 0 0 0 0 0 0 0 127 0"/><feOffset/><feGaussianBlur stdDeviation="6"/><feColorMatrix values="0 0 0 0 0 0 0 0 0 0 0 0 0 0 0 0 0 0 0.12 0"/><feBlend in2="BackgroundImageFix" result="effect1_dropShadow"/><feBlend in="SourceGraphic" in2="effect1_dropShadow" result="shape"/></filter><linearGradient id="paint0_linear" x1="146.163" y1="72.488" x2="146.163" y2="206.442" gradientUnits="userSpaceOnUse"><stop stop-color="#1052F3"/><stop offset="1" stop-color="#15DCF4"/></linearGradient></defs></svg>