<svg xmlns="http://www.w3.org/2000/svg" viewBox="0 0 512 512"><path fill="#FFF" d="M402.2 134L378 109.8c-1.6-1.6-4.1-1.6-5.7 0L258.8 223.4c-1.6 1.6-4.1 1.6-5.7 0L139.6 109.8c-1.6-1.6-4.1-1.6-5.7 0L109.8 134c-1.6 1.6-1.6 4.1 0 5.7l113.5 113.5c1.6 1.6 1.6 4.1 0 5.7L109.8 372.4c-1.6 1.6-1.6 4.1 0 5.7l24.1 24.1c1.6 1.6 4.1 1.6 5.7 0l113.5-113.5c1.6-1.6 4.1-1.6 5.7 0l113.5 113.5c1.6 1.6 4.1 1.6 5.7 0l24.1-24.1c1.6-1.6 1.6-4.1 0-5.7L288.6 258.8c-1.6-1.6-1.6-4.1 0-5.7l113.5-113.5c1.6-1.5 1.6-4.1.1-5.6z"/></svg>