<svg version="1.1" id="Layer_1" xmlns="http://www.w3.org/2000/svg" x="0" y="0" viewBox="0 0 512 512" xml:space="preserve"><style>.st0{fill:#fff}</style><path class="st0" d="M287.2 211c-1.6 0-2.7-1.3-2.4-2.7L328.4 5c1-4.4-5.8-6.9-8.9-3.2L77 293.8c-2.5 3-.1 7.2 3.9 7.2h143.9c1.6 0 2.7 1.3 2.4 2.7L183.6 507c-1 4.4 5.8 6.9 8.9 3.2l242.5-292c2.5-3 .1-7.2-3.9-7.2H287.2z"/><path class="st0" d="M321.3 186l74-186H438l74 186h-43.5l-11.9-32.5h-80.9l-12 32.5h-42.4zm94.5-138.1l-27.2 70.7h54.9l-27.2-70.7h-.5z"/></svg>