<svg width="27" height="17" fill="none" xmlns="http://www.w3.org/2000/svg"><path fill-rule="evenodd" clip-rule="evenodd" d="M8.485 6.817v3.366s3.26-.004 4.587-.004c-.719 2.182-1.836 3.37-4.587 3.37-2.784 0-4.956-2.26-4.956-5.05 0-2.788 2.172-5.049 4.956-5.049 1.472 0 2.422.519 3.294 1.241.698-.699.64-.799 2.415-2.48A8.446 8.446 0 0 0 8.485 0C3.8 0 0 3.805 0 8.5 0 13.194 3.8 17 8.485 17c7.004 0 8.716-6.11 8.149-10.183H8.485zm15.29.168V4.04h-2.1v2.945H18.65v2.104h3.024v3.03h2.1v-3.03h2.94V6.985h-2.94z" fill="#F31E10"/></svg>