<svg width="36" height="43" fill="none" xmlns="http://www.w3.org/2000/svg"><path fill-rule="evenodd" clip-rule="evenodd" d="M29.995.896l1.833 17.488a7.674 7.674 0 0 1 2.89 3.58c.371.95.551 1.963.527 2.981-.003 2.634-1.117 4.84-2.428 6.528l.988 9.432a1 1 0 1 1-1.99.208l-.805-7.686a18.774 18.774 0 0 1-1.808 1.472 16.357 16.357 0 0 1-1.104.722l-.02.011-.006.004h-.002v.001l-.492-.871-.49.871h-.001l-.002-.001-.006-.004-.02-.01a8.151 8.151 0 0 1-.299-.182 18.521 18.521 0 0 1-3.229-2.609c-1.747-1.78-3.615-4.473-3.62-7.886a7.666 7.666 0 0 1 7.667-7.846v2a5.666 5.666 0 0 0-5.666 5.809v.025c0 2.665 1.463 4.884 3.047 6.497a16.53 16.53 0 0 0 2.62 2.158 16.524 16.524 0 0 0 2.62-2.158c1.583-1.613 3.046-3.832 3.046-6.497v-.025a5.667 5.667 0 0 0-5.666-5.809v-2c.724 0 1.443.103 2.136.303l-1.71-16.298a1 1 0 0 1 1.99-.208zm-2.416 20.37V19.1v2.167a3.5 3.5 0 0 0 0 7v5.322-5.322a3.5 3.5 0 0 0 0-7zm0 2a1.5 1.5 0 0 0 0 3v-3zm0 3v-3a1.5 1.5 0 0 1 0 3zm0 8.5l.49.872-.49.275-.49-.275.49-.872zM4.904.194a1 1 0 0 1 .9 1.09l-3.81 40.01a1 1 0 0 1-1.99-.19l3.81-40.01a1 1 0 0 1 1.09-.9zM16.91 8.1a1 1 0 0 1-1-1v-6a1 1 0 1 1 2 0v6a1 1 0 0 1-1 1zm-1 11a1 1 0 0 0 2 0v-6a1 1 0 0 0-2 0v6zm1 13a1 1 0 0 1-1-1v-6a1 1 0 1 1 2 0v6a1 1 0 0 1-1 1zm-1 9a1 1 0 0 0 2 0v-4a1 1 0 0 0-2 0v4z" fill="#F0F2F9"/></svg>