<svg width="36" height="46" fill="none" xmlns="http://www.w3.org/2000/svg"><path fill-rule="evenodd" clip-rule="evenodd" d="M32.212 11.964c1.589-1.195 2.43-2.731 2.43-4.297 0-1.567-.841-3.102-2.43-4.297-1.587-1.195-3.846-1.976-6.4-1.976-2.556 0-4.814.781-6.402 1.976-1.588 1.195-2.429 2.73-2.429 4.297 0 1.566.841 3.102 2.43 4.297 1.587 1.194 3.845 1.975 6.4 1.975s4.814-.78 6.401-1.975zm2.43-.47c-1.761 2.295-5.056 3.84-8.83 3.84-3.775 0-7.07-1.545-8.83-3.84v.703c0 2.008.48 3.605 1.72 4.723 1.264 1.138 3.443 1.898 7.11 1.898 4.024 0 6.182-.768 7.347-1.884 1.145-1.096 1.483-2.672 1.483-4.737v-.703zm1.358.703v-4.53C36 3.432 31.438 0 25.811 0S15.623 3.432 15.623 7.667v9.543c-1.573-.747-3.437-1.18-5.434-1.18C4.562 16.03 0 19.463 0 23.697v14.636c0 2.136.544 4.114 2.196 5.532C3.82 45.257 6.39 46 10.19 46c4.12 0 6.711-.735 8.262-2.149 1.58-1.44 1.925-3.437 1.926-5.51v.225c0 .143-.001.285-.005.425 1.434.485 3.229.736 5.44.736 4.12 0 6.711-.735 8.262-2.148C35.655 36.137 36 34.136 36 32.06V12.197zM20.377 37.513c1.286.513 3.046.82 5.434.82 4.031 0 6.194-.733 7.36-1.796 1.13-1.03 1.467-2.501 1.47-4.441-.168.21-.357.412-.567.604-1.55 1.413-4.142 2.148-8.263 2.148-2.208 0-4-.25-5.434-.734v3.399zm0-4.879c1.286.513 3.046.82 5.434.82 4.031 0 6.194-.733 7.36-1.796 1.13-1.03 1.467-2.501 1.47-4.44-.168.21-.357.411-.567.603-1.55 1.414-4.142 2.149-8.263 2.149-2.208 0-4-.251-5.434-.735v3.4zm0-4.879c1.286.514 3.046.82 5.434.82 4.031 0 6.194-.733 7.36-1.796 1.13-1.029 1.467-2.501 1.47-4.44-.168.21-.357.412-.567.603-1.55 1.414-4.142 2.149-8.263 2.149-2.208 0-4-.25-5.434-.734v3.398zm-.06-4.903c1.29.528 3.067.845 5.494.845 4.031 0 6.194-.734 7.36-1.797 1.136-1.035 1.47-2.519 1.47-4.476v-.09a5.46 5.46 0 0 1-.555.62c-1.551 1.485-4.149 2.258-8.275 2.258-3.805 0-6.38-.781-8.004-2.244a6.048 6.048 0 0 1-.826-.91v.366c0 .194.005.383.015.569 1.814 1.226 3.04 2.936 3.32 4.859zm4.815-19.367c0-.385.304-.697.68-.697.891 0 1.775.126 2.599.371a7.393 7.393 0 0 1 2.203 1.058c.631.453 1.131.99 1.473 1.583.341.592.517 1.226.517 1.867a.688.688 0 0 1-.68.697.688.688 0 0 1-.679-.697c0-.373-.1-.764-.327-1.157-.23-.398-.587-.795-1.083-1.151a6.054 6.054 0 0 0-1.803-.86 7.83 7.83 0 0 0-2.22-.317.688.688 0 0 1-.68-.697zM19.02 23.697c0 1.566-.841 3.102-2.43 4.297-1.587 1.194-3.845 1.976-6.4 1.976s-4.814-.782-6.401-1.976c-1.589-1.195-2.43-2.73-2.43-4.297 0-1.566.841-3.102 2.43-4.297 1.587-1.195 3.846-1.976 6.4-1.976 2.556 0 4.814.781 6.402 1.976 1.588 1.195 2.429 2.73 2.429 4.297zm-8.83 7.667c3.774 0 7.07-1.545 8.83-3.84v.703c0 2.066-.337 3.642-1.482 4.737-1.166 1.116-3.323 1.884-7.348 1.884-3.667 0-5.846-.76-7.109-1.898-1.24-1.117-1.722-2.715-1.722-4.723v-.703c1.761 2.295 5.056 3.84 8.83 3.84zm8.274 2.62c.206-.197.39-.404.556-.619v.09c0 1.957-.334 3.44-1.47 4.476-1.166 1.063-3.33 1.796-7.36 1.796-3.673 0-5.857-.726-7.121-1.81-1.234-1.059-1.71-2.566-1.71-4.462v-.367c.238.323.512.627.826.91 1.624 1.463 4.2 2.244 8.005 2.244 4.126 0 6.723-.773 8.274-2.258zm-17.105 4.12v.23c0 1.896.476 3.403 1.71 4.462 1.264 1.084 3.448 1.81 7.12 1.81 4.031 0 6.195-.734 7.36-1.797 1.13-1.029 1.467-2.5 1.47-4.44-.168.21-.356.412-.567.604-1.55 1.413-4.142 2.148-8.262 2.148-3.8 0-6.37-.742-7.993-2.135a5.894 5.894 0 0 1-.838-.882zm8.83-19.286a.688.688 0 0 0-.679.697c0 .385.305.697.68.697.769 0 1.524.11 2.22.316a6.051 6.051 0 0 1 1.804.861c.495.356.853.753 1.082 1.15.227.394.328.785.328 1.158 0 .385.304.697.679.697.375 0 .68-.312.68-.697a3.72 3.72 0 0 0-.518-1.867c-.341-.592-.842-1.13-1.472-1.583a7.393 7.393 0 0 0-2.204-1.058 9.154 9.154 0 0 0-2.6-.37z" fill="#F0F2F9"/></svg>