<svg width="100" height="100" xmlns="http://www.w3.org/2000/svg" clip-rule="evenodd">

 <g>
  <title>background</title>
  <rect fill="none" id="canvas_background" height="102" width="102" y="-1" x="-1"/>
 </g>
 <g>
  <title>Layer 1</title>
  <g id="svg_1">
   <g id="svg_2">
    <path fill="#ff9500" id="svg_3" fill-rule="nonzero" d="m83.100501,47.064999c-0.001,-0.027 0.001,-0.054 -0.002,-0.081c0,-0.001 0,-0.002 -0.001,-0.004c-0.002,-0.019 -0.009,-0.037 -0.012,-0.055c-0.006,-0.038 -0.014,-0.074 -0.024,-0.11c-0.012,-0.043 -0.027,-0.084 -0.044,-0.125c-0.009,-0.02 -0.017,-0.041 -0.027,-0.061c-0.007,-0.013 -0.016,-0.023 -0.023,-0.036c-0.002,-0.003 -0.005,-0.006 -0.007,-0.01c-0.021,-0.036 -0.042,-0.071 -0.068,-0.105c-0.029,-0.037 -0.062,-0.069 -0.096,-0.102c-0.021,-0.021 -0.037,-0.045 -0.059,-0.063l-21.405,-17.337c-0.265,-0.213 -0.622,-0.28 -0.944,-0.172l-16.517,5.238l0,-14.103c0,-2.126 -1.733,-3.855 -3.864,-3.855l-3.78,0c-0.223,-0.581 -0.558,-1.116 -1.008,-1.565c-0.633,-0.633 -1.418,-1.055 -2.272,-1.232c-0.43,-2.433 -2.56,-4.287 -5.115,-4.287l-0.296,0c-2.554,0 -4.684,1.854 -5.114,4.287c-0.854,0.177 -1.641,0.599 -2.274,1.233c-0.45,0.45 -0.785,0.988 -1.004,1.564l-3.782,0c-2.131,0 -3.865,1.729 -3.865,3.855l0,28.848c0,2.131 1.734,3.864 3.865,3.864l11.624,0l-0.297,20.004c-0.005,0.307 0.132,0.599 0.371,0.792l21.395,17.328c0.006,0.005 0.013,0.006 0.018,0.01c0.007,0.006 0.012,0.013 0.018,0.018c0.056,0.041 0.119,0.064 0.18,0.093c0.032,0.014 0.059,0.036 0.092,0.047c0.105,0.036 0.214,0.057 0.325,0.057c0.102,0 0.203,-0.016 0.303,-0.047l32.523,-10.317c0.41,-0.13 0.691,-0.508 0.698,-0.939l0.492,-32.594c0,-0.013 -0.004,-0.025 -0.004,-0.038zm-22.61,-16.193l19.541,15.824l-11.313,3.589c-0.04,-0.047 -0.068,-0.101 -0.117,-0.141l-19.385,-15.697l11.274,-3.575zm12.528,20.219l0,2.87l-14.897,4.726l0,-2.872l14.897,-4.724zm-52.137,-33.835c0.088,-0.507 0.324,-0.965 0.682,-1.323c0.476,-0.477 1.109,-0.74 1.78,-0.74c0.553,0 1,-0.447 1,-1c0,-1.76 1.433,-3.193 3.193,-3.193l0.296,0c1.761,0 3.194,1.433 3.194,3.193c0,0.553 0.447,1 1,1c0.671,0 1.302,0.263 1.779,0.74c0.359,0.359 0.605,0.83 0.699,1.363c0.002,0.01 0.001,0.022 0.003,0.032c0.027,0.13 0.037,0.268 0.034,0.423c-0.002,0.12 -0.017,0.235 -0.035,0.35c-0.007,0.045 -0.009,0.092 -0.018,0.136c-0.026,0.119 -0.066,0.233 -0.108,0.345c-0.015,0.041 -0.025,0.084 -0.042,0.123c-0.04,0.092 -0.093,0.177 -0.143,0.263c-0.033,0.055 -0.06,0.114 -0.097,0.166c-0.038,0.056 -0.086,0.104 -0.128,0.156c-0.061,0.073 -0.119,0.15 -0.187,0.216c-0.023,0.023 -0.051,0.04 -0.075,0.062c-0.096,0.085 -0.193,0.169 -0.301,0.24c-0.004,0.003 -0.009,0.004 -0.014,0.007c-0.129,0.084 -0.265,0.157 -0.409,0.217c-0.005,0.002 -0.012,0.003 -0.017,0.005c-0.143,0.058 -0.291,0.104 -0.445,0.136c-0.16,0.032 -0.326,0.05 -0.496,0.05l-8.683,0c-0.671,0 -1.304,-0.263 -1.78,-0.74c-0.471,-0.47 -0.731,-1.099 -0.731,-1.77c0,-0.156 0.013,-0.289 0.049,-0.457zm6.928,21.89c-0.019,0.007 -0.04,0.009 -0.06,0.018c-0.02,0.01 -0.036,0.026 -0.055,0.036c-0.029,0.016 -0.059,0.029 -0.086,0.048c-0.018,0.013 -0.034,0.028 -0.052,0.042c-0.029,0.023 -0.056,0.048 -0.082,0.074c-0.026,0.026 -0.052,0.052 -0.075,0.081c-0.015,0.018 -0.029,0.036 -0.043,0.055c-0.017,0.025 -0.031,0.051 -0.046,0.078c-0.022,0.037 -0.039,0.075 -0.056,0.115c-0.009,0.023 -0.022,0.044 -0.029,0.067c-0.008,0.023 -0.011,0.047 -0.017,0.071c-0.004,0.018 -0.014,0.034 -0.017,0.053c-0.006,0.029 -0.002,0.058 -0.005,0.088c-0.003,0.028 -0.012,0.054 -0.013,0.083l-0.157,10.596l-11.654,0c-1.029,0 -1.865,-0.836 -1.865,-1.864l0,-28.848c0,-1.023 0.836,-1.855 1.865,-1.855l3.485,0c0.008,0.101 0.036,0.197 0.05,0.297c0.017,0.114 0.033,0.227 0.058,0.338c0.038,0.167 0.091,0.329 0.148,0.49c0.036,0.102 0.066,0.205 0.109,0.304c0.074,0.171 0.168,0.332 0.263,0.493c0.047,0.079 0.085,0.162 0.137,0.238c0.158,0.232 0.335,0.451 0.537,0.653c0.854,0.855 1.989,1.326 3.194,1.326l8.683,0c0.31,0 0.611,-0.034 0.903,-0.092c0.022,-0.004 0.041,-0.013 0.062,-0.018c1.162,-0.247 2.143,-0.934 2.781,-1.88c0,-0.001 0,-0.001 0.001,-0.001c0.153,-0.228 0.285,-0.47 0.395,-0.726c0.02,-0.045 0.034,-0.091 0.052,-0.137c0.082,-0.209 0.152,-0.424 0.202,-0.648c0.022,-0.096 0.035,-0.194 0.051,-0.292c0.018,-0.116 0.05,-0.226 0.059,-0.345l3.475,0c1.028,0 1.864,0.832 1.864,1.855l0,14.737l-14,4.44c-0.022,0.007 -0.04,0.021 -0.062,0.03zm20.306,48.781l-19.419,-15.728l0.305,-20.523c0,-0.003 0.002,-0.006 0.002,-0.01l0.136,-9.248l0.004,-0.276l2.991,2.423l0,11.222c0,0.553 0.447,1 1,1c0.553,0 1,-0.447 1,-1l0,-9.602l14.438,11.693l-0.457,30.049zm-4.798,-36.879l-13.071,-10.587l12.164,-3.857l4.522,-1.433l19.544,15.825l-16.688,5.293l-6.471,-5.241zm37.305,27.899l-30.513,9.68l0.461,-30.486l5.551,-1.761l0,3.673c0,0.319 0.153,0.618 0.41,0.806c0.173,0.127 0.38,0.194 0.59,0.194c0.102,0 0.203,-0.016 0.303,-0.047l16.897,-5.36c0.415,-0.132 0.697,-0.518 0.697,-0.954l0,-4.305l6.065,-1.923l-0.461,30.483z"/>
    <path fill="#ff9500" id="svg_4" fill-rule="nonzero" d="m31.388501,25.345999l-6.674,5.719l-0.333,-0.388c-1.325,-1.544 -3.663,-1.725 -5.207,-0.399c-1.546,1.325 -1.726,3.66 -0.4,5.207l2.736,3.193c0.729,0.851 1.765,1.288 2.807,1.288c0.85,0 1.706,-0.291 2.4,-0.888l9.477,-8.123c0.75,-0.642 1.204,-1.537 1.279,-2.521c0.076,-0.984 -0.236,-1.938 -0.879,-2.687c-1.325,-1.548 -3.662,-1.726 -5.206,-0.401zm3.505,4.091l-9.477,8.124c-0.71,0.604 -1.78,0.523 -2.388,-0.184l-2.736,-3.192c-0.607,-0.709 -0.525,-1.781 0.183,-2.389c0.71,-0.608 1.781,-0.525 2.388,0.183l0.983,1.147c0.173,0.202 0.419,0.326 0.683,0.347c0.275,0.018 0.526,-0.066 0.727,-0.238l7.433,-6.371c0.71,-0.607 1.778,-0.525 2.387,0.185c0.294,0.343 0.438,0.78 0.403,1.231c-0.034,0.451 -0.242,0.862 -0.586,1.157z"/>
    <path fill="#ff9500" id="svg_5" fill-rule="nonzero" d="m33.134501,59.949999c-0.553,0 -1,0.447 -1,1l0,0.679c0,0.553 0.447,1 1,1c0.553,0 1,-0.447 1,-1l0,-0.679c0,-0.553 -0.447,-1 -1,-1z"/>
   </g>
   <path fill="#ff9500" id="svg_6" fill-rule="nonzero" d="m71.534501,22.424999l-7.287,0c-0.357,0 -0.687,-0.19 -0.866,-0.5c-0.179,-0.309 -0.179,-0.69 0,-1l3.644,-6.311c0.357,-0.619 1.375,-0.619 1.732,0l3.644,6.311c0.178,0.31 0.178,0.691 0,1c-0.179,0.31 -0.509,0.5 -0.867,0.5zm-5.554,-2l3.822,0l-1.911,-3.311l-1.911,3.311z"/>
   <path fill="#ff9500" id="svg_7" fill-rule="nonzero" d="m19.785501,69.564999l-7.287,0c-0.358,0 -0.688,-0.19 -0.867,-0.5c-0.178,-0.31 -0.178,-0.69 0,-1l3.644,-6.311c0.357,-0.619 1.375,-0.619 1.732,0l3.644,6.311c0.179,0.31 0.179,0.69 0,1c-0.179,0.31 -0.509,0.5 -0.866,0.5zm-5.555,-2l3.822,0l-1.911,-3.311l-1.911,3.311z"/>
   <path fill="#ff9500" id="svg_8" fill-rule="nonzero" d="m83.965501,36.748999c-2.502,0 -4.538,-2.035 -4.538,-4.537c0,-2.502 2.036,-4.537 4.538,-4.537c2.502,0 4.537,2.035 4.537,4.537c0,2.502 -2.035,4.537 -4.537,4.537zm0,-7.074c-1.399,0 -2.538,1.138 -2.538,2.537c0,1.399 1.139,2.537 2.538,2.537c1.399,0 2.537,-1.138 2.537,-2.537c0,-1.399 -1.137,-2.537 -2.537,-2.537z"/>
  </g>
 </g>
</svg>