<svg width="101" height="12" fill="none" xmlns="http://www.w3.org/2000/svg"><path d="M2.083.258V11.63H0V.258h2.083zM19.945.322V11.63h-2.651l-7.229-8.697v8.697H7.92V.322h2.715l7.228 8.65V.322h2.083zM37.269 1.595a47.437 47.437 0 0 1-1.136 1.643c-.421-.344-1.121-.64-2.1-.886a11.309 11.309 0 0 0-2.888-.387c-.936 0-1.71.15-2.32.451-.61.29-.915.725-.915 1.305 0 .279.168.5.505.66.337.15.773.258 1.31.322.547.054 1.147.108 1.799.161.663.043 1.32.119 1.973.226.663.107 1.262.258 1.799.45.547.183.99.479 1.326.887.337.397.505.891.505 1.482 0 1.127-.521 2.094-1.563 2.9-1.041.794-2.467 1.191-4.277 1.191-1.157 0-2.21-.129-3.156-.387-.937-.257-1.626-.52-2.068-.789a5.45 5.45 0 0 1-1.073-.886l1.405-1.594c1.336 1.127 2.951 1.69 4.845 1.69.431 0 .847-.026 1.247-.08.41-.064.8-.16 1.168-.29.378-.14.678-.327.9-.563.22-.247.33-.537.33-.87 0-.365-.173-.65-.52-.854-.337-.204-.779-.338-1.326-.402a25.547 25.547 0 0 0-1.815-.178 32.394 32.394 0 0 1-2.004-.193 10.545 10.545 0 0 1-1.815-.419 2.942 2.942 0 0 1-1.342-.886c-.336-.418-.505-.945-.505-1.578 0-1.117.553-2.014 1.657-2.69C28.32.344 29.715 0 31.398 0c1.262 0 2.404.161 3.425.483 1.02.322 1.836.693 2.446 1.112zM52.429.322V2.24h-4.593v9.39h-2.083V2.24h-4.467V.322H52.43zM68.6 11.63h-2.446l-1.436-2.964h-6.913l-1.641 2.963h-2.541L60.283.258h2.541l5.777 11.372zm-7.117-9.617l-2.62 4.736h4.924l-2.304-4.736zM85.128.322V11.63h-2.651l-7.228-8.697v8.697h-2.147V.322h2.715l7.228 8.65V.322h2.083zM101 .322V2.24h-4.593v9.39h-2.083V2.24h-4.466V.322H101z" fill="#fff"/></svg>