<svg width="264" height="264" fill="none" xmlns="http://www.w3.org/2000/svg"><path opacity=".7" d="M40.236 241.002h1.176v-4.116h3.5v-.98h-3.5v-3.108h4.13v-.98h-5.306v9.184zm5.965-1.764c0 1.218.854 1.932 2.002 1.932.84 0 1.596-.448 2.254-.98h.028l.098.812h.952v-4.172c0-1.694-.7-2.8-2.366-2.8-1.092 0-2.044.476-2.674.882l.462.798c.532-.364 1.232-.728 2.03-.728 1.106 0 1.4.84 1.4 1.708-2.898.322-4.186 1.064-4.186 2.548zm1.134-.084c0-.868.77-1.428 3.052-1.708v1.89c-.658.588-1.204.91-1.862.91-.672 0-1.19-.322-1.19-1.092zm9.418 1.988c.672-.07 1.33-.392 1.848-.854l-.518-.756c-.406.364-.952.686-1.596.686-1.246 0-2.1-1.05-2.1-2.604 0-1.568.896-2.632 2.128-2.632.546 0 .966.252 1.372.602l.574-.742c-.462-.434-1.092-.812-1.988-.812-1.75 0-3.276 1.302-3.276 3.584 0 2.086 1.19 3.346 2.786 3.528l-.462.91c.574.14.896.322.896.686 0 .378-.518.574-1.246.672l.112.574c1.064-.098 2.03-.476 2.03-1.288 0-.574-.378-.84-.826-.994l.266-.56zm2.86-1.904c0 1.218.854 1.932 2.002 1.932.84 0 1.596-.448 2.254-.98h.028l.098.812h.952v-4.172c0-1.694-.7-2.8-2.366-2.8-1.092 0-2.044.476-2.674.882l.462.798c.532-.364 1.232-.728 2.03-.728 1.106 0 1.4.84 1.4 1.708-2.898.322-4.186 1.064-4.186 2.548zm1.134-.084c0-.868.77-1.428 3.052-1.708v1.89c-.658.588-1.204.91-1.862.91-.672 0-1.19-.322-1.19-1.092zm8.44 1.078c.644.532 1.568.938 2.534.938 1.61 0 2.492-.924 2.492-2.03 0-1.288-1.092-1.694-2.072-2.058-.77-.294-1.512-.546-1.512-1.176 0-.518.392-.98 1.246-.98.602 0 1.092.252 1.554.602l.546-.728c-.518-.42-1.26-.77-2.114-.77-1.47 0-2.338.84-2.338 1.932 0 1.148 1.064 1.61 2.03 1.96.742.28 1.554.588 1.554 1.288 0 .588-.448 1.064-1.344 1.064-.812 0-1.414-.336-2.002-.812l-.574.77zm6.117-2.618c0 2.226 1.442 3.556 3.262 3.556.924 0 1.652-.322 2.24-.7l-.406-.756c-.504.322-1.05.532-1.694.532-1.302 0-2.184-.924-2.268-2.394h4.592c.028-.168.042-.392.042-.63 0-1.946-.98-3.192-2.716-3.192-1.554 0-3.052 1.358-3.052 3.584zm1.12-.518c.14-1.372 1.008-2.156 1.96-2.156 1.064 0 1.68.77 1.68 2.156h-3.64zm6.231 1.414c0 1.736.644 2.66 2.087 2.66.938 0 1.61-.49 2.24-1.232h.041l.099 1.064h.951v-6.804h-1.147v4.83c-.645.798-1.135 1.148-1.835 1.148-.895 0-1.273-.546-1.273-1.82v-4.158h-1.162v4.312zm10.04-.896c0 2.254 1.386 3.556 3.192 3.556.812 0 1.596-.336 2.212-.882l-.518-.756c-.406.364-.952.686-1.596.686-1.246 0-2.1-1.05-2.1-2.604 0-1.568.896-2.632 2.128-2.632.546 0 .966.252 1.372.602l.574-.742c-.462-.434-1.092-.812-1.988-.812-1.75 0-3.276 1.302-3.276 3.584zm6.416 1.624c0 1.218.854 1.932 2.002 1.932.84 0 1.596-.448 2.254-.98h.028l.098.812h.952v-4.172c0-1.694-.7-2.8-2.366-2.8-1.092 0-2.044.476-2.674.882l.462.798c.532-.364 1.232-.728 2.03-.728 1.106 0 1.4.84 1.4 1.708-2.898.322-4.186 1.064-4.186 2.548zm1.134-.084c0-.868.77-1.428 3.052-1.708v1.89c-.658.588-1.204.91-1.862.91-.672 0-1.19-.322-1.19-1.092zm5.876-1.54c0 2.268 1.106 3.556 2.814 3.556.798 0 1.526-.448 2.058-.966h.042l.098.798h.952v-9.968h-1.162v2.618l.056 1.162c-.602-.49-1.12-.784-1.904-.784-1.554 0-2.954 1.372-2.954 3.584zm1.19-.014c0-1.554.868-2.604 1.96-2.604.56 0 1.078.196 1.652.714v3.556c-.56.63-1.106.938-1.736.938-1.19 0-1.876-.98-1.876-2.604zm6.73 1.638c0 1.218.854 1.932 2.002 1.932.84 0 1.596-.448 2.254-.98h.028l.098.812h.952v-4.172c0-1.694-.7-2.8-2.366-2.8-1.092 0-2.044.476-2.674.882l.462.798c.532-.364 1.232-.728 2.03-.728 1.106 0 1.4.84 1.4 1.708-2.898.322-4.186 1.064-4.186 2.548zm1.134-.084c0-.868.77-1.428 3.052-1.708v1.89c-.658.588-1.204.91-1.862.91-.672 0-1.19-.322-1.19-1.092zm5.61 1.078c.644.532 1.568.938 2.534.938 1.61 0 2.492-.924 2.492-2.03 0-1.288-1.092-1.694-2.072-2.058-.77-.294-1.512-.546-1.512-1.176 0-.518.392-.98 1.246-.98.602 0 1.092.252 1.554.602l.546-.728c-.518-.42-1.26-.77-2.114-.77-1.47 0-2.338.84-2.338 1.932 0 1.148 1.064 1.61 2.03 1.96.742.28 1.554.588 1.554 1.288 0 .588-.448 1.064-1.344 1.064-.812 0-1.414-.336-2.002-.812l-.574.77zm6.817-1.33c0 1.344.49 2.268 1.946 2.268.42 0 .882-.126 1.26-.252l-.224-.868c-.224.084-.532.182-.77.182-.784 0-1.05-.476-1.05-1.316v-3.78h1.834v-.938h-1.834v-1.904h-.966l-.14 1.904-1.064.07v.868h1.008v3.766zm4.534 2.1h1.148v-4.368c.462-1.148 1.148-1.568 1.722-1.568.28 0 .434.042.658.112l.224-1.008a1.69 1.69 0 0 0-.728-.14c-.77 0-1.47.546-1.932 1.4h-.042l-.098-1.232h-.952v6.804zm4.213-3.388c0 2.254 1.484 3.556 3.15 3.556s3.15-1.302 3.15-3.556c0-2.282-1.484-3.584-3.15-3.584s-3.15 1.302-3.15 3.584zm1.19 0c0-1.568.798-2.632 1.96-2.632 1.176 0 1.96 1.064 1.96 2.632 0 1.554-.784 2.604-1.96 2.604-1.162 0-1.96-1.05-1.96-2.604zm6.555 5.768c1.134-.476 1.834-1.414 1.834-2.618 0-.84-.364-1.358-.966-1.358-.462 0-.854.308-.854.812 0 .518.378.798.826.798.042 0 .098 0 .14-.014 0 .756-.476 1.358-1.26 1.708l.28.672zm5.771-3.15c.644.532 1.568.938 2.534.938 1.61 0 2.492-.924 2.492-2.03 0-1.288-1.092-1.694-2.072-2.058-.77-.294-1.512-.546-1.512-1.176 0-.518.392-.98 1.246-.98.602 0 1.092.252 1.554.602l.546-.728c-.518-.42-1.26-.77-2.114-.77-1.47 0-2.338.84-2.338 1.932 0 1.148 1.064 1.61 2.03 1.96.742.28 1.554.588 1.554 1.288 0 .588-.448 1.064-1.344 1.064-.812 0-1.414-.336-2.002-.812l-.574.77zm6.117-2.618c0 2.254 1.484 3.556 3.15 3.556s3.15-1.302 3.15-3.556c0-2.282-1.484-3.584-3.15-3.584s-3.15 1.302-3.15 3.584zm1.19 0c0-1.568.798-2.632 1.96-2.632 1.176 0 1.96 1.064 1.96 2.632 0 1.554-.784 2.604-1.96 2.604-1.162 0-1.96-1.05-1.96-2.604zm6.902 2.016c0 .994.35 1.54 1.218 1.54.308 0 .504-.042.658-.112l-.154-.868c-.126.028-.182.028-.252.028-.168 0-.322-.14-.322-.504v-8.68h-1.148v8.596zm4.156-6.832c.448 0 .798-.308.798-.742 0-.448-.35-.742-.798-.742-.448 0-.798.294-.798.742 0 .434.35.742.798.742zm-.588 8.204h1.148v-6.804h-1.148v6.804zm2.941-3.388c0 2.254 1.386 3.556 3.192 3.556.812 0 1.596-.336 2.212-.882l-.518-.756c-.406.364-.952.686-1.596.686-1.246 0-2.1-1.05-2.1-2.604 0-1.568.896-2.632 2.128-2.632.546 0 .966.252 1.372.602l.574-.742c-.462-.434-1.092-.812-1.988-.812-1.75 0-3.276 1.302-3.276 3.584zm7.477-4.816c.448 0 .798-.308.798-.742 0-.448-.35-.742-.798-.742-.448 0-.798.294-.798.742 0 .434.35.742.798.742zm-.588 8.204h1.148v-6.804h-1.148v6.804zm3.642-2.1c0 1.344.49 2.268 1.946 2.268.42 0 .882-.126 1.26-.252l-.224-.868c-.224.084-.532.182-.77.182-.784 0-1.05-.476-1.05-1.316v-3.78h1.834v-.938h-1.834v-1.904h-.966l-.14 1.904-1.064.07v.868h1.008v3.766zm3.893-1.288c0 2.226 1.442 3.556 3.262 3.556.924 0 1.652-.322 2.24-.7l-.406-.756c-.504.322-1.05.532-1.694.532-1.302 0-2.184-.924-2.268-2.394h4.592c.028-.168.042-.392.042-.63 0-1.946-.98-3.192-2.716-3.192-1.554 0-3.052 1.358-3.052 3.584zm1.12-.518c.14-1.372 1.008-2.156 1.96-2.156 1.064 0 1.68.77 1.68 2.156h-3.64zm8.656.518c0 2.254 1.484 3.556 3.15 3.556s3.15-1.302 3.15-3.556c0-2.282-1.484-3.584-3.15-3.584s-3.15 1.302-3.15 3.584zm1.19 0c0-1.568.798-2.632 1.96-2.632 1.176 0 1.96 1.064 1.96 2.632 0 1.554-.784 2.604-1.96 2.604-1.162 0-1.96-1.05-1.96-2.604zm8.976 2.618c.644.532 1.568.938 2.534.938 1.61 0 2.492-.924 2.492-2.03 0-1.288-1.092-1.694-2.072-2.058-.77-.294-1.512-.546-1.512-1.176 0-.518.392-.98 1.246-.98.602 0 1.092.252 1.554.602l.546-.728c-.518-.42-1.26-.77-2.114-.77-1.47 0-2.338.84-2.338 1.932 0 1.148 1.064 1.61 2.03 1.96.742.28 1.554.588 1.554 1.288 0 .588-.448 1.064-1.344 1.064-.812 0-1.414-.336-2.002-.812l-.574.77zm6.117-2.618c0 2.226 1.442 3.556 3.262 3.556.924 0 1.652-.322 2.24-.7l-.406-.756c-.504.322-1.05.532-1.694.532-1.302 0-2.184-.924-2.268-2.394h4.592c.028-.168.042-.392.042-.63 0-1.946-.98-3.192-2.716-3.192-1.554 0-3.052 1.358-3.052 3.584zm1.12-.518c.14-1.372 1.008-2.156 1.96-2.156 1.064 0 1.68.77 1.68 2.156h-3.64zm6.231 1.414c0 1.736.644 2.66 2.086 2.66.938 0 1.61-.49 2.24-1.232h.042l.098 1.064h.952v-6.804h-1.148v4.83c-.644.798-1.134 1.148-1.834 1.148-.896 0-1.274-.546-1.274-1.82v-4.158h-1.162v4.312zM31.431 258.002h1.106V253.2c0-.966-.084-1.946-.14-2.87h.056l.994 1.89 3.318 5.782h1.204v-9.184h-1.106v4.746c0 .966.098 2.002.154 2.926h-.056l-.994-1.904-3.332-5.768H31.43v9.184zm8.982 0h1.106V253.2c0-.966-.084-1.946-.14-2.87h.056l.994 1.89 3.318 5.782h1.204v-9.184h-1.106v4.746c0 .966.098 2.002.154 2.926h-.056l-.994-1.904-3.332-5.768h-1.204v9.184zm8.983 0h1.106V253.2c0-.966-.084-1.946-.14-2.87h.056l.994 1.89 3.318 5.782h1.204v-9.184h-1.106v4.746c0 .966.098 2.002.154 2.926h-.056l-.994-1.904-3.332-5.768h-1.204v9.184zm8.982 0h1.106V253.2c0-.966-.084-1.946-.14-2.87h.056l.994 1.89 3.318 5.782h1.204v-9.184H63.81v4.746c0 .966.098 2.002.154 2.926h-.056l-.994-1.904-3.332-5.768h-1.204v9.184zm8.983 0h1.106V253.2c0-.966-.084-1.946-.14-2.87h.056l.994 1.89 3.318 5.782h1.204v-9.184h-1.106v4.746c0 .966.098 2.002.154 2.926h-.056l-.994-1.904-3.332-5.768H67.36v9.184zm8.982 0h1.106V253.2c0-.966-.084-1.946-.14-2.87h.056l.994 1.89 3.318 5.782h1.204v-9.184h-1.106v4.746c0 .966.098 2.002.154 2.926h-.056l-.994-1.904-3.332-5.768h-1.204v9.184zm8.982 0h1.106V253.2c0-.966-.084-1.946-.14-2.87h.056l.994 1.89 3.318 5.782h1.204v-9.184h-1.106v4.746c0 .966.098 2.002.154 2.926h-.056l-.994-1.904-3.332-5.768h-1.204v9.184zm11.239-3.388c0 2.226 1.442 3.556 3.262 3.556.924 0 1.652-.322 2.24-.7l-.406-.756c-.504.322-1.05.532-1.694.532-1.302 0-2.184-.924-2.268-2.394h4.592c.028-.168.042-.392.042-.63 0-1.946-.98-3.192-2.716-3.192-1.554 0-3.052 1.358-3.052 3.584zm1.12-.518c.14-1.372 1.008-2.156 1.96-2.156 1.064 0 1.68.77 1.68 2.156h-3.64zm8.823 2.142c0 1.218.854 1.932 2.002 1.932.84 0 1.596-.448 2.254-.98h.028l.098.812h.952v-4.172c0-1.694-.7-2.8-2.366-2.8-1.092 0-2.044.476-2.674.882l.462.798c.532-.364 1.232-.728 2.03-.728 1.106 0 1.4.84 1.4 1.708-2.898.322-4.186 1.064-4.186 2.548zm1.134-.084c0-.868.77-1.428 3.052-1.708v1.89c-.658.588-1.204.91-1.862.91-.672 0-1.19-.322-1.19-1.092zm5.876-1.54c0 2.268 1.106 3.556 2.814 3.556.798 0 1.526-.448 2.058-.966h.042l.098.798h.952v-9.968h-1.162v2.618l.056 1.162c-.602-.49-1.12-.784-1.904-.784-1.554 0-2.954 1.372-2.954 3.584zm1.19-.014c0-1.554.868-2.604 1.96-2.604.56 0 1.078.196 1.652.714v3.556c-.56.63-1.106.938-1.736.938-1.19 0-1.876-.98-1.876-2.604zm6.576.014c0 2.268 1.106 3.556 2.814 3.556.784 0 1.498-.42 2.044-.924l-.056 1.204v2.422h1.162v-9.674h-.924l-.112.644h-.028c-.616-.532-1.162-.812-1.946-.812-1.554 0-2.954 1.372-2.954 3.584zm1.19-.014c0-1.554.868-2.604 1.96-2.604.56 0 1.078.196 1.652.714v3.556c-.56.63-1.106.938-1.736.938-1.19 0-1.876-.98-1.876-2.604zm6.899.91c0 1.736.644 2.66 2.086 2.66.938 0 1.61-.49 2.24-1.232h.042l.098 1.064h.952v-6.804h-1.148v4.83c-.644.798-1.134 1.148-1.834 1.148-.896 0-1.274-.546-1.274-1.82v-4.158h-1.162v4.312zm8.302-5.712c.448 0 .798-.308.798-.742 0-.448-.35-.742-.798-.742-.448 0-.798.294-.798.742 0 .434.35.742.798.742zm-.588 8.204h1.148v-6.804h-1.148v6.804zm3.445 0h1.148v-4.368c.462-1.148 1.148-1.568 1.722-1.568.28 0 .434.042.658.112l.224-1.008a1.69 1.69 0 0 0-.728-.14c-.77 0-1.47.546-1.932 1.4h-.042l-.098-1.232h-.952v6.804zm4.162-1.764c0 1.218.854 1.932 2.002 1.932.84 0 1.596-.448 2.254-.98h.028l.098.812h.952v-4.172c0-1.694-.7-2.8-2.366-2.8-1.092 0-2.044.476-2.674.882l.462.798c.532-.364 1.232-.728 2.03-.728 1.106 0 1.4.84 1.4 1.708-2.898.322-4.186 1.064-4.186 2.548zm1.134-.084c0-.868.77-1.428 3.052-1.708v1.89c-.658.588-1.204.91-1.862.91-.672 0-1.19-.322-1.19-1.092zm8.44 1.078c.644.532 1.568.938 2.534.938 1.61 0 2.492-.924 2.492-2.03 0-1.288-1.092-1.694-2.072-2.058-.77-.294-1.512-.546-1.512-1.176 0-.518.392-.98 1.246-.98.602 0 1.092.252 1.554.602l.546-.728c-.518-.42-1.26-.77-2.114-.77-1.47 0-2.338.84-2.338 1.932 0 1.148 1.064 1.61 2.03 1.96.742.28 1.554.588 1.554 1.288 0 .588-.448 1.064-1.344 1.064-.812 0-1.414-.336-2.002-.812l-.574.77zm6.117-2.618c0 2.226 1.442 3.556 3.262 3.556.924 0 1.652-.322 2.24-.7l-.406-.756c-.504.322-1.05.532-1.694.532-1.302 0-2.184-.924-2.268-2.394h4.592c.028-.168.042-.392.042-.63 0-1.946-.98-3.192-2.716-3.192-1.554 0-3.052 1.358-3.052 3.584zm1.12-.518c.14-1.372 1.008-2.156 1.96-2.156 1.064 0 1.68.77 1.68 2.156h-3.64zm6.232 1.414c0 1.736.644 2.66 2.086 2.66.938 0 1.61-.49 2.24-1.232h.042l.098 1.064h.952v-6.804h-1.148v4.83c-.644.798-1.134 1.148-1.834 1.148-.896 0-1.274-.546-1.274-1.82v-4.158h-1.162v4.312zm6.957 1.722c.644.532 1.568.938 2.534.938 1.61 0 2.492-.924 2.492-2.03 0-1.288-1.092-1.694-2.072-2.058-.77-.294-1.512-.546-1.512-1.176 0-.518.392-.98 1.246-.98.602 0 1.092.252 1.554.602l.546-.728c-.518-.42-1.26-.77-2.114-.77-1.47 0-2.338.84-2.338 1.932 0 1.148 1.064 1.61 2.03 1.96.742.28 1.554.588 1.554 1.288 0 .588-.448 1.064-1.344 1.064-.812 0-1.414-.336-2.002-.812l-.574.77zm8.947-2.618c0 2.254 1.386 3.556 3.192 3.556.812 0 1.596-.336 2.212-.882l-.518-.756c-.406.364-.952.686-1.596.686-1.246 0-2.1-1.05-2.1-2.604 0-1.568.896-2.632 2.128-2.632.546 0 .966.252 1.372.602l.574-.742c-.462-.434-1.092-.812-1.988-.812-1.75 0-3.276 1.302-3.276 3.584zm6.889 3.388h1.148v-4.368c.462-1.148 1.148-1.568 1.722-1.568.28 0 .434.042.658.112l.224-1.008a1.69 1.69 0 0 0-.728-.14c-.77 0-1.47.546-1.932 1.4h-.042l-.098-1.232h-.952v6.804zm4.213-3.388c0 2.226 1.442 3.556 3.262 3.556.924 0 1.652-.322 2.24-.7l-.406-.756c-.504.322-1.05.532-1.694.532-1.302 0-2.184-.924-2.268-2.394h4.592c.028-.168.042-.392.042-.63 0-1.946-.98-3.192-2.716-3.192-1.554 0-3.052 1.358-3.052 3.584zm1.12-.518c.14-1.372 1.008-2.156 1.96-2.156 1.064 0 1.68.77 1.68 2.156h-3.64zm3.486-6.09h-1.19l-1.274 1.974h.882l1.582-1.974zm2.353 6.608c0 2.268 1.106 3.556 2.814 3.556.798 0 1.526-.448 2.058-.966h.042l.098.798h.952v-9.968h-1.162v2.618l.056 1.162c-.602-.49-1.12-.784-1.904-.784-1.554 0-2.954 1.372-2.954 3.584zm1.19-.014c0-1.554.868-2.604 1.96-2.604.56 0 1.078.196 1.652.714v3.556c-.56.63-1.106.938-1.736.938-1.19 0-1.876-.98-1.876-2.604zm7.654-4.802c.448 0 .798-.308.798-.742 0-.448-.35-.742-.798-.742-.448 0-.798.294-.798.742 0 .434.35.742.798.742zm-.588 8.204h1.148v-6.804h-1.148v6.804zm3.641-2.1c0 1.344.49 2.268 1.946 2.268.42 0 .882-.126 1.26-.252l-.224-.868c-.224.084-.532.182-.77.182-.784 0-1.05-.476-1.05-1.316v-3.78h1.834v-.938h-1.834v-1.904h-.966l-.14 1.904-1.064.07v.868h1.008v3.766zm3.894-1.288c0 2.254 1.484 3.556 3.15 3.556s3.15-1.302 3.15-3.556c0-2.282-1.484-3.584-3.15-3.584s-3.15 1.302-3.15 3.584zm1.19 0c0-1.568.798-2.632 1.96-2.632 1.176 0 1.96 1.064 1.96 2.632 0 1.554-.784 2.604-1.96 2.604-1.162 0-1.96-1.05-1.96-2.604zm6.146 2.618c.644.532 1.568.938 2.534.938 1.61 0 2.492-.924 2.492-2.03 0-1.288-1.092-1.694-2.072-2.058-.77-.294-1.512-.546-1.512-1.176 0-.518.392-.98 1.246-.98.602 0 1.092.252 1.554.602l.546-.728c-.518-.42-1.26-.77-2.114-.77-1.47 0-2.338.84-2.338 1.932 0 1.148 1.064 1.61 2.03 1.96.742.28 1.554.588 1.554 1.288 0 .588-.448 1.064-1.344 1.064-.812 0-1.414-.336-2.002-.812l-.574.77zm6.383.07c0 .504.378.868.84.868.448 0 .826-.364.826-.868 0-.532-.378-.896-.826-.896-.462 0-.84.364-.84.896z" fill="#080B1A"/><path d="M71.187 218.002h1.856v-3.84h1.664c2.24 0 3.968-1.072 3.968-3.392 0-2.432-1.68-3.232-3.968-3.232h-3.52v10.464zm1.856-5.328v-3.648h1.504c1.52 0 2.304.432 2.304 1.744 0 1.28-.736 1.904-2.304 1.904h-1.504zm6.535 1.408c0 2.592 1.696 4.112 3.872 4.112.992 0 1.936-.352 2.688-.848l-.624-1.152c-.576.368-1.152.576-1.824.576-1.264 0-2.16-.8-2.32-2.224h4.992c.048-.192.08-.512.08-.864 0-2.192-1.12-3.728-3.248-3.728-1.84 0-3.616 1.568-3.616 4.128zm1.776-.704c.16-1.312.96-2 1.888-2 1.072 0 1.6.752 1.6 2h-3.488zm10.67 4.768a3.987 3.987 0 0 0 2.031-.96l-.768-1.168c-.432.352-.976.672-1.616.672-1.232 0-2.096-1.04-2.096-2.608 0-1.584.88-2.624 2.144-2.624.496 0 .912.208 1.328.576l.88-1.168c-.528-.512-1.296-.912-2.304-.912-2.096 0-3.936 1.504-3.936 4.128 0 2.368 1.36 3.824 3.216 4.08l-.544 1.04c.688.176.976.4.976.736 0 .432-.576.64-1.376.736l.16.8c1.36-.096 2.576-.56 2.576-1.568 0-.656-.4-.976-.944-1.168l.272-.592zm3.074-2.256c0 1.376.96 2.304 2.336 2.304.928 0 1.728-.464 2.432-1.056h.048l.144.864h1.504v-4.656c0-2.192-.96-3.392-2.928-3.392-1.248 0-2.352.48-3.216 1.024l.672 1.232c.688-.416 1.424-.768 2.208-.768 1.056 0 1.408.704 1.424 1.536-3.216.352-4.624 1.232-4.624 2.912zm1.792-.144c0-.784.704-1.344 2.832-1.616v1.76c-.576.544-1.072.864-1.712.864-.656 0-1.12-.304-1.12-1.008zm9.688-1.664c0 2.608 1.776 4.112 3.728 4.112 1.968 0 3.744-1.504 3.744-4.112 0-2.624-1.776-4.128-3.744-4.128-1.952 0-3.728 1.504-3.728 4.128zm1.888 0c0-1.584.688-2.624 1.84-2.624 1.152 0 1.856 1.04 1.856 2.624 0 1.568-.704 2.608-1.856 2.608-1.152 0-1.84-1.04-1.84-2.608zm9.902 3.024c.768.624 1.904 1.088 2.976 1.088 1.984 0 3.056-1.088 3.056-2.432 0-1.472-1.184-1.984-2.256-2.384-.848-.304-1.632-.56-1.632-1.168 0-.496.368-.864 1.152-.864.624 0 1.184.272 1.728.672l.848-1.12c-.64-.496-1.52-.944-2.608-.944-1.76 0-2.864.976-2.864 2.352 0 1.312 1.168 1.904 2.208 2.288.832.32 1.68.608 1.68 1.264 0 .544-.4.944-1.248.944-.8 0-1.472-.336-2.176-.88l-.864 1.184zm7.163-3.024c0 2.592 1.696 4.112 3.872 4.112.992 0 1.936-.352 2.688-.848l-.624-1.152c-.576.368-1.152.576-1.824.576-1.264 0-2.16-.8-2.32-2.224h4.992c.048-.192.08-.512.08-.864 0-2.192-1.12-3.728-3.248-3.728-1.84 0-3.616 1.568-3.616 4.128zm1.776-.704c.16-1.312.96-2 1.888-2 1.072 0 1.6.752 1.6 2h-3.488zm6.765 1.696c0 1.984.736 3.12 2.416 3.12 1.072 0 1.84-.528 2.528-1.344h.048l.144 1.152h1.504v-7.856h-1.84v5.376c-.592.768-1.056 1.088-1.744 1.088-.848 0-1.216-.48-1.216-1.776v-4.688h-1.84v4.928zm12.396 2.928h1.856v-10.464h-1.856v10.464zm4.325 0h1.84v-5.488c.656-.64 1.104-.976 1.792-.976.864 0 1.232.48 1.232 1.776v4.688h1.84v-4.928c0-1.984-.736-3.12-2.416-3.12-1.072 0-1.872.56-2.576 1.248h-.064l-.128-1.056h-1.52v7.856zm8.169-.896c.768.624 1.904 1.088 2.976 1.088 1.984 0 3.056-1.088 3.056-2.432 0-1.472-1.184-1.984-2.256-2.384-.848-.304-1.632-.56-1.632-1.168 0-.496.368-.864 1.152-.864.624 0 1.184.272 1.728.672l.848-1.12c-.64-.496-1.52-.944-2.608-.944-1.76 0-2.864.976-2.864 2.352 0 1.312 1.168 1.904 2.208 2.288.832.32 1.68.608 1.68 1.264 0 .544-.4.944-1.248.944-.8 0-1.472-.336-2.176-.88l-.864 1.184zm7.947-1.76c0 1.696.672 2.848 2.496 2.848.624 0 1.168-.144 1.6-.288l-.32-1.36a2.252 2.252 0 0 1-.816.176c-.752 0-1.104-.448-1.104-1.376v-3.744h2v-1.456h-2v-2.144h-1.536l-.224 2.144-1.216.08v1.376h1.12v3.744zm4.939.544c0 1.376.96 2.304 2.336 2.304.928 0 1.728-.464 2.432-1.056h.048l.144.864h1.504v-4.656c0-2.192-.96-3.392-2.928-3.392-1.248 0-2.352.48-3.216 1.024l.672 1.232c.688-.416 1.424-.768 2.208-.768 1.056 0 1.408.704 1.424 1.536-3.216.352-4.624 1.232-4.624 2.912zm1.792-.144c0-.784.704-1.344 2.832-1.616v1.76c-.576.544-1.072.864-1.712.864-.656 0-1.12-.304-1.12-1.008zm6.919 2.256h1.84v-5.488c.656-.64 1.104-.976 1.792-.976.864 0 1.232.48 1.232 1.776v4.688h1.84v-4.928c0-1.984-.736-3.12-2.416-3.12-1.072 0-1.872.56-2.576 1.248h-.064l-.128-1.056h-1.52v7.856zm9.225-2.656c0 1.696.672 2.848 2.496 2.848.624 0 1.168-.144 1.6-.288l-.32-1.36a2.252 2.252 0 0 1-.816.176c-.752 0-1.104-.448-1.104-1.376v-3.744h2v-1.456h-2v-2.144h-1.536l-.224 2.144-1.216.08v1.376h1.12v3.744z" fill="#080B1A"/><path opacity=".04" d="M71.83 163.912c-39.163-33.233-43.97-91.92-10.738-131.083 33.232-39.162 91.92-43.97 131.083-10.737 39.162 33.232 43.969 91.92 10.737 131.083-33.233 39.162-91.92 43.969-131.083 10.737z" fill="url(#paint0_linear)"/><circle opacity=".04" cx="132.002" cy="93.002" r="83.5" stroke="#127BF3"/><circle opacity=".04" cx="132.002" cy="93.002" r="73.5" stroke="#127BF3"/><circle opacity=".04" cx="132.002" cy="93.002" r="63.5" stroke="#127BF3"/><path d="M88.661 122.401c.333 0 .644.166.832.44 9.51 13.822 25.551 22.901 43.738 22.901s34.228-9.079 43.738-22.901a1.01 1.01 0 0 1 .832-.44h7.284a1 1 0 0 0 1-1V65.604a1 1 0 0 0-1-1h-7.284a1.01 1.01 0 0 1-.832-.44c-9.51-13.823-25.551-22.902-43.738-22.902s-34.228 9.08-43.738 22.901c-.188.275-.499.44-.832.44h-7.284a1 1 0 0 0-1 1v55.798a1 1 0 0 0 1 1h7.284z" fill="url(#paint1_linear)"/><path d="M132.617 139.825c-25.596 0-46.323-20.477-46.323-45.708 0-25.232 20.727-45.709 46.323-45.709 25.595 0 46.322 20.477 46.322 45.709 0 25.231-20.727 45.708-46.322 45.708z" stroke="#0B71E5" stroke-opacity=".8" stroke-width="2"/><path d="M188.544 64.617a2.458 2.458 0 0 1 0 4.916h-17.476a9.967 9.967 0 0 1-5.235-1.485l-2.561-1.58c-.857-.53-.482-1.851.525-1.851h24.747zM188.544 123.617a2.459 2.459 0 0 0 0-4.917h-17.476a9.967 9.967 0 0 0-5.235 1.485l-2.561 1.581c-.857.529-.482 1.851.525 1.851h24.747zM75.46 123.617a2.459 2.459 0 0 1 0-4.917h16.596c1.826 0 3.615.525 5.151 1.513l2.43 1.562c.84.54.458 1.842-.54 1.842H75.46zM75.46 64.617a2.458 2.458 0 1 0 0 4.916h16.596a9.528 9.528 0 0 0 5.151-1.513l2.43-1.562c.84-.54.458-1.841-.54-1.841H75.46z" fill="#0B71E6"/><path transform="rotate(90 186.085 64.617)" fill="url(#paint2_linear)" d="M186.085 64.617h59v22.125h-59z"/><path transform="rotate(-90 80.377 123.617)" fill="url(#paint3_linear)" d="M80.377 123.617h59v22.125h-59z"/><path d="M102.281 90.174v7.581h-1.279v-7.581h1.279zM113.246 90.217v7.538h-1.628l-4.437-5.799v5.799h-1.318v-7.538h1.667l4.437 5.766v-5.766h1.279zM123.88 91.065c-.291.472-.523.838-.698 1.095-.258-.229-.688-.426-1.288-.59a6.431 6.431 0 0 0-1.773-.258c-.575 0-1.05.1-1.424.3-.375.194-.562.484-.562.87 0 .187.103.333.31.44.206.101.474.173.804.216.336.035.704.071 1.104.107.407.028.811.079 1.211.15.407.072.775.172 1.105.3.336.123.607.32.814.592.206.264.31.594.31.987 0 .752-.32 1.396-.959 1.933-.64.53-1.515.795-2.626.795-.71 0-1.356-.086-1.938-.258-.574-.172-.998-.347-1.269-.526a3.439 3.439 0 0 1-.659-.59l.863-1.064c.82.752 1.811 1.128 2.974 1.128.265 0 .52-.018.765-.054.252-.043.491-.107.717-.193.233-.093.417-.218.552-.376a.883.883 0 0 0 .204-.58.64.64 0 0 0-.32-.569c-.206-.136-.478-.225-.814-.268-.335-.05-.707-.09-1.114-.118a18.266 18.266 0 0 1-1.23-.13 6.042 6.042 0 0 1-1.114-.279 1.803 1.803 0 0 1-.824-.59c-.207-.28-.31-.63-.31-1.052 0-.745.339-1.343 1.017-1.794.679-.458 1.534-.687 2.568-.687.775 0 1.476.107 2.102.322.627.215 1.127.462 1.502.741zM133.186 90.217v1.278h-2.819v6.26h-1.279v-6.26h-2.742v-1.278h6.84zM143.113 97.755h-1.501l-.882-1.976h-4.244l-1.007 1.976h-1.56l4.089-7.581h1.559l3.546 7.581zm-4.369-6.41l-1.608 3.156h3.022l-1.414-3.157zM153.259 90.217v7.538h-1.628l-4.437-5.799v5.799h-1.317v-7.538h1.666l4.437 5.766v-5.766h1.279zM163.002 90.217v1.278h-2.819v6.26h-1.279v-6.26h-2.742v-1.278h6.84z" fill="#fff"/><defs><linearGradient id="paint0_linear" x1="202.912" y1="153.175" x2="35.455" y2="11.074" gradientUnits="userSpaceOnUse"><stop stop-color="#127BF3"/><stop offset="1" stop-color="#127BF3" stop-opacity=".2"/></linearGradient><linearGradient id="paint1_linear" x1="186.085" y1="93.502" x2="80.377" y2="93.502" gradientUnits="userSpaceOnUse"><stop stop-color="#4398FA"/><stop offset="1" stop-color="#127BF3"/></linearGradient><linearGradient id="paint2_linear" x1="215.585" y1="64.617" x2="215.585" y2="85.161" gradientUnits="userSpaceOnUse"><stop stop-color="#0B71E5"/><stop offset="1" stop-color="#0B71E5" stop-opacity="0"/></linearGradient><linearGradient id="paint3_linear" x1="109.877" y1="123.617" x2="109.877" y2="144.161" gradientUnits="userSpaceOnUse"><stop stop-color="#0B71E5"/><stop offset="1" stop-color="#0B71E5" stop-opacity="0"/></linearGradient></defs></svg>