<svg width="234" height="276" fill="none" xmlns="http://www.w3.org/2000/svg"><path opacity=".7" d="M.176 233.408c0 2.996 1.722 4.76 4.032 4.76 1.162 0 2.072-.49 2.786-1.33l-.658-.714c-.588.658-1.232 1.022-2.1 1.022-1.75 0-2.856-1.456-2.856-3.766 0-2.282 1.162-3.71 2.912-3.71.756 0 1.344.336 1.834.854l.658-.742c-.546-.602-1.414-1.134-2.506-1.134-2.352 0-4.102 1.806-4.102 4.76zm7.888 1.204c0 2.254 1.484 3.556 3.15 3.556s3.15-1.302 3.15-3.556c0-2.282-1.484-3.584-3.15-3.584s-3.15 1.302-3.15 3.584zm1.19 0c0-1.568.798-2.632 1.96-2.632 1.176 0 1.96 1.064 1.96 2.632 0 1.554-.784 2.604-1.96 2.604-1.162 0-1.96-1.05-1.96-2.604zm6.902 2.016c0 .994.35 1.54 1.218 1.54.308 0 .504-.042.658-.112l-.154-.868c-.126.028-.182.028-.252.028-.168 0-.322-.14-.322-.504v-8.68h-1.148v8.596zm3.064-2.016c0 2.254 1.484 3.556 3.15 3.556s3.15-1.302 3.15-3.556c0-2.282-1.484-3.584-3.15-3.584s-3.15 1.302-3.15 3.584zm1.19 0c0-1.568.798-2.632 1.96-2.632 1.176 0 1.96 1.064 1.96 2.632 0 1.554-.784 2.604-1.96 2.604-1.162 0-1.96-1.05-1.96-2.604zm6.412 0c0 2.268 1.106 3.556 2.814 3.556.784 0 1.498-.42 2.044-.924l-.056 1.204v2.422h1.162v-9.674h-.924l-.112.644h-.028c-.616-.532-1.162-.812-1.946-.812-1.554 0-2.954 1.372-2.954 3.584zm1.19-.014c0-1.554.868-2.604 1.96-2.604.56 0 1.078.196 1.652.714v3.556c-.56.63-1.106.938-1.736.938-1.19 0-1.876-.98-1.876-2.604zm6.9.91c0 1.736.643 2.66 2.085 2.66.938 0 1.61-.49 2.24-1.232h.042l.098 1.064h.952v-6.804h-1.148v4.83c-.644.798-1.134 1.148-1.834 1.148-.896 0-1.274-.546-1.274-1.82v-4.158h-1.162v4.312zm7.209-.896c0 2.226 1.442 3.556 3.262 3.556.924 0 1.652-.322 2.24-.7l-.406-.756c-.504.322-1.05.532-1.694.532-1.302 0-2.184-.924-2.268-2.394h4.592c.028-.168.042-.392.042-.63 0-1.946-.98-3.192-2.716-3.192-1.554 0-3.052 1.358-3.052 3.584zm1.12-.518c.14-1.372 1.008-2.156 1.96-2.156 1.064 0 1.68.77 1.68 2.156h-3.64zm8.655.518c0 2.254 1.484 3.556 3.15 3.556s3.15-1.302 3.15-3.556c0-2.282-1.484-3.584-3.15-3.584s-3.15 1.302-3.15 3.584zm1.19 0c0-1.568.798-2.632 1.96-2.632 1.176 0 1.96 1.064 1.96 2.632 0 1.554-.784 2.604-1.96 2.604-1.162 0-1.96-1.05-1.96-2.604zm8.976 2.618c.644.532 1.568.938 2.534.938 1.61 0 2.492-.924 2.492-2.03 0-1.288-1.092-1.694-2.072-2.058-.77-.294-1.512-.546-1.512-1.176 0-.518.392-.98 1.246-.98.602 0 1.092.252 1.554.602l.546-.728c-.518-.42-1.26-.77-2.114-.77-1.47 0-2.338.84-2.338 1.932 0 1.148 1.064 1.61 2.03 1.96.742.28 1.554.588 1.554 1.288 0 .588-.448 1.064-1.344 1.064-.812 0-1.414-.336-2.002-.812l-.574.77zm6.117-2.618c0 2.226 1.442 3.556 3.262 3.556.924 0 1.652-.322 2.24-.7l-.406-.756c-.504.322-1.05.532-1.694.532-1.302 0-2.184-.924-2.268-2.394h4.592c.028-.168.042-.392.042-.63 0-1.946-.98-3.192-2.716-3.192-1.554 0-3.052 1.358-3.052 3.584zm1.12-.518c.14-1.372 1.008-2.156 1.96-2.156 1.064 0 1.68.77 1.68 2.156H69.3zm6.231 1.414c0 1.736.644 2.66 2.087 2.66.938 0 1.61-.49 2.24-1.232h.041l.099 1.064h.951v-6.804h-1.147v4.83c-.645.798-1.135 1.148-1.835 1.148-.895 0-1.273-.546-1.273-1.82v-4.158H75.53v4.312zM86.145 238h1.106v-4.802c0-.966-.084-1.946-.14-2.87h.056l.994 1.89L91.478 238h1.204v-9.184h-1.106v4.746c0 .966.098 2.002.154 2.926h-.056l-.994-1.904-3.332-5.768h-1.204V238zm8.982 0h1.106v-4.802c0-.966-.084-1.946-.14-2.87h.056l.994 1.89L100.46 238h1.204v-9.184h-1.106v4.746c0 .966.098 2.002.154 2.926h-.056l-.994-1.904-3.332-5.768h-1.204V238zm8.983 0h1.106v-4.802c0-.966-.084-1.946-.14-2.87h.056l.994 1.89 3.318 5.782h1.204v-9.184h-1.106v4.746c0 .966.098 2.002.154 2.926h-.056l-.994-1.904-3.332-5.768h-1.204V238zm8.982 0h1.106v-4.802c0-.966-.084-1.946-.14-2.87h.056l.994 1.89 3.318 5.782h1.204v-9.184h-1.106v4.746c0 .966.098 2.002.154 2.926h-.056l-.994-1.904-3.332-5.768h-1.204V238zm8.982 0h1.106v-4.802c0-.966-.084-1.946-.14-2.87h.056l.994 1.89 3.318 5.782h1.204v-9.184h-1.106v4.746c0 .966.098 2.002.154 2.926h-.056l-.994-1.904-3.332-5.768h-1.204V238zm11.743 0h1.148v-4.928c.686-.686 1.162-1.05 1.862-1.05.896 0 1.288.546 1.288 1.82V238h1.148v-4.312c0-1.736-.644-2.66-2.072-2.66-.938 0-1.638.504-2.282 1.148h-.042l-.098-.98h-.952V238zm7.152-3.388c0 2.254 1.484 3.556 3.15 3.556s3.15-1.302 3.15-3.556c0-2.282-1.484-3.584-3.15-3.584s-3.15 1.302-3.15 3.584zm1.19 0c0-1.568.798-2.632 1.96-2.632 1.176 0 1.96 1.064 1.96 2.632 0 1.554-.784 2.604-1.96 2.604-1.162 0-1.96-1.05-1.96-2.604zm9.228 0c0 2.254 1.386 3.556 3.192 3.556.812 0 1.596-.336 2.212-.882l-.518-.756c-.406.364-.952.686-1.596.686-1.246 0-2.1-1.05-2.1-2.604 0-1.568.896-2.632 2.128-2.632.546 0 .966.252 1.372.602l.574-.742c-.462-.434-1.092-.812-1.988-.812-1.75 0-3.276 1.302-3.276 3.584zm6.416 1.624c0 1.218.854 1.932 2.002 1.932.84 0 1.596-.448 2.254-.98h.028l.098.812h.952v-4.172c0-1.694-.7-2.8-2.366-2.8-1.092 0-2.044.476-2.674.882l.462.798c.532-.364 1.232-.728 2.03-.728 1.106 0 1.4.84 1.4 1.708-2.898.322-4.186 1.064-4.186 2.548zm1.134-.084c0-.868.77-1.428 3.052-1.708v1.89c-.658.588-1.204.91-1.862.91-.672 0-1.19-.322-1.19-1.092zm6.366 1.848h1.148v-4.368c.462-1.148 1.148-1.568 1.722-1.568.28 0 .434.042.658.112l.224-1.008a1.69 1.69 0 0 0-.728-.14c-.77 0-1.47.546-1.932 1.4h-.042l-.098-1.232h-.952V238zm4.854 0h1.148v-4.368c.462-1.148 1.148-1.568 1.722-1.568.28 0 .434.042.658.112l.224-1.008a1.69 1.69 0 0 0-.728-.14c-.77 0-1.47.546-1.932 1.4h-.042l-.098-1.232h-.952V238zm4.213-3.388c0 2.254 1.484 3.556 3.15 3.556s3.15-1.302 3.15-3.556c0-2.282-1.484-3.584-3.15-3.584s-3.15 1.302-3.15 3.584zm1.19 0c0-1.568.798-2.632 1.96-2.632 1.176 0 1.96 1.064 1.96 2.632 0 1.554-.784 2.604-1.96 2.604-1.162 0-1.96-1.05-1.96-2.604zm6.527 2.688c0 .504.378.868.84.868.448 0 .826-.364.826-.868 0-.532-.378-.896-.826-.896-.462 0-.84.364-.84.896zm7.282-3.934c0-2.282 1.078-3.696 2.716-3.696 1.638 0 2.716 1.414 2.716 3.696 0 2.296-1.078 3.78-2.716 3.78-1.638 0-2.716-1.484-2.716-3.78zm6.622 5.81c-.252.07-.56.14-.966.14-.994 0-1.834-.392-2.254-1.204 1.946-.336 3.248-2.1 3.248-4.746 0-2.926-1.624-4.718-3.934-4.718s-3.92 1.778-3.92 4.718c0 2.702 1.344 4.48 3.346 4.76.532 1.26 1.694 2.17 3.388 2.17.546 0 1.036-.112 1.316-.21l-.224-.91zm1.781-3.668c0 1.736.644 2.66 2.086 2.66.938 0 1.61-.49 2.24-1.232h.042l.098 1.064h.952v-6.804h-1.148v4.83c-.644.798-1.134 1.148-1.834 1.148-.896 0-1.274-.546-1.274-1.82v-4.158h-1.162v4.312zm7.377.728c0 1.218.854 1.932 2.002 1.932.84 0 1.596-.448 2.254-.98h.028l.098.812h.952v-4.172c0-1.694-.7-2.8-2.366-2.8-1.092 0-2.044.476-2.674.882l.462.798c.532-.364 1.232-.728 2.03-.728 1.106 0 1.4.84 1.4 1.708-2.898.322-4.186 1.064-4.186 2.548zm1.134-.084c0-.868.77-1.428 3.052-1.708v1.89c-.658.588-1.204.91-1.862.91-.672 0-1.19-.322-1.19-1.092zm6.366 1.848h1.148v-4.928c.686-.686 1.162-1.05 1.862-1.05.896 0 1.288.546 1.288 1.82V238h1.148v-4.312c0-1.736-.644-2.66-2.072-2.66-.938 0-1.638.504-2.282 1.148h-.042l-.098-.98h-.952V238zm7.166-3.388c0 2.268 1.106 3.556 2.814 3.556.798 0 1.526-.448 2.058-.966h.042l.098.798h.952v-9.968h-1.162v2.618l.056 1.162c-.602-.49-1.12-.784-1.904-.784-1.554 0-2.954 1.372-2.954 3.584zm1.19-.014c0-1.554.868-2.604 1.96-2.604.56 0 1.078.196 1.652.714v3.556c-.56.63-1.106.938-1.736.938-1.19 0-1.876-.98-1.876-2.604zm6.562.014c0 2.254 1.484 3.556 3.15 3.556s3.15-1.302 3.15-3.556c0-2.282-1.484-3.584-3.15-3.584s-3.15 1.302-3.15 3.584zm1.19 0c0-1.568.798-2.632 1.96-2.632 1.176 0 1.96 1.064 1.96 2.632 0 1.554-.784 2.604-1.96 2.604-1.162 0-1.96-1.05-1.96-2.604zM5.593 254.384c.63.49 1.26.784 1.89.784 1.554 0 2.94-1.358 2.94-3.668 0-2.114-.938-3.472-2.688-3.472-.798 0-1.554.434-2.17.952h-.042l-.098-.784h-.952v9.674h1.148v-2.296l-.028-1.19zm.028-.896v-3.57c.672-.602 1.246-.924 1.82-.924 1.288 0 1.792 1.008 1.792 2.506 0 1.68-.826 2.702-1.946 2.702-.448 0-1.05-.196-1.666-.714zm6.114-1.876c0 2.226 1.442 3.556 3.262 3.556.924 0 1.652-.322 2.24-.7l-.406-.756c-.504.322-1.05.532-1.694.532-1.302 0-2.184-.924-2.268-2.394h4.592c.028-.168.042-.392.042-.63 0-1.946-.98-3.192-2.716-3.192-1.554 0-3.052 1.358-3.052 3.584zm1.12-.518c.14-1.372 1.008-2.156 1.96-2.156 1.064 0 1.68.77 1.68 2.156h-3.64zm6.682 5.054c0-.392.21-.798.7-1.148.294.084.616.112.882.112h1.176c.882 0 1.372.21 1.372.84 0 .714-.854 1.386-2.156 1.386-1.232 0-1.974-.462-1.974-1.19zm-1.008.154c0 1.176 1.148 1.834 2.814 1.834 2.114 0 3.444-1.092 3.444-2.352 0-1.134-.798-1.624-2.38-1.624h-1.316c-.924 0-1.204-.308-1.204-.742 0-.378.196-.602.434-.812.308.154.686.238 1.022.238 1.386 0 2.492-.91 2.492-2.366 0-.574-.238-1.092-.56-1.4h1.4v-.882H22.31a2.717 2.717 0 0 0-.966-.168c-1.386 0-2.562.938-2.562 2.422 0 .812.434 1.47.882 1.834v.056c-.35.238-.742.686-.742 1.26 0 .532.266.896.602 1.106v.056c-.616.42-.994.966-.994 1.54zm2.814-4.228c-.784 0-1.442-.63-1.442-1.624 0-.994.644-1.582 1.442-1.582.798 0 1.442.588 1.442 1.582 0 .994-.658 1.624-1.442 1.624zm4.204 1.162c0 1.218.854 1.932 2.002 1.932.84 0 1.596-.448 2.254-.98h.028l.098.812h.952v-4.172c0-1.694-.7-2.8-2.366-2.8-1.092 0-2.044.476-2.674.882l.462.798c.532-.364 1.232-.728 2.03-.728 1.106 0 1.4.84 1.4 1.708-2.898.322-4.186 1.064-4.186 2.548zm1.134-.084c0-.868.77-1.428 3.052-1.708v1.89c-.658.588-1.204.91-1.862.91-.672 0-1.19-.322-1.19-1.092zM33.047 255h1.148v-4.368c.462-1.148 1.148-1.568 1.722-1.568.28 0 .434.042.658.112l.224-1.008a1.69 1.69 0 0 0-.728-.14c-.77 0-1.47.546-1.932 1.4h-.042L34 248.196h-.952V255zm7.348-1.764c0 1.218.854 1.932 2.002 1.932.84 0 1.596-.448 2.254-.98h.028l.098.812h.952v-4.172c0-1.694-.7-2.8-2.366-2.8-1.092 0-2.044.476-2.674.882l.462.798c.532-.364 1.232-.728 2.03-.728 1.106 0 1.4.84 1.4 1.708-2.898.322-4.186 1.064-4.186 2.548zm1.134-.084c0-.868.77-1.428 3.052-1.708v1.89c-.658.588-1.204.91-1.862.91-.672 0-1.19-.322-1.19-1.092zm8.692-1.54c0 2.226 1.442 3.556 3.262 3.556.924 0 1.652-.322 2.24-.7l-.406-.756c-.504.322-1.05.532-1.694.532-1.302 0-2.184-.924-2.268-2.394h4.592c.028-.168.042-.392.042-.63 0-1.946-.98-3.192-2.716-3.192-1.554 0-3.052 1.358-3.052 3.584zm1.12-.518c.14-1.372 1.008-2.156 1.96-2.156 1.064 0 1.68.77 1.68 2.156h-3.64zm5.573 3.136c.645.532 1.569.938 2.535.938 1.61 0 2.492-.924 2.492-2.03 0-1.288-1.093-1.694-2.073-2.058-.77-.294-1.512-.546-1.512-1.176 0-.518.392-.98 1.246-.98.603 0 1.093.252 1.555.602l.546-.728c-.519-.42-1.26-.77-2.114-.77-1.47 0-2.338.84-2.338 1.932 0 1.148 1.064 1.61 2.03 1.96.742.28 1.553.588 1.553 1.288 0 .588-.448 1.064-1.344 1.064-.812 0-1.413-.336-2.002-.812l-.574.77zm6.818-1.33c0 1.344.49 2.268 1.946 2.268.42 0 .882-.126 1.26-.252l-.224-.868c-.224.084-.532.182-.77.182-.784 0-1.05-.476-1.05-1.316v-3.78h1.834v-.938h-1.834v-1.904h-.966l-.14 1.904-1.064.07v.868h1.008v3.766zm4.534 2.1h1.148v-4.368c.462-1.148 1.148-1.568 1.722-1.568.28 0 .434.042.658.112l.224-1.008a1.69 1.69 0 0 0-.728-.14c-.77 0-1.47.546-1.932 1.4h-.042l-.098-1.232h-.952V255zm4.162-1.764c0 1.218.854 1.932 2.002 1.932.84 0 1.596-.448 2.254-.98h.028l.098.812h.952v-4.172c0-1.694-.7-2.8-2.366-2.8-1.092 0-2.044.476-2.674.882l.462.798c.532-.364 1.232-.728 2.03-.728 1.106 0 1.4.84 1.4 1.708-2.898.322-4.186 1.064-4.186 2.548zm1.134-.084c0-.868.77-1.428 3.052-1.708v1.89c-.658.588-1.204.91-1.862.91-.672 0-1.19-.322-1.19-1.092zm5.876-1.54c0 2.268 1.106 3.556 2.814 3.556.798 0 1.526-.448 2.058-.966h.042l.098.798h.952v-9.968H84.24v2.618l.056 1.162c-.602-.49-1.12-.784-1.904-.784-1.554 0-2.954 1.372-2.954 3.584zm1.19-.014c0-1.554.868-2.604 1.96-2.604.56 0 1.078.196 1.652.714v3.556c-.56.63-1.106.938-1.736.938-1.19 0-1.876-.98-1.876-2.604zm6.73 1.638c0 1.218.854 1.932 2.002 1.932.84 0 1.596-.448 2.254-.98h.028l.098.812h.952v-4.172c0-1.694-.7-2.8-2.366-2.8-1.092 0-2.044.476-2.674.882l.462.798c.532-.364 1.232-.728 2.03-.728 1.106 0 1.4.84 1.4 1.708-2.898.322-4.186 1.064-4.186 2.548zm1.134-.084c0-.868.77-1.428 3.052-1.708v1.89c-.658.588-1.204.91-1.862.91-.672 0-1.19-.322-1.19-1.092zm6.156 4.228c1.134-.476 1.834-1.414 1.834-2.618 0-.84-.364-1.358-.966-1.358-.462 0-.854.308-.854.812 0 .518.378.798.826.798.042 0 .098 0 .14-.014 0 .756-.476 1.358-1.26 1.708l.28.672zm6.022-5.768c0 2.226 1.442 3.556 3.262 3.556.924 0 1.652-.322 2.24-.7l-.406-.756c-.504.322-1.05.532-1.694.532-1.302 0-2.184-.924-2.268-2.394h4.592c.028-.168.042-.392.042-.63 0-1.946-.98-3.192-2.716-3.192-1.554 0-3.052 1.358-3.052 3.584zm1.12-.518c.14-1.372 1.008-2.156 1.96-2.156 1.064 0 1.68.77 1.68 2.156h-3.64zm3.486-6.09h-1.19l-1.274 1.974h.882l1.582-1.974zm4.918 9.226c.644.532 1.568.938 2.534.938 1.61 0 2.492-.924 2.492-2.03 0-1.288-1.092-1.694-2.072-2.058-.77-.294-1.512-.546-1.512-1.176 0-.518.392-.98 1.246-.98.602 0 1.092.252 1.554.602l.546-.728c-.518-.42-1.26-.77-2.114-.77-1.47 0-2.338.84-2.338 1.932 0 1.148 1.064 1.61 2.03 1.96.742.28 1.554.588 1.554 1.288 0 .588-.448 1.064-1.344 1.064-.812 0-1.414-.336-2.002-.812l-.574.77zm6.117-2.618c0 2.254 1.484 3.556 3.15 3.556s3.15-1.302 3.15-3.556c0-2.282-1.484-3.584-3.15-3.584s-3.15 1.302-3.15 3.584zm1.19 0c0-1.568.798-2.632 1.96-2.632 1.176 0 1.96 1.064 1.96 2.632 0 1.554-.784 2.604-1.96 2.604-1.162 0-1.96-1.05-1.96-2.604zm3.514-6.608h-1.204l-1.26 1.974h.882l1.582-1.974zm5.882 8.232c0 1.218.854 1.932 2.002 1.932.84 0 1.596-.448 2.254-.98h.028l.098.812h.952v-4.172c0-1.694-.7-2.8-2.366-2.8-1.092 0-2.044.476-2.674.882l.462.798c.532-.364 1.232-.728 2.03-.728 1.106 0 1.4.84 1.4 1.708-2.898.322-4.186 1.064-4.186 2.548zm1.134-.084c0-.868.77-1.428 3.052-1.708v1.89c-.658.588-1.204.91-1.862.91-.672 0-1.19-.322-1.19-1.092zm6.562-.252c0 1.344.49 2.268 1.946 2.268.42 0 .882-.126 1.26-.252l-.224-.868c-.224.084-.532.182-.77.182-.784 0-1.05-.476-1.05-1.316v-3.78h1.834v-.938h-1.834v-1.904h-.966l-.14 1.904-1.064.07v.868h1.008v3.766zm5.122-6.104c.448 0 .798-.308.798-.742 0-.448-.35-.742-.798-.742-.448 0-.798.294-.798.742 0 .434.35.742.798.742zm-.588 8.204h1.148v-6.804h-1.148V255zm4.916 0h1.344l2.408-6.804h-1.134l-1.288 3.864c-.196.672-.42 1.358-.616 2.002h-.056c-.21-.644-.434-1.33-.63-2.002l-1.288-3.864h-1.19l2.45 6.804zm4.456-1.764c0 1.218.854 1.932 2.002 1.932.84 0 1.596-.448 2.254-.98h.028l.098.812h.952v-4.172c0-1.694-.7-2.8-2.366-2.8-1.092 0-2.044.476-2.674.882l.462.798c.532-.364 1.232-.728 2.03-.728 1.106 0 1.4.84 1.4 1.708-2.898.322-4.186 1.064-4.186 2.548zm1.134-.084c0-.868.77-1.428 3.052-1.708v1.89c-.658.588-1.204.91-1.862.91-.672 0-1.19-.322-1.19-1.092zm6.366 1.848h1.148v-4.368c.462-1.148 1.148-1.568 1.722-1.568.28 0 .434.042.658.112l.224-1.008a1.69 1.69 0 0 0-.728-.14c-.77 0-1.47.546-1.932 1.4h-.042l-.098-1.232h-.952V255zm7.179-3.388c0 2.254 1.484 3.556 3.15 3.556s3.15-1.302 3.15-3.556c0-2.282-1.484-3.584-3.15-3.584s-3.15 1.302-3.15 3.584zm1.19 0c0-1.568.798-2.632 1.96-2.632 1.176 0 1.96 1.064 1.96 2.632 0 1.554-.784 2.604-1.96 2.604-1.162 0-1.96-1.05-1.96-2.604zm8.976 2.618c.644.532 1.568.938 2.534.938 1.61 0 2.492-.924 2.492-2.03 0-1.288-1.092-1.694-2.072-2.058-.77-.294-1.512-.546-1.512-1.176 0-.518.392-.98 1.246-.98.602 0 1.092.252 1.554.602l.546-.728c-.518-.42-1.26-.77-2.114-.77-1.47 0-2.338.84-2.338 1.932 0 1.148 1.064 1.61 2.03 1.96.742.28 1.554.588 1.554 1.288 0 .588-.448 1.064-1.344 1.064-.812 0-1.414-.336-2.002-.812l-.574.77zm6.117-2.618c0 2.226 1.442 3.556 3.262 3.556.924 0 1.652-.322 2.24-.7l-.406-.756c-.504.322-1.05.532-1.694.532-1.302 0-2.184-.924-2.268-2.394h4.592c.028-.168.042-.392.042-.63 0-1.946-.98-3.192-2.716-3.192-1.554 0-3.052 1.358-3.052 3.584zm1.12-.518c.14-1.372 1.008-2.156 1.96-2.156 1.064 0 1.68.77 1.68 2.156h-3.64zm6.683 5.054c0-.392.21-.798.7-1.148.294.084.616.112.882.112h1.176c.882 0 1.372.21 1.372.84 0 .714-.854 1.386-2.156 1.386-1.232 0-1.974-.462-1.974-1.19zm-1.008.154c0 1.176 1.148 1.834 2.814 1.834 2.114 0 3.444-1.092 3.444-2.352 0-1.134-.798-1.624-2.38-1.624h-1.316c-.924 0-1.204-.308-1.204-.742 0-.378.196-.602.434-.812.308.154.686.238 1.022.238 1.386 0 2.492-.91 2.492-2.366 0-.574-.238-1.092-.56-1.4h1.4v-.882h-2.366a2.717 2.717 0 0 0-.966-.168c-1.386 0-2.562.938-2.562 2.422 0 .812.434 1.47.882 1.834v.056c-.35.238-.742.686-.742 1.26 0 .532.266.896.602 1.106v.056c-.616.42-.994.966-.994 1.54zm2.814-4.228c-.784 0-1.442-.63-1.442-1.624 0-.994.644-1.582 1.442-1.582.798 0 1.442.588 1.442 1.582 0 .994-.658 1.624-1.442 1.624zm4.661.434c0 1.736.644 2.66 2.086 2.66.938 0 1.61-.49 2.24-1.232h.042l.098 1.064h.952v-6.804h-1.148v4.83c-.644.798-1.134 1.148-1.834 1.148-.896 0-1.274-.546-1.274-1.82v-4.158h-1.162v4.312zm7.713 2.492h1.148v-4.368c.462-1.148 1.148-1.568 1.722-1.568.28 0 .434.042.658.112l.224-1.008a1.69 1.69 0 0 0-.728-.14c-.77 0-1.47.546-1.932 1.4h-.042l-.098-1.232h-.952V255zm4.213-3.388c0 2.254 1.484 3.556 3.15 3.556s3.15-1.302 3.15-3.556c0-2.282-1.484-3.584-3.15-3.584s-3.15 1.302-3.15 3.584zm1.19 0c0-1.568.798-2.632 1.96-2.632 1.176 0 1.96 1.064 1.96 2.632 0 1.554-.784 2.604-1.96 2.604-1.162 0-1.96-1.05-1.96-2.604zm9.732 3.388h1.148v-4.928c.686-.686 1.162-1.05 1.862-1.05.896 0 1.288.546 1.288 1.82V255h1.148v-4.312c0-1.736-.644-2.66-2.072-2.66-.938 0-1.638.504-2.282 1.148h-.042l-.098-.98h-.952V255zm7.152-3.388c0 2.254 1.484 3.556 3.15 3.556s3.15-1.302 3.15-3.556c0-2.282-1.484-3.584-3.15-3.584s-3.15 1.302-3.15 3.584zm1.19 0c0-1.568.798-2.632 1.96-2.632 1.176 0 1.96 1.064 1.96 2.632 0 1.554-.784 2.604-1.96 2.604-1.162 0-1.96-1.05-1.96-2.604zM27.12 271.236c0 1.218.854 1.932 2.002 1.932.84 0 1.596-.448 2.254-.98h.028l.098.812h.952v-4.172c0-1.694-.7-2.8-2.366-2.8-1.092 0-2.044.476-2.674.882l.462.798c.532-.364 1.232-.728 2.03-.728 1.106 0 1.4.84 1.4 1.708-2.898.322-4.186 1.064-4.186 2.548zm1.134-.084c0-.868.77-1.428 3.052-1.708v1.89c-.658.588-1.204.91-1.862.91-.672 0-1.19-.322-1.19-1.092zm7.486 1.232c.63.49 1.26.784 1.89.784 1.554 0 2.94-1.358 2.94-3.668 0-2.114-.938-3.472-2.688-3.472-.798 0-1.554.434-2.17.952h-.042l-.098-.784h-.952v9.674h1.148v-2.296l-.028-1.19zm.028-.896v-3.57c.672-.602 1.246-.924 1.82-.924 1.288 0 1.792 1.008 1.792 2.506 0 1.68-.826 2.702-1.946 2.702-.448 0-1.05-.196-1.666-.714zm6.617.14c0 .994.35 1.54 1.218 1.54.308 0 .504-.042.658-.112l-.154-.868c-.126.028-.182.028-.252.028-.168 0-.322-.14-.322-.504v-8.68h-1.148v8.596zm4.157-6.832c.448 0 .798-.308.798-.742 0-.448-.35-.742-.798-.742-.448 0-.798.294-.798.742 0 .434.35.742.798.742zM45.954 273h1.148v-6.804h-1.148V273zm2.941-3.388c0 2.254 1.386 3.556 3.192 3.556.812 0 1.596-.336 2.212-.882l-.518-.756c-.406.364-.952.686-1.596.686-1.246 0-2.1-1.05-2.1-2.604 0-1.568.896-2.632 2.128-2.632.546 0 .966.252 1.372.602l.574-.742c-.462-.434-1.092-.812-1.988-.812-1.75 0-3.276 1.302-3.276 3.584zm6.416 1.624c0 1.218.854 1.932 2.002 1.932.84 0 1.596-.448 2.254-.98h.028l.098.812h.952v-4.172c0-1.694-.7-2.8-2.366-2.8-1.092 0-2.044.476-2.674.882l.462.798c.532-.364 1.232-.728 2.03-.728 1.106 0 1.4.84 1.4 1.708-2.898.322-4.186 1.064-4.186 2.548zm1.134-.084c0-.868.77-1.428 3.052-1.708v1.89c-.658.588-1.204.91-1.862.91-.672 0-1.19-.322-1.19-1.092zm6.562-.252c0 1.344.49 2.268 1.946 2.268.42 0 .882-.126 1.26-.252l-.224-.868c-.224.084-.532.182-.77.182-.784 0-1.05-.476-1.05-1.316v-3.78h1.834v-.938H64.17v-1.904h-.966l-.14 1.904-1.064.07v.868h1.008v3.766zm5.123-6.104c.448 0 .798-.308.798-.742 0-.448-.35-.742-.798-.742-.448 0-.798.294-.798.742 0 .434.35.742.798.742zM67.542 273h1.148v-6.804h-1.148V273zm4.915 0H73.8l2.408-6.804h-1.134l-1.288 3.864c-.196.672-.42 1.358-.616 2.002h-.056c-.21-.644-.434-1.33-.63-2.002l-1.288-3.864h-1.19l2.45 6.804zm4.506-3.388c0 2.254 1.484 3.556 3.15 3.556s3.15-1.302 3.15-3.556c0-2.282-1.484-3.584-3.15-3.584s-3.15 1.302-3.15 3.584zm1.19 0c0-1.568.798-2.632 1.96-2.632 1.176 0 1.96 1.064 1.96 2.632 0 1.554-.784 2.604-1.96 2.604-1.162 0-1.96-1.05-1.96-2.604zm6.527 2.688c0 .504.378.868.84.868.449 0 .827-.364.827-.868 0-.532-.378-.896-.826-.896-.463 0-.84.364-.84.896zm6.625.7h1.176v-4.116h3.5v-.98h-3.5v-3.108h4.13v-.98h-5.306V273zm5.965-1.764c0 1.218.854 1.932 2.002 1.932.84 0 1.596-.448 2.254-.98h.028l.098.812h.952v-4.172c0-1.694-.7-2.8-2.366-2.8-1.092 0-2.044.476-2.674.882l.462.798c.532-.364 1.232-.728 2.03-.728 1.106 0 1.4.84 1.4 1.708-2.898.322-4.186 1.064-4.186 2.548zm1.134-.084c0-.868.77-1.428 3.052-1.708v1.89c-.658.588-1.204.91-1.862.91-.672 0-1.19-.322-1.19-1.092zm3.374-8.148h-1.204l-1.26 1.974h.882l1.582-1.974zm2.488 6.608c0 2.254 1.386 3.556 3.192 3.556.812 0 1.596-.336 2.212-.882l-.518-.756c-.406.364-.952.686-1.596.686-1.246 0-2.1-1.05-2.1-2.604 0-1.568.896-2.632 2.128-2.632.546 0 .966.252 1.372.602l.574-.742c-.462-.434-1.092-.812-1.988-.812-1.75 0-3.276 1.302-3.276 3.584zm7.477-4.816c.448 0 .798-.308.798-.742 0-.448-.35-.742-.798-.742-.448 0-.798.294-.798.742 0 .434.35.742.798.742zm-.588 8.204h1.148v-6.804h-1.148V273zm3.445-1.372c0 .994.35 1.54 1.218 1.54.308 0 .504-.042.658-.112l-.154-.868c-.126.028-.182.028-.252.028-.168 0-.322-.14-.322-.504v-8.68H114.6v8.596zm6.399 1.372h1.148v-4.928c.63-.7 1.204-1.05 1.708-1.05.868 0 1.274.546 1.274 1.82V273h1.148v-4.928c.63-.7 1.176-1.05 1.708-1.05.854 0 1.26.546 1.26 1.82V273h1.148v-4.312c0-1.736-.672-2.66-2.072-2.66-.826 0-1.526.532-2.24 1.302-.28-.812-.84-1.302-1.876-1.302-.812 0-1.526.504-2.114 1.148h-.042l-.098-.98h-.952V273zm11.103-3.388c0 2.226 1.442 3.556 3.262 3.556.924 0 1.652-.322 2.24-.7l-.406-.756c-.504.322-1.05.532-1.694.532-1.302 0-2.184-.924-2.268-2.394h4.592c.028-.168.042-.392.042-.63 0-1.946-.98-3.192-2.716-3.192-1.554 0-3.052 1.358-3.052 3.584zm1.12-.518c.14-1.372 1.008-2.156 1.96-2.156 1.064 0 1.68.77 1.68 2.156h-3.64zm5.573 3.136c.644.532 1.568.938 2.534.938 1.61 0 2.492-.924 2.492-2.03 0-1.288-1.092-1.694-2.072-2.058-.77-.294-1.512-.546-1.512-1.176 0-.518.392-.98 1.246-.98.602 0 1.092.252 1.554.602l.546-.728c-.518-.42-1.26-.77-2.114-.77-1.47 0-2.338.84-2.338 1.932 0 1.148 1.064 1.61 2.03 1.96.742.28 1.554.588 1.554 1.288 0 .588-.448 1.064-1.344 1.064-.812 0-1.414-.336-2.002-.812l-.574.77zm6.622.77h1.148v-4.928c.63-.7 1.204-1.05 1.708-1.05.868 0 1.274.546 1.274 1.82V273h1.148v-4.928c.63-.7 1.176-1.05 1.708-1.05.854 0 1.26.546 1.26 1.82V273h1.148v-4.312c0-1.736-.672-2.66-2.072-2.66-.826 0-1.526.532-2.24 1.302-.28-.812-.84-1.302-1.876-1.302-.812 0-1.526.504-2.114 1.148h-.042l-.098-.98h-.952V273zm11.103-3.388c0 2.254 1.484 3.556 3.15 3.556s3.15-1.302 3.15-3.556c0-2.282-1.484-3.584-3.15-3.584s-3.15 1.302-3.15 3.584zm1.19 0c0-1.568.798-2.632 1.96-2.632 1.176 0 1.96 1.064 1.96 2.632 0 1.554-.784 2.604-1.96 2.604-1.162 0-1.96-1.05-1.96-2.604zm6.555 5.768c1.134-.476 1.834-1.414 1.834-2.618 0-.84-.364-1.358-.966-1.358-.462 0-.854.308-.854.812 0 .518.378.798.826.798.042 0 .098 0 .14-.014 0 .756-.476 1.358-1.26 1.708l.28.672zm6.527-2.38h1.148v-4.928c.686-.686 1.162-1.05 1.862-1.05.896 0 1.288.546 1.288 1.82V273h1.148v-4.312c0-1.736-.644-2.66-2.072-2.66-.938 0-1.638.504-2.282 1.148h-.042l-.098-.98h-.952V273zm7.32-1.764c0 1.218.854 1.932 2.002 1.932.84 0 1.596-.448 2.254-.98h.028l.098.812h.952v-4.172c0-1.694-.7-2.8-2.366-2.8-1.092 0-2.044.476-2.674.882l.462.798c.532-.364 1.232-.728 2.03-.728 1.106 0 1.4.84 1.4 1.708-2.898.322-4.186 1.064-4.186 2.548zm1.134-.084c0-.868.77-1.428 3.052-1.708v1.89c-.658.588-1.204.91-1.862.91-.672 0-1.19-.322-1.19-1.092zm-.126-6.258h.658c.07-.476.224-.714.504-.714.476 0 .896.714 1.596.714.686 0 1.064-.644 1.148-1.484h-.658c-.084.476-.238.714-.518.714-.448 0-.882-.714-1.582-.714-.7 0-1.064.644-1.148 1.484zm5.988 4.718c0 2.254 1.484 3.556 3.15 3.556s3.15-1.302 3.15-3.556c0-2.282-1.484-3.584-3.15-3.584s-3.15 1.302-3.15 3.584zm1.19 0c0-1.568.798-2.632 1.96-2.632 1.176 0 1.96 1.064 1.96 2.632 0 1.554-.784 2.604-1.96 2.604-1.162 0-1.96-1.05-1.96-2.604zm9.228 0c0 2.226 1.442 3.556 3.262 3.556.924 0 1.652-.322 2.24-.7l-.406-.756c-.504.322-1.05.532-1.694.532-1.302 0-2.184-.924-2.268-2.394h4.592c.028-.168.042-.392.042-.63 0-1.946-.98-3.192-2.716-3.192-1.554 0-3.052 1.358-3.052 3.584zm1.12-.518c.14-1.372 1.008-2.156 1.96-2.156 1.064 0 1.68.77 1.68 2.156h-3.64zm3.486-6.09h-1.19l-1.274 1.974h.882l1.582-1.974zm3.853 7.224h1.008c-.224-1.96 2.03-2.702 2.03-4.536 0-1.386-.952-2.24-2.394-2.24-.994 0-1.764.49-2.352 1.162l.658.602c.434-.504.994-.812 1.61-.812.896 0 1.358.616 1.358 1.358 0 1.484-2.226 2.282-1.918 4.466zm-.294 2.072c0 .504.364.868.826.868.462 0 .84-.364.84-.868 0-.532-.378-.896-.84-.896-.462 0-.826.364-.826.896z" fill="#080B1A"/><path d="M33.945 215.002H35.8v-3.84h1.664c2.24 0 3.968-1.072 3.968-3.392 0-2.432-1.68-3.232-3.968-3.232h-3.52v10.464zm1.856-5.328v-3.648h1.504c1.52 0 2.304.432 2.304 1.744 0 1.28-.736 1.904-2.304 1.904H35.8zm7.406 5.328h1.84v-4.8c.48-1.184 1.232-1.616 1.856-1.616.336 0 .544.048.816.128l.32-1.6c-.24-.112-.496-.16-.896-.16-.832 0-1.664.56-2.224 1.584h-.064l-.128-1.392h-1.52v7.856zm5.3-3.92c0 2.608 1.777 4.112 3.729 4.112 1.968 0 3.744-1.504 3.744-4.112 0-2.624-1.776-4.128-3.744-4.128-1.952 0-3.728 1.504-3.728 4.128zm1.889 0c0-1.584.688-2.624 1.84-2.624 1.152 0 1.856 1.04 1.856 2.624 0 1.568-.704 2.608-1.856 2.608-1.152 0-1.84-1.04-1.84-2.608zm7.405 3.92h1.84v-5.488c.656-.64 1.104-.976 1.792-.976.864 0 1.232.48 1.232 1.776v4.688h1.84v-4.928c0-1.984-.736-3.12-2.416-3.12-1.072 0-1.872.56-2.576 1.248h-.064l-.128-1.056H57.8v7.856zm9.225-2.656c0 1.696.672 2.848 2.496 2.848.624 0 1.168-.144 1.6-.288l-.32-1.36a2.252 2.252 0 0 1-.816.176c-.752 0-1.104-.448-1.104-1.376v-3.744h2v-1.456h-2v-2.144h-1.536l-.224 2.144-1.216.08v1.376h1.12v3.744zm4.84-1.264c0 2.608 1.777 4.112 3.729 4.112 1.968 0 3.744-1.504 3.744-4.112 0-2.624-1.776-4.128-3.744-4.128-1.952 0-3.728 1.504-3.728 4.128zm1.889 0c0-1.584.688-2.624 1.84-2.624 1.152 0 1.856 1.04 1.856 2.624 0 1.568-.704 2.608-1.856 2.608-1.152 0-1.84-1.04-1.84-2.608zm7.233 6.832c1.584-.544 2.496-1.76 2.496-3.328 0-1.184-.512-1.888-1.376-1.888-.672 0-1.232.448-1.232 1.136 0 .72.56 1.136 1.184 1.136h.144c0 .816-.592 1.536-1.616 1.936l.4 1.008zm9.463-2.912h2.128l2.672-7.856h-1.776l-1.248 4.08c-.224.768-.448 1.568-.672 2.368h-.064c-.208-.8-.448-1.6-.656-2.368l-1.248-4.08h-1.872l2.736 7.856zm5.557-3.92c0 2.608 1.776 4.112 3.728 4.112 1.968 0 3.744-1.504 3.744-4.112 0-2.624-1.776-4.128-3.744-4.128-1.952 0-3.728 1.504-3.728 4.128zm1.888 0c0-1.584.688-2.624 1.84-2.624 1.152 0 1.856 1.04 1.856 2.624 0 1.568-.704 2.608-1.856 2.608-1.152 0-1.84-1.04-1.84-2.608zm6.893 0c0 2.608 1.648 4.112 3.792 4.112.896 0 1.84-.352 2.576-1.008l-.768-1.168c-.432.352-.976.672-1.616.672-1.232 0-2.096-1.04-2.096-2.608 0-1.584.88-2.624 2.144-2.624.496 0 .912.208 1.328.576l.88-1.168c-.528-.512-1.296-.912-2.304-.912-2.096 0-3.936 1.504-3.936 4.128zm7 0c0 2.592 1.696 4.112 3.872 4.112.992 0 1.936-.352 2.688-.848l-.624-1.152c-.576.368-1.152.576-1.824.576-1.264 0-2.16-.8-2.32-2.224h4.992c.048-.192.08-.512.08-.864 0-2.192-1.12-3.728-3.248-3.728-1.84 0-3.616 1.568-3.616 4.128zm1.776-.704c.16-1.312.96-2 1.888-2 1.072 0 1.6.752 1.6 2h-3.488zm-.416-4.544h1.264l.96-1.36h.064l.96 1.36h1.28l-1.52-2.336h-1.488l-1.52 2.336zm10.03 5.248c0 2.592 1.696 4.112 3.872 4.112.992 0 1.936-.352 2.688-.848l-.624-1.152c-.576.368-1.152.576-1.824.576-1.264 0-2.16-.8-2.32-2.224h4.992c.048-.192.08-.512.08-.864 0-2.192-1.12-3.728-3.248-3.728-1.84 0-3.616 1.568-3.616 4.128zm1.776-.704c.16-1.312.96-2 1.888-2 1.072 0 1.6.752 1.6 2h-3.488zm6.062 3.728c.768.624 1.904 1.088 2.976 1.088 1.984 0 3.056-1.088 3.056-2.432 0-1.472-1.184-1.984-2.256-2.384-.848-.304-1.632-.56-1.632-1.168 0-.496.368-.864 1.152-.864.624 0 1.184.272 1.728.672l.848-1.12c-.64-.496-1.52-.944-2.608-.944-1.76 0-2.864.976-2.864 2.352 0 1.312 1.168 1.904 2.208 2.288.832.32 1.68.608 1.68 1.264 0 .544-.4.944-1.248.944-.8 0-1.472-.336-2.176-.88l-.864 1.184zm7.946-1.76c0 1.696.672 2.848 2.496 2.848.624 0 1.168-.144 1.6-.288l-.32-1.36a2.252 2.252 0 0 1-.816.176c-.752 0-1.104-.448-1.104-1.376v-3.744h2v-1.456h-2v-2.144h-1.536l-.224 2.144-1.216.08v1.376h1.12v3.744zm4.939.544c0 1.376.96 2.304 2.336 2.304.928 0 1.728-.464 2.432-1.056h.048l.144.864h1.504v-4.656c0-2.192-.96-3.392-2.928-3.392-1.248 0-2.352.48-3.216 1.024l.672 1.232c.688-.416 1.424-.768 2.208-.768 1.056 0 1.408.704 1.424 1.536-3.216.352-4.624 1.232-4.624 2.912zm1.792-.144c0-.784.704-1.344 2.832-1.616v1.76c-.576.544-1.072.864-1.712.864-.656 0-1.12-.304-1.12-1.008zm9.417 1.36c.768.624 1.904 1.088 2.976 1.088 1.984 0 3.056-1.088 3.056-2.432 0-1.472-1.184-1.984-2.256-2.384-.848-.304-1.632-.56-1.632-1.168 0-.496.368-.864 1.152-.864.624 0 1.184.272 1.728.672l.848-1.12c-.64-.496-1.52-.944-2.608-.944-1.76 0-2.864.976-2.864 2.352 0 1.312 1.168 1.904 2.208 2.288.832.32 1.68.608 1.68 1.264 0 .544-.4.944-1.248.944-.8 0-1.472-.336-2.176-.88l-.864 1.184zm7.162-3.024c0 2.592 1.696 4.112 3.872 4.112.992 0 1.936-.352 2.688-.848l-.624-1.152c-.576.368-1.152.576-1.824.576-1.264 0-2.16-.8-2.32-2.224h4.992c.048-.192.08-.512.08-.864 0-2.192-1.12-3.728-3.248-3.728-1.84 0-3.616 1.568-3.616 4.128zm1.776-.704c.16-1.312.96-2 1.888-2 1.072 0 1.6.752 1.6 2h-3.488zm7.697 5.776c0-.368.192-.72.608-1.04.304.08.64.112 1.072.112h1.072c.896 0 1.392.176 1.392.784 0 .672-.864 1.264-2.128 1.264-1.248 0-2.016-.416-2.016-1.12zm-1.536.272c0 1.376 1.392 2.048 3.264 2.048 2.56 0 4.192-1.216 4.192-2.768 0-1.36-.992-1.936-2.88-1.936h-1.392c-.96 0-1.28-.272-1.28-.72 0-.352.144-.544.384-.752.352.144.736.208 1.072.208 1.664 0 2.976-.928 2.976-2.672 0-.544-.192-1.024-.448-1.328h1.44v-1.36h-2.816a3.54 3.54 0 0 0-1.152-.192c-1.648 0-3.104 1.008-3.104 2.816 0 .928.496 1.68 1.024 2.08v.064c-.448.32-.864.848-.864 1.456 0 .64.304 1.056.704 1.312v.064c-.72.448-1.12 1.024-1.12 1.68zm3.36-5.072c-.768 0-1.376-.576-1.376-1.584 0-.992.608-1.552 1.376-1.552.768 0 1.36.576 1.36 1.552 0 1.008-.608 1.584-1.36 1.584zm5.401.72c0 1.984.736 3.12 2.416 3.12 1.072 0 1.84-.528 2.528-1.344h.048l.144 1.152h1.504v-7.856h-1.84v5.376c-.592.768-1.056 1.088-1.744 1.088-.848 0-1.216-.48-1.216-1.776v-4.688h-1.84v4.928zm8.97 2.928h1.84v-4.8c.48-1.184 1.232-1.616 1.856-1.616.336 0 .544.048.816.128l.32-1.6c-.24-.112-.496-.16-.896-.16-.832 0-1.664.56-2.224 1.584h-.064l-.128-1.392h-1.52v7.856zm5.301-3.92c0 2.608 1.776 4.112 3.728 4.112 1.968 0 3.744-1.504 3.744-4.112 0-2.624-1.776-4.128-3.744-4.128-1.952 0-3.728 1.504-3.728 4.128zm1.888 0c0-1.584.688-2.624 1.84-2.624 1.152 0 1.856 1.04 1.856 2.624 0 1.568-.704 2.608-1.856 2.608-1.152 0-1.84-1.04-1.84-2.608z" fill="#080B1A"/><path opacity=".04" d="M72.516 12.475c44.481-25.681 101.359-10.44 127.04 34.04 25.681 44.482 10.441 101.36-34.04 127.041-44.482 25.681-101.36 10.441-127.04-34.04-25.682-44.482-10.442-101.36 34.04-127.04z" fill="url(#paint0_linear)"/><mask id="a" maskUnits="userSpaceOnUse" x="26" y="0" width="186" height="186"><circle cx="119" cy="93" r="93" fill="#C4C4C4"/></mask><g mask="url(#a)"><circle cx="151.5" cy="68.5" r="24.5" fill="#127BF3"/><path d="M161.346 59.566s-2.72-2.595-10.206-2.595c-7.487 0-10.206 2.621-10.206 2.621a19.8 19.8 0 0 0-.243 3.125c0 7.812 4.228 14.644 10.449 18.033 6.22-3.416 10.448-10.221 10.448-18.06 0-1.059-.081-2.092-.242-3.124z" fill="#fff"/><path d="M158.525 61.338c.103.07.184.13.242.176.106.759.16 1.52.16 2.298 0 6.132-3.151 11.452-7.788 14.199-4.636-2.727-7.786-8.066-7.786-14.177 0-.78.053-1.557.159-2.3.059-.046.14-.107.245-.179a7.343 7.343 0 0 1 1.302-.689c1.216-.509 3.174-1.034 6.081-1.034 2.907 0 4.866.52 6.082 1.024a7.399 7.399 0 0 1 1.303.682z" stroke="#127BF3"/><path d="M150.779 56.97c7.745 0 10.558 2.596 10.558 2.596a20.405 20.405 0 0 1-10.558 21.184V56.97z" fill="#000" fill-opacity=".06"/><mask id="b" maskUnits="userSpaceOnUse" x="144.735" y="62.456" width="12" height="7" fill="#000"><path fill="#fff" d="M144.735 62.456h12v7h-12z"/><path d="M155.824 63.456l-5.748 2.746 1.688.011 4.06-2.757zm-6.654 4.529l1.682-1.144c-2.848.413-4.664 1.244-5.117 1.477.175 0 2.675-.027 4.538.901l1.336-1.403a15.287 15.287 0 0 0-2.439.17v-.001z"/><path d="M149.17 67.985l1.685-1.161c-2.848.419-4.667 1.261-5.12 1.494.175 0 2.675-.027 4.538.903l1.34-1.405a15.177 15.177 0 0 0-2.443.172v-.003z"/><path d="M151.764 66.213h1.385l2.675-2.757-4.06 2.757zm-2.594 1.772a15.457 15.457 0 0 1 2.439-.176l1.118-1.16c-.668.039-1.293.102-1.88.186l-1.677 1.15zM153.149 66.222h1.101l1.574-2.766-2.675 2.766zm-1.54 1.587a8.786 8.786 0 0 1 1.631.175l.787-1.372c-.445 0-.874.014-1.289.042l-1.129 1.155z"/></mask><path d="M155.824 63.456l-5.748 2.746 1.688.011 4.06-2.757zm-6.654 4.529l1.682-1.144c-2.848.413-4.664 1.244-5.117 1.477.175 0 2.675-.027 4.538.901l1.336-1.403a15.287 15.287 0 0 0-2.439.17v-.001z" fill="#127DF3"/><path d="M149.17 67.985l1.685-1.161c-2.848.419-4.667 1.261-5.12 1.494.175 0 2.675-.027 4.538.903l1.34-1.405a15.177 15.177 0 0 0-2.443.172v-.003z" fill="#127DF3"/><path d="M151.764 66.213h1.385l2.675-2.757-4.06 2.757zm-2.594 1.772a15.457 15.457 0 0 1 2.439-.176l1.118-1.16c-.668.039-1.293.102-1.88.186l-1.677 1.15zM153.149 66.222h1.101l1.574-2.766-2.675 2.766zm-1.54 1.587a8.786 8.786 0 0 1 1.631.175l.787-1.372c-.445 0-.874.014-1.289.042l-1.129 1.155z" fill="#127DF3"/><path d="M155.88 63.539a.1.1 0 1 0-.113-.165l.113.165zm-4.172 2.591a.1.1 0 1 0 .113.165l-.113-.165zm.113.166l4.059-2.757-.113-.166-4.059 2.757.113.166zm4.003-2.84l.173.099a.198.198 0 0 0-.027-.235.2.2 0 0 0-.233-.045l.087.18zm-5.748 2.746l-.086-.18a.2.2 0 0 0 .085.38l.001-.2zm1.688.011l-.001.2h.001v-.2zm-2.594 1.772l-.114-.165a.2.2 0 0 0-.086.165h.2zm1.682-1.144l.112.165a.2.2 0 0 0-.141-.363l.029.198zm-5.117 1.477l-.091-.178a.2.2 0 0 0 .091.378v-.2zm4.538.901l-.089.18a.2.2 0 0 0 .234-.042l-.145-.138zm1.336-1.403l.144.138a.2.2 0 0 0-.142-.338l-.002.2zm-2.439.17h-.2c0 .059.025.114.07.152a.199.199 0 0 0 .16.046l-.03-.198zm1.685-1.162l.113.164a.2.2 0 0 0-.142-.362l.029.198zm-.582 2.397l-.089.178a.2.2 0 0 0 .234-.04l-.145-.138zm1.34-1.405l.145.138a.2.2 0 0 0-.143-.338l-.002.2zm-2.443.172h-.2c0 .058.025.114.07.151a.199.199 0 0 0 .16.047l-.03-.198zm3.979-1.775v.2a.198.198 0 0 0 .143-.06l-.143-.14zm-.422.436l.144.14a.2.2 0 1 0-.155-.338l.011.198zm-1.88.186l-.028-.198a.198.198 0 0 0-.085.033l.113.165zm2.302-.613l-.144-.14a.2.2 0 1 0 .144.339v-.2zm1.101 0v.2a.2.2 0 0 0 .174-.101l-.174-.1zm-1.01 1.762l-.04.196a.2.2 0 0 0 .214-.097l-.174-.1zm.787-1.372l.173.1a.2.2 0 0 0-.173-.3v.2zm-1.289.042l-.013-.2a.202.202 0 0 0-.13.06l.143.14zm2.999-3.379l-5.747 2.746.172.361 5.748-2.746-.173-.36zm-5.662 3.127l1.688.011.003-.4-1.688-.011-.003.4zm-.793 1.748l1.682-1.144-.225-.33-1.682 1.144.225.33zm1.541-1.507c-2.873.417-4.709 1.256-5.179 1.497l.183.356c.436-.224 2.231-1.047 5.054-1.457l-.058-.396zm-5.088 1.875c.18 0 2.634-.024 4.449.88l.178-.358c-1.911-.952-4.457-.922-4.627-.922v.4zm4.683.84l1.335-1.404-.289-.276-1.336 1.403.29.276zm1.193-1.742c-.828-.008-1.655.05-2.471.173l.06.395c.795-.12 1.6-.176 2.407-.168l.004-.4zm-2.241.37v-.001h-.4v.001h.4zm-.087.164l1.685-1.162-.226-.329-1.686 1.161.227.33zm1.543-1.524c-2.873.423-4.713 1.273-5.182 1.514l.183.356c.437-.225 2.235-1.06 5.057-1.474l-.058-.396zm-5.091 1.892c.18 0 2.634-.024 4.449.882l.178-.358c-1.911-.954-4.457-.924-4.627-.924v.4zm4.683.84l1.34-1.404-.289-.276-1.341 1.404.29.277zm1.197-1.742c-.829-.008-1.657.05-2.475.174l.06.396a14.982 14.982 0 0 1 2.411-.17l.004-.4zm-2.245.372v-.003h-.4v.003h.4zm2.394-1.575h1.385v-.4h-1.385v.4zm1.528-.06l2.675-2.758-.287-.278-2.675 2.757.287.278zm-4.092 1.83c.795-.122 1.601-.18 2.407-.174l.003-.4a15.647 15.647 0 0 0-2.47.178l.06.396zm2.553-.235l1.118-1.16-.288-.278-1.118 1.16.288.278zm.963-1.498a22.36 22.36 0 0 0-1.897.187l.057.396a21.968 21.968 0 0 1 1.863-.184l-.023-.4zm-1.982.22l-1.677 1.15.226.33L150.96 67l-.226-.33zm2.415-.248h1.101v-.4h-1.101v.4zm1.275-.101l1.573-2.766-.347-.198-1.574 2.766.348.198zm1.256-3.004l-2.675 2.766.288.278 2.674-2.766-.287-.278zm-4.074 4.692a8.574 8.574 0 0 1 1.594.17l.08-.391a8.98 8.98 0 0 0-1.669-.179l-.005.4zm1.808.074l.786-1.371-.347-.2-.786 1.372.347.2zm.613-1.67c-.449 0-.883.013-1.302.041l.027.4c.409-.028.834-.042 1.275-.042v-.4zm-1.432.1l-1.129 1.156.286.28 1.129-1.156-.286-.28z" fill="#127DF3" mask="url(#b)"/><path fill-rule="evenodd" clip-rule="evenodd" d="M130.78 112.619s6.87 7.73 8.46 16.94c0 0-14.6-6.26-8.46-16.94z" fill="url(#paint1_linear)"/><path fill-rule="evenodd" clip-rule="evenodd" d="M130.53 113.849l5.28 7.24-2.09-1.71.74 2.08 1.1.74.74 1.22v1.35h-.49l1.22.74v.74l-.24.36h-1.59l-1.11-1.22-1.84-1.35-1.84-1.97v-1.96l-.61-2.21.73-4.05z" fill="#CCC"/><path fill-rule="evenodd" clip-rule="evenodd" d="M143 163.109c2.1-.11 4.21-.24 6.32-.37l-8.88-28.87-32.3-13.51-29.82 1.1-130 .55-36.72 5.8-6.2 35.3H143z" fill="#080B1A"/><path fill-rule="evenodd" clip-rule="evenodd" d="M50.06 70.009l-6.29 1.5-3 1.93s17.43 3.57 35.37 29.23l25.4-3s-15.87-18.33-51.48-29.66z" fill="#F0F2F9"/><path fill-rule="evenodd" clip-rule="evenodd" d="M-80.214 75.958a.827.827 0 0 0 .157-.228c1.232-2.78-6.377-3.389-5.849-5.353.069-.255.291-.385.552-.426 5.91-.919 82.173-12.4 131.967-.794.904.21.882 1.464-.02 1.679-.855.204-.97 1.457-.176 1.832 6.176 2.921 21.659 11.53 30.262 27.727.195.367.593.584 1.005.538l23.999-2.656a.999.999 0 0 1 .33.019c21.59 4.862 45.095 8.746 52.291 32.482.03.098.045.203.043.306l-.34 19.811c-.004.271.101.532.293.724l1.587 1.587a.998.998 0 0 1 .29.778l-.468 6.587c-.03.414-.312.767-.71.887l-2.097.63-.002.001c-.044.013-4.762 1.405-7.951 1.697-.57.052-1.031-.409-1.035-.981-.034-5.367-1.582-29.79-26.944-29.496-24.037-.737-26.501 21.817-26.752 26.867a1.041 1.041 0 0 1-1.038.993H-40.714a1.054 1.054 0 0 1-1.045-1.082c.118-5.266-.974-27.927-28.541-26.778-22.633.866-22.956 23.6-22.635 29.684.038.714-.644 1.27-1.331 1.074l-1.802-.514a.994.994 0 0 1-.713-.799c-.603-3.767-3.754-23.52-4.555-30.542a1.004 1.004 0 0 1 .112-.581c.57-1.111 2.614-5.374 2.614-9.392 0 0 6.307-33.506 18.396-46.281z" fill="url(#paint2_linear)"/><path fill-rule="evenodd" clip-rule="evenodd" d="M157.14 145.339l-1.45 15.92-2.76.83s-5.92 1.75-9 1.75c0 0 1.56-30.86-26.93-30.53-27.06-.83-26.78 27.86-26.78 27.86h-132s2.66-29.16-28.52-27.86c-26.14 1-22.52 31.17-22.52 31.17l-6.46-1.61s-1.4-8.94-2.72-17.48a53.43 53.43 0 0 1 6.05-.89c4.43-14 16.05-21.26 28.24-22 21.71-1.34 31.34 21.02 33.61 33.31l115.91-.58c7.6-43.22 50.94-40.38 67.25-10.66 0 0 5.63.44 8.08.77z" fill="#0B71E5"/><path fill-rule="evenodd" clip-rule="evenodd" d="M-60.41 75.299c-8.24.71-10.47 19-11.73 27h66.85l3.36-31.55c-10.83.13-48.69.84-58.48 4.58v-.03zm129.91 27c-3.86-7-19.06-30.18-51.77-31.35-5.71-.2-11.4-.27-17-.23l-2.22 31.58H69.5z" fill="#F0F2F9"/><path fill-rule="evenodd" clip-rule="evenodd" d="M56.53 94.109s-3.31 6.07 1.11 11c0 .04 15.46-6.03-1.11-11z" fill="#0B71E5"/><path fill-rule="evenodd" clip-rule="evenodd" d="M150.334 127.723a.941.941 0 0 0 .091-.869c-3.094-7.892-7.692-11.74-13.919-15.158-2.12-1.163-4.552-2.14-6.878-1.479-4.056 1.155-3.689 5.671-1.148 9.912 3.088 5.153 16.483 15.44 21.854 7.594z" fill="#fff"/><path fill-rule="evenodd" clip-rule="evenodd" d="M102 172.309a20.677 20.677 0 0 0 10.61 5.607 20.677 20.677 0 0 0 21.178-8.891 20.665 20.665 0 0 0-.11-22.967 20.674 20.674 0 0 0-31.818-2.979 20.68 20.68 0 0 0 .14 29.23zm25.25-4.1a15.044 15.044 0 0 1-16.383 3.343 15.045 15.045 0 0 1-9.36-13.855 15.05 15.05 0 0 1 25.633-10.778 15.062 15.062 0 0 1 .1 21.29h.01z" fill="#3D4045"/><path fill-rule="evenodd" clip-rule="evenodd" d="M116.45 140.539a17.084 17.084 0 0 1 16.847 20.333 17.08 17.08 0 0 1-23.23 12.557 17.078 17.078 0 0 1-9.348-22.272 17.07 17.07 0 0 1 9.2-9.287 17.08 17.08 0 0 1 6.531-1.331z" fill="#fff"/><path fill-rule="evenodd" clip-rule="evenodd" d="M116.46 142.569a15.051 15.051 0 0 0-10.516 25.737 15.043 15.043 0 0 0 16.408 3.195 15.045 15.045 0 0 0 9.238-13.932 15.05 15.05 0 0 0-15.13-15z" fill="#080B1A"/><path fill-rule="evenodd" clip-rule="evenodd" d="M114.84 174.129l-.829-9.445a1 1 0 0 0-1.65-.67l-7.181 6.195-1.53-1.51 6.154-7.188a1 1 0 0 0-.686-1.647l-9.428-.695v-2.16l9.443-.829a1 1 0 0 0 .67-1.65l-6.193-7.171 1.51-1.53 7.231 6.113a1 1 0 0 0 1.643-.69l.696-9.443h2.15l.787 9.434a1 1 0 0 0 1.649.674l7.164-6.178 1.56 1.52-6.147 7.249a1 1 0 0 0 .69 1.644l9.437.687v2.17l-9.445.829a1 1 0 0 0-.67 1.649l6.185 7.172-1.51 1.53-7.219-6.11a1 1 0 0 0-1.643.691l-.678 9.349-2.16.01zm-.713-14.384a2.448 2.448 0 0 0 3.428-.012l.021-.02a2.397 2.397 0 0 0 .006-3.407l-.016-.016a2.452 2.452 0 0 0-3.428-.023l-.047.045a2.362 2.362 0 0 0-.006 3.393l.042.04z" fill="#fff"/></g><defs><linearGradient id="paint0_linear" x1="38.475" y1="139.516" x2="228.674" y2="29.704" gradientUnits="userSpaceOnUse"><stop stop-color="#127BF3"/><stop offset="1" stop-color="#127BF3" stop-opacity=".2"/></linearGradient><linearGradient id="paint1_linear" x1="130.1" y1="121.089" x2="145.63" y2="121.089" gradientUnits="userSpaceOnUse"><stop stop-color="#6A8991"/><stop offset=".53" stop-color="#335C64"/><stop offset="1" stop-color="#02383C"/></linearGradient><linearGradient id="paint2_linear" x1="27.42" y1="64" x2="27.42" y2="164.479" gradientUnits="userSpaceOnUse"><stop stop-color="#4398FA"/><stop offset="1" stop-color="#127BF3"/></linearGradient></defs></svg>