<svg width="36" height="36" fill="none" xmlns="http://www.w3.org/2000/svg"><rect opacity=".15" width="36" height="36" rx="8" fill="#127BF3"/><mask id="a" maskUnits="userSpaceOnUse" x="7" y="6" width="24" height="24"><path fill="#C4C4C4" stroke="#127BF3" d="M7.5 6.5h23v23h-23z"/></mask><path d="M27.333 22.1v2.5a1.667 1.667 0 0 1-1.816 1.667 16.491 16.491 0 0 1-7.192-2.559 16.25 16.25 0 0 1-5-5 16.492 16.492 0 0 1-2.558-7.225 1.668 1.668 0 0 1 1.658-1.816h2.5A1.666 1.666 0 0 1 16.59 11.1c.106.8.302 1.586.584 2.342A1.667 1.667 0 0 1 16.8 15.2l-1.059 1.058a13.333 13.333 0 0 0 5 5L21.8 20.2a1.667 1.667 0 0 1 1.758-.375c.756.282 1.542.478 2.342.583a1.666 1.666 0 0 1 1.433 1.692z" stroke="#127BF3" stroke-width="1.667"/></svg>