<svg width="185" height="166" fill="none" xmlns="http://www.w3.org/2000/svg"><path d="M168.933 31.778v102.444a3 3 0 0 1-3 3H91.599V28.778h74.334a3 3 0 0 1 3 3zM91.155 28.778v108.444H16.82a3 3 0 0 1-3-3V31.778a3 3 0 0 1 3-3h74.334z" stroke="#127BF3" stroke-width="2"/><rect x="161.933" y="41.222" width="82" height="6.556" rx="3" transform="rotate(90 161.933 41.222)" stroke="#127BF3" stroke-width="2"/><rect x="83.377" y="41.222" width="82" height="35.333" rx="3" transform="rotate(90 83.377 41.222)" stroke="#127BF3" stroke-width="2"/><rect x="149.488" y="41.222" width="40.778" height="6.556" rx="3" transform="rotate(90 149.488 41.222)" stroke="#127BF3" stroke-width="2"/><rect x="125.377" y="41.222" width="40.778" height="12.778" rx="3" transform="rotate(90 125.377 41.222)" stroke="#127BF3" stroke-width="2"/><rect x="149.488" y="87.889" width="35.333" height="49.333" rx="3" transform="rotate(90 149.488 87.889)" stroke="#127BF3" stroke-width="2"/><rect x="137.043" y="41.222" width="14.333" height="6.556" rx="3" transform="rotate(90 137.043 41.222)" stroke="#127BF3" stroke-width="2"/><rect x="107.488" y="41.222" width="10.444" height="7.333" rx="3" transform="rotate(90 107.488 41.222)" stroke="#127BF3" stroke-width="2"/><rect x="107.488" y="56.778" width="9.667" height="7.333" rx="3" transform="rotate(90 107.488 56.778)" stroke="#127BF3" stroke-width="2"/><rect x="107.488" y="71.555" width="10.444" height="7.333" rx="3" transform="rotate(90 107.488 71.555)" stroke="#127BF3" stroke-width="2"/><rect x="137.043" y="61.444" width="20.556" height="6.556" rx="3" transform="rotate(90 137.043 61.444)" stroke="#127BF3" stroke-width="2"/><rect x="39.821" y="41.222" width="14.333" height="6.556" rx="3" transform="rotate(90 39.821 41.222)" stroke="#127BF3" stroke-width="2"/><rect x="39.821" y="61.444" width="61.778" height="6.556" rx="3" transform="rotate(90 39.821 61.444)" stroke="#127BF3" stroke-width="2"/><rect x="22.544" y="40.611" width="83.222" height=".778" rx=".389" transform="rotate(90 22.544 40.611)" stroke="#127BF3" stroke-width=".778"/><circle cx="131.044" cy="105.556" r="7.556" transform="rotate(90 131.044 105.556)" stroke="#127BF3" stroke-width="2"/><path d="M110.822 118c6.873 0 12.444-5.572 12.444-12.444 0-6.873-5.571-12.445-12.444-12.445M183.155 18.111V5.213a4 4 0 0 0-4-4h-12.898M183.155 147.889v12.898a4 4 0 0 1-4 4h-12.898M1.155 18.111V5.213a4 4 0 0 1 4-4h12.898M1.155 147.889v12.898a4 4 0 0 0 4 4h12.898" stroke="#127BF3" stroke-width="2"/></svg>