<svg width="214" height="148" viewBox="0 0 214 148" fill="none" xmlns="http://www.w3.org/2000/svg">
<rect x="27.271" y="20.4531" width="159.458" height="114.684" rx="3" stroke="#FF9500" stroke-width="2"/>
<rect x="45.5879" y="30.629" width="120.789" height="10.8895" rx="3" stroke="#FF9500" stroke-width="2"/>
<rect x="45.5879" y="48.9457" width="60.4123" height="10.8895" rx="3" stroke="#FF9500" stroke-width="2"/>
<rect x="45.5879" y="84.9005" width="60.4123" height="19.7086" rx="3" stroke="#FF9500" stroke-width="2"/>
<rect x="113.427" y="48.9457" width="52.95" height="73.3018" rx="3" stroke="#FF9500" stroke-width="2"/>
<rect x="45.5879" y="67.2623" width="21.7438" height="10.8895" rx="3" stroke="#FF9500" stroke-width="2"/>
<rect x="45.5879" y="111.358" width="16.3167" height="10.8895" rx="3" stroke="#FF9500" stroke-width="2"/>
<rect x="67.9746" y="111.358" width="15.6383" height="10.8895" rx="3" stroke="#FF9500" stroke-width="2"/>
<rect x="89.6835" y="111.358" width="16.3167" height="10.8895" rx="3" stroke="#FF9500" stroke-width="2"/>
<rect x="74.7588" y="67.2623" width="31.2413" height="10.8895" rx="3" stroke="#FF9500" stroke-width="2"/>
<circle cx="140.241" cy="77.1166" r="11.2111" stroke="#FF9500" stroke-width="2"/>
<path d="M157.88 106.288C157.88 96.5462 149.831 88.6493 139.902 88.6493C129.973 88.6493 121.925 96.5462 121.925 106.288" stroke="#FF9500" stroke-width="2"/>
<path d="M23.5716 1H5.84546C3.63632 1 1.84546 2.79086 1.84546 5V22.7262" stroke="#FF9500" stroke-width="2"/>
<path d="M190.429 1H208.155C210.364 1 212.155 2.79086 212.155 5V22.7262" stroke="#FF9500" stroke-width="2"/>
<path d="M23.5714 147H5.84521C3.63608 147 1.84521 145.209 1.84521 143V125.274" stroke="#FF9500" stroke-width="2"/>
<path d="M190.429 147H208.155C210.364 147 212.155 145.209 212.155 143V125.274" stroke="#FF9500" stroke-width="2"/>
<path d="M23.5716 1H5.84546C3.63632 1 1.84546 2.79086 1.84546 5V22.7262" stroke="#FF9500" stroke-width="2" stroke-linecap="round"/>
<path d="M190.429 1H208.155C210.364 1 212.155 2.79086 212.155 5V22.7262" stroke="#FF9500" stroke-width="2" stroke-linecap="round"/>
<path d="M23.5714 147H5.84521C3.63608 147 1.84521 145.209 1.84521 143V125.274" stroke="#FF9500" stroke-width="2" stroke-linecap="round"/>
<path d="M190.429 147H208.155C210.364 147 212.155 145.209 212.155 143V125.274" stroke="#FF9500" stroke-width="2" stroke-linecap="round"/>
</svg>
