<svg width="214" height="148" fill="none" xmlns="http://www.w3.org/2000/svg"><path d="M23.572 1H5.845a4 4 0 0 0-4 4v17.726M190.429 1h17.726a4 4 0 0 1 4 4v17.726M23.571 147H5.845a4 4 0 0 1-4-4v-17.726M190.429 147h17.726a4 4 0 0 0 4-4v-17.726" stroke="#127BF3" stroke-width="2"/><path d="M23.572 1H5.845a4 4 0 0 0-4 4v17.726M190.429 1h17.726a4 4 0 0 1 4 4v17.726M23.571 147H5.845a4 4 0 0 1-4-4v-17.726M190.429 147h17.726a4 4 0 0 0 4-4v-17.726M50 69.828h1.73a4 4 0 0 1 4 4V77a4 4 0 0 1-4 4H50m27.01-10.759h7.367m15.961 0h7.367m-38.47-8.276L72.509 45m19.644 16.965l2.456-16.551M165 78.93l-3.365-1.701c-3.007-1.52-2.693-5.913.5-6.989v0" stroke="#127BF3" stroke-width="2" stroke-linecap="round"/><path stroke="#127BF3" stroke-width="2" stroke-linecap="round" stroke-dasharray="6 6 6 6 6 6" d="M45 103h125"/><path d="M80.315 83.846a9.675 9.675 0 0 0-5.407-1.654 9.69 9.69 0 0 0-6.882 2.874A9.848 9.848 0 0 0 65.178 92c0 1.939.57 3.835 1.639 5.447a9.749 9.749 0 0 0 4.366 3.614 9.663 9.663 0 0 0 5.624.558 9.705 9.705 0 0 0 4.983-2.685 9.832 9.832 0 0 0 2.661-5.021 9.88 9.88 0 0 0-.553-5.665 9.791 9.791 0 0 0-3.583-4.402zm-11.188-.578a10.343 10.343 0 0 1 5.781-1.768c2.76 0 5.406 1.105 7.358 3.074A10.547 10.547 0 0 1 85.316 92c0 2.078-.61 4.108-1.755 5.835a10.426 10.426 0 0 1-4.671 3.866 10.323 10.323 0 0 1-6.012.597 10.376 10.376 0 0 1-5.328-2.872 10.53 10.53 0 0 1-2.85-5.377 10.586 10.586 0 0 1 .593-6.069 10.48 10.48 0 0 1 3.834-4.712z" fill="#127BF3" stroke="#127BF3"/><path d="M78.471 90.515l-.462.19.462-.19a3.878 3.878 0 0 0-1.419-1.744 3.836 3.836 0 0 0-4.872.484 3.905 3.905 0 0 0-.48 4.902 3.863 3.863 0 0 0 1.73 1.431 3.83 3.83 0 0 0 4.206-.843 3.91 3.91 0 0 0 .835-4.23zm-6.08-2.322a4.504 4.504 0 0 1 5.722.57 4.607 4.607 0 0 1 .564 5.782 4.543 4.543 0 0 1-2.035 1.684 4.496 4.496 0 0 1-2.618.26 4.522 4.522 0 0 1-2.32-1.251 4.59 4.59 0 0 1-1.243-2.344 4.616 4.616 0 0 1 .258-2.647 4.568 4.568 0 0 1 1.671-2.054zM147.315 83.846a9.675 9.675 0 0 0-5.407-1.654 9.689 9.689 0 0 0-6.881 2.874A9.845 9.845 0 0 0 132.178 92a9.86 9.86 0 0 0 1.639 5.447 9.752 9.752 0 0 0 4.366 3.614 9.664 9.664 0 0 0 5.624.558 9.709 9.709 0 0 0 4.983-2.685 9.834 9.834 0 0 0 2.661-5.021 9.88 9.88 0 0 0-.553-5.665 9.794 9.794 0 0 0-3.583-4.402zm-11.188-.578a10.344 10.344 0 0 1 5.781-1.768c2.759 0 5.406 1.105 7.358 3.074a10.545 10.545 0 0 1 3.05 7.426c0 2.078-.611 4.108-1.755 5.835a10.427 10.427 0 0 1-4.671 3.866 10.326 10.326 0 0 1-6.012.597 10.375 10.375 0 0 1-5.328-2.872 10.53 10.53 0 0 1-2.85-5.377 10.588 10.588 0 0 1 .593-6.069 10.481 10.481 0 0 1 3.834-4.712z" fill="#127BF3" stroke="#127BF3"/><path d="M145.471 90.515l-.462.19.462-.19a3.877 3.877 0 0 0-1.419-1.744 3.835 3.835 0 0 0-4.872.484A3.898 3.898 0 0 0 138.052 92c0 .767.225 1.518.649 2.157a3.862 3.862 0 0 0 1.73 1.431 3.83 3.83 0 0 0 4.205-.843 3.901 3.901 0 0 0 .835-4.23zm-6.081-2.322a4.506 4.506 0 0 1 5.723.57A4.597 4.597 0 0 1 146.442 92c0 .906-.266 1.792-.765 2.544a4.544 4.544 0 0 1-2.035 1.685 4.496 4.496 0 0 1-2.618.26 4.522 4.522 0 0 1-2.321-1.251 4.592 4.592 0 0 1-1.242-2.344 4.625 4.625 0 0 1 .258-2.647 4.573 4.573 0 0 1 1.671-2.054z" fill="#127BF3" stroke="#127BF3"/><path d="M132 92H85M151.5 92h5.5a8 8 0 0 0 8-8v-3.335a16 16 0 0 0-13.666-15.829l-19.893-2.932m0 0H52.455m78.986 0l-13.389-12.57A16.001 16.001 0 0 0 107.101 45H73.396a16 16 0 0 0-12.648 6.2l-8.292 10.703m0 0l-1.622 3.267A8 8 0 0 0 50 68.727v12.337c0 2.286.716 4.514 2.048 6.372v0A10.936 10.936 0 0 0 60.936 92H64.5" stroke="#127BF3" stroke-width="2"/></svg>