<svg xmlns="http://www.w3.org/2000/svg" viewBox="0 0 512 512"><circle fill="#727A87" cx="256" cy="256" r="256"/><path fill="#FFF" d="M394.2 142L370 117.8c-1.6-1.6-4.1-1.6-5.7 0L258.8 223.4c-1.6 1.6-4.1 1.6-5.7 0L147.6 117.8c-1.6-1.6-4.1-1.6-5.7 0L117.8 142c-1.6 1.6-1.6 4.1 0 5.7l105.5 105.5c1.6 1.6 1.6 4.1 0 5.7L117.8 364.4c-1.6 1.6-1.6 4.1 0 5.7l24.1 24.1c1.6 1.6 4.1 1.6 5.7 0l105.5-105.5c1.6-1.6 4.1-1.6 5.7 0l105.5 105.5c1.6 1.6 4.1 1.6 5.7 0l24.1-24.1c1.6-1.6 1.6-4.1 0-5.7L288.6 258.8c-1.6-1.6-1.6-4.1 0-5.7l105.5-105.5c1.6-1.5 1.6-4.1.1-5.6z"/></svg>