<svg xmlns="http://www.w3.org/2000/svg" viewBox="0 0 512 512"><path fill="#FFF" d="M352 0H160C72 0 0 72 0 160v192c0 88 72 160 160 160h192c88 0 160-72 160-160V160C512 72 440 0 352 0zm4.7 365.8l-3.7 3.3c-27 23.2-61.4 35.9-96.8 35.9-72.4 0-135.8-54.7-147-125.6-.3-1.9-2-3.3-3.9-3.3H64c-3.3 0-5.2-3.8-3.2-6.4l61.1-81.4c1.6-2.1 4.7-2.1 6.4-.1l63.3 81.4c2 2.6.2 6.5-3.2 6.5h-40.6c-2.5 0-4.5 2.4-3.9 4.8 11.5 51.5 59.2 90.6 112.4 90.6 26.4 0 51.8-9.7 73.7-27.9l3.1-2.5c1.6-1.3 3.9-1.1 5.3.3l18.5 18.6c1.6 1.6 1.5 4.3-.2 5.8zm94.7-120.2l-61 83.5c-1.6 2.2-4.8 2.2-6.4.1l-63.3-83.3c-2-2.6-.1-6.4 3.2-6.4h40.8c2.5 0 4.4-2.3 3.9-4.8-5.1-24.2-17.8-46.5-36.5-63.7-21.2-19.4-48.2-30.1-76-30.1-26.5 0-52.6 9.7-73.7 27.3l-3.1 2.5c-1.6 1.3-3.9 1.2-5.4-.3l-18.5-18.5c-1.6-1.6-1.5-4.3.2-5.9l3.5-3.1c27-23.2 61.4-35.9 96.8-35.9 38 0 73.9 13.7 101.2 38.7 23.2 21.1 40.3 55.2 45.7 90.1.3 1.9 1.9 3.4 3.9 3.4H448c3.4 0 5.3 3.8 3.4 6.4z"/></svg>