<svg width="220" height="220" fill="none" xmlns="http://www.w3.org/2000/svg"><path opacity=".08" d="M220 110c0 60.751-49.249 110-110 110S0 170.751 0 110 49.249 0 110 0s110 49.249 110 110z" fill="#56CCF2"/><path opacity=".1" d="M207 110c0 53.572-43.428 97-97 97s-97-43.428-97-97 43.428-97 97-97 97 43.428 97 97z" fill="#56CCF2"/><circle opacity=".12" cx="110" cy="110" r="78.281" fill="#56CCF2"/><g filter="url(#filter0_d)"><circle cx="110.263" cy="110.263" r="61.263" fill="url(#paint0_linear)"/></g><path d="M134.926 88.548S128.15 82 109.5 82s-25.425 6.615-25.425 6.615a50.717 50.717 0 0 0-.604 7.884c0 19.71 10.532 36.949 26.029 45.501 15.497-8.619 26.03-25.791 26.03-45.568a51.42 51.42 0 0 0-.604-7.884z" fill="#fff"/><path d="M128.121 92.593c.314.21.544.386.698.51.278 1.937.416 3.877.416 5.864 0 15.434-7.983 28.827-19.737 35.704-11.75-6.826-19.733-20.269-19.733-35.65 0-1.988.139-3.973.415-5.865a10 10 0 0 1 .703-.52c.684-.465 1.764-1.102 3.304-1.744 3.076-1.283 8.008-2.598 15.313-2.598 7.307 0 12.24 1.302 15.317 2.573 1.54.635 2.62 1.265 3.304 1.725z" stroke="#127BF3" stroke-width="2"/><path d="M109.059 82c18.966 0 25.857 6.548 25.857 6.548.409 2.606.614 5.212.614 7.884 0 19.777-10.712 36.949-26.471 45.568V82z" fill="#000" fill-opacity=".06"/><mask id="a" maskUnits="userSpaceOnUse" x="95.706" y="96.882" width="26" height="18" fill="#000"><path fill="#fff" d="M95.706 96.882h26v18h-26z"/><path d="M121.412 97.882l-14.075 7.565 4.134.032 9.941-7.597zm-16.295 12.478l4.119-3.152c-6.974 1.139-11.42 3.428-12.53 4.07.428 0 6.55-.074 11.112 2.483l3.272-3.865a33.303 33.303 0 0 0-5.973.468v-.004z"/><path d="M105.117 110.36l4.127-3.199c-6.974 1.155-11.428 3.475-12.538 4.117.428 0 6.55-.074 11.112 2.487l3.283-3.869a33.154 33.154 0 0 0-5.984.472v-.008z"/><path d="M111.471 105.479h3.391l6.55-7.597-9.941 7.597zm-6.354 4.881c1.973-.338 3.972-.5 5.973-.484l2.739-3.196c-1.638.107-3.167.28-4.604.513l-4.108 3.167z"/><path d="M114.862 105.502h2.697l3.853-7.62-6.55 7.62zm-3.772 4.374c1.344.02 2.683.181 3.995.481l1.927-3.779c-1.089 0-2.141.038-3.156.114l-2.766 3.184z"/></mask><path d="M121.412 97.882l-14.075 7.565 4.134.032 9.941-7.597zm-16.295 12.478l4.119-3.152c-6.974 1.139-11.42 3.428-12.53 4.07.428 0 6.55-.074 11.112 2.483l3.272-3.865a33.303 33.303 0 0 0-5.973.468v-.004z" fill="#127DF3"/><path d="M105.117 110.36l4.127-3.199c-6.974 1.155-11.428 3.475-12.538 4.117.428 0 6.55-.074 11.112 2.487l3.283-3.869a33.154 33.154 0 0 0-5.984.472v-.008z" fill="#127DF3"/><path d="M111.471 105.479h3.391l6.55-7.597-9.941 7.597zm-6.354 4.881c1.973-.338 3.972-.5 5.973-.484l2.739-3.196c-1.638.107-3.167.28-4.604.513l-4.108 3.167z" fill="#127DF3"/><path d="M114.862 105.502h2.697l3.853-7.62-6.55 7.62zm-3.772 4.374c1.344.02 2.683.181 3.995.481l1.927-3.779c-1.089 0-2.141.038-3.156.114l-2.766 3.184z" fill="#127DF3"/><path d="M121.473 97.962a.1.1 0 0 0-.122-.16l.122.16zm-10.063 7.437a.1.1 0 0 0 .122.159l-.122-.159zm.122.159l9.941-7.596-.122-.16-9.941 7.597.122.159zm9.88-7.676l.178.09a.2.2 0 0 0-.273-.266l.095.176zm-14.075 7.565l-.095-.176a.2.2 0 0 0 .093.376l.002-.2zm4.134.032l-.002.2h.002v-.2zm-6.354 4.881l-.122-.158a.201.201 0 0 0-.078.158h.2zm4.119-3.152l.122.159a.2.2 0 0 0-.154-.356l.032.197zm-12.53 4.07l-.1-.173a.2.2 0 0 0-.093.225.2.2 0 0 0 .193.148v-.2zm11.112 2.483l-.098.174a.2.2 0 0 0 .251-.045l-.153-.129zm3.272-3.865l.152.129a.2.2 0 0 0-.15-.329l-.002.2zm-5.973.468h-.2a.2.2 0 0 0 .234.198l-.034-.198zm4.127-3.203l.122.158a.199.199 0 0 0 .061-.238.199.199 0 0 0-.216-.117l.033.197zm-1.426 6.604l-.098.174a.2.2 0 0 0 .251-.045l-.153-.129zm3.283-3.869l.153.129a.2.2 0 0 0-.151-.329l-.002.2zm-5.984.472h-.2a.2.2 0 0 0 .234.197l-.034-.197zm9.745-4.889v.2a.2.2 0 0 0 .151-.07l-.151-.13zm-1.033 1.201l.152.131a.2.2 0 0 0-.165-.33l.013.199zm-4.604.513l-.032-.198a.217.217 0 0 0-.091.039l.123.159zm5.637-1.691l-.152-.13a.2.2 0 0 0 .152.33v-.2zm2.697 0v.2a.2.2 0 0 0 .178-.109l-.178-.091zm-2.474 4.855l-.044.194a.198.198 0 0 0 .222-.104l-.178-.09zm1.927-3.779l.178.091a.2.2 0 0 0-.008-.195.198.198 0 0 0-.17-.096v.2zm-3.156.114l-.015-.199a.199.199 0 0 0-.136.068l.151.131zm7.461-8.986l-14.075 7.565.189.352 14.076-7.565-.19-.352zm-13.982 7.941l4.134.032.003-.4-4.134-.032-.003.4zm-2.096 4.872l4.119-3.152-.243-.317-4.119 3.152.243.317zm3.965-3.508c-7.002 1.143-11.471 3.442-12.598 4.094l.2.347c1.093-.633 5.516-2.912 12.462-4.046l-.064-.395zm-12.498 4.467c.433 0 6.504-.071 11.014 2.457l.196-.349c-4.614-2.586-10.787-2.508-11.21-2.508v.4zm11.265 2.412l3.271-3.865-.305-.259-3.271 3.866.305.258zm3.121-4.194a33.502 33.502 0 0 0-6.008.471l.067.395a32.984 32.984 0 0 1 5.936-.466l.005-.4zm-5.775.668v-.004h-.4v.004h.4zm-.077.155l4.126-3.2-.245-.316-4.126 3.199.245.317zm3.971-3.555c-7.002 1.159-11.479 3.49-12.605 4.141l.2.347c1.093-.633 5.525-2.944 12.471-4.094l-.066-.394zm-12.505 4.514c.433 0 6.504-.071 11.014 2.461l.196-.349c-4.614-2.59-10.787-2.512-11.21-2.512v.4zm11.265 2.416l3.283-3.869-.305-.259-3.283 3.869.305.259zm3.132-4.198a33.28 33.28 0 0 0-6.02.475l.068.394a32.93 32.93 0 0 1 5.948-.469l.004-.4zm-5.786.672v-.008h-.4v.008h.4zm6.154-4.689h3.391v-.4h-3.391v.4zm3.542-.07l6.55-7.596-.303-.261-6.55 7.596.303.261zm-9.862 4.949a33.473 33.473 0 0 1 5.937-.482l.003-.4a33.99 33.99 0 0 0-6.008.487l.068.395zm6.09-.552l2.74-3.195-.304-.261-2.739 3.196.303.26zm2.575-3.525a48.974 48.974 0 0 0-4.623.514l.064.395a48.385 48.385 0 0 1 4.585-.51l-.026-.399zm-4.714.553l-4.107 3.168.244.317 4.108-3.168-.245-.317zm5.76-1.332h2.697v-.4h-2.697v.4zm2.875-.109l3.853-7.62-.357-.18-3.853 7.619.357.181zm3.523-7.841l-6.55 7.62.303.261 6.551-7.62-.304-.261zm-10.173 12.324c1.33.02 2.655.179 3.954.475l.089-.389a19.406 19.406 0 0 0-4.038-.486l-.005.4zm4.176.371l1.927-3.778-.357-.182-1.926 3.779.356.181zm1.749-4.069a42.15 42.15 0 0 0-3.171.115l.03.399a41.84 41.84 0 0 1 3.141-.114v-.4zm-3.307.183l-2.766 3.184.301.262 2.767-3.184-.302-.262z" fill="#127DF3" mask="url(#a)"/><defs><filter id="filter0_d" x="37" y="37" width="146.526" height="146.526" filterUnits="userSpaceOnUse" color-interpolation-filters="sRGB"><feFlood flood-opacity="0" result="BackgroundImageFix"/><feColorMatrix in="SourceAlpha" values="0 0 0 0 0 0 0 0 0 0 0 0 0 0 0 0 0 0 127 0"/><feOffset/><feGaussianBlur stdDeviation="6"/><feColorMatrix values="0 0 0 0 0 0 0 0 0 0 0 0 0 0 0 0 0 0 0.12 0"/><feBlend in2="BackgroundImageFix" result="effect1_dropShadow"/><feBlend in="SourceGraphic" in2="effect1_dropShadow" result="shape"/></filter><linearGradient id="paint0_linear" x1="209.816" y1="1.19" x2="196.432" y2="246.38" gradientUnits="userSpaceOnUse"><stop stop-color="#127BF3"/><stop offset="1" stop-color="#34CEFF"/></linearGradient></defs></svg>