<svg width="58" height="68" fill="none" xmlns="http://www.w3.org/2000/svg"><path fill-rule="evenodd" clip-rule="evenodd" d="M38.626 21.325c-.458-.343-1.259-.229-1.602.229L27.642 34.14l-4.691-4.806a1.106 1.106 0 0 0-1.602 0 1.106 1.106 0 0 0 0 1.602l5.606 5.72c.23.23.458.344.801.344h.115c.343 0 .572-.229.8-.458l10.184-13.615c.343-.572.228-1.259-.23-1.602z" fill="#127BF3"/><path d="M56.328 7.875l.064.053c.405 2.785.608 5.572.608 8.428C57 38.21 45.672 57.174 28.998 66.85 12.328 57.247 1 38.21 1 16.432c0-2.857.203-5.712.607-8.43l.07-.058c.223-.185.573-.459 1.063-.792.978-.666 2.512-1.57 4.69-2.481C11.784 2.851 18.734 1 29 1c10.267 0 17.218 1.833 21.573 3.635 2.18.9 3.713 1.796 4.691 2.456.49.33.84.6 1.064.784z" stroke="#127BF3" stroke-width="2" stroke-linecap="round" stroke-linejoin="round"/></svg>