<svg width="428" height="356" fill="none" xmlns="http://www.w3.org/2000/svg"><g filter="url(#filter0_d)"><rect x="56" y="56" width="168" height="168" rx="8" fill="#fff"/></g><path fill-rule="evenodd" clip-rule="evenodd" d="M154.784 88.807l1.821 15.748a7.48 7.48 0 0 1 1.231.926 6.876 6.876 0 0 1 1.638 2.298c.369.855.548 1.767.524 2.684-.004 2.372-1.109 4.358-2.412 5.878l.982 8.494c.057.494-.339.937-.884.989-.546.052-1.034-.307-1.091-.801l-.8-6.922a18.256 18.256 0 0 1-2.596 1.813c-.098.056-.176.098-.231.128l-.066.035-.019.01-.006.003-.002.001c-.001.001-.001.001-.488-.784l-.487.784h-.001l-.002-.001-.006-.003-.019-.01-.066-.035c-.055-.03-.133-.072-.231-.128a18.103 18.103 0 0 1-3.207-2.35c-1.735-1.603-3.589-4.028-3.594-7.101a6.36 6.36 0 0 1 .524-2.684 6.876 6.876 0 0 1 1.638-2.298 7.663 7.663 0 0 1 2.493-1.541 8.292 8.292 0 0 1 2.958-.542v1.801c-.751 0-1.495.136-2.187.4a5.707 5.707 0 0 0-1.843 1.139 5.093 5.093 0 0 0-1.21 1.699 4.687 4.687 0 0 0-.387 1.992v.023c0 2.4 1.453 4.398 3.026 5.851a16.135 16.135 0 0 0 2.601 1.943 16.07 16.07 0 0 0 2.601-1.943c1.573-1.453 3.026-3.451 3.026-5.851v-.023a4.687 4.687 0 0 0-.387-1.992 5.093 5.093 0 0 0-1.21-1.699 5.707 5.707 0 0 0-1.843-1.139 6.146 6.146 0 0 0-2.187-.4v-1.801c.719 0 1.433.092 2.121.273l-1.697-14.677c-.057-.494.339-.937.884-.989.545-.052 1.034.307 1.091.802zm-2.399 18.343v-1.951 1.951c-1.92 0-3.475 1.411-3.475 3.152s1.556 3.152 3.475 3.152v4.792-4.792c1.92 0 3.475-1.411 3.475-3.152s-1.555-3.152-3.475-3.152zm0 1.801c-.823 0-1.489.605-1.489 1.351s.666 1.351 1.489 1.351v-2.702zm0 2.702v-2.702c.823 0 1.489.605 1.489 1.351s-.666 1.351-1.489 1.351zm0 7.654l.487.785-.487.248-.487-.248.487-.785zm-22.514-31.132c.546.047.946.487.894.982l-3.783 36.028c-.052.495-.537.858-1.083.811-.546-.047-.946-.487-.894-.982l3.783-36.028c.052-.495.537-.858 1.083-.811zm11.92 7.118c-.548 0-.993-.403-.993-.9V88.99c0-.497.445-.9.993-.9.549 0 .993.403.993.9v5.403c0 .497-.444.9-.993.9zm-.993 9.906c0 .497.445.9.993.9.549 0 .993-.403.993-.9v-5.403c0-.497-.444-.9-.993-.9-.548 0-.993.403-.993.9v5.403zm.993 11.707c-.548 0-.993-.404-.993-.901v-5.403c0-.497.445-.901.993-.901.549 0 .993.404.993.901v5.403c0 .497-.444.901-.993.901zm-.993 8.104c0 .497.445.901.993.901.549 0 .993-.404.993-.901v-3.602c0-.497-.444-.9-.993-.9-.548 0-.993.403-.993.9v3.602z" fill="#127BF3"/><path opacity=".7" d="M103.34 165h6.128v-1.504h-2v-8.672h-1.376c-.64.384-1.344.64-2.352.832v1.152h1.872v6.688h-2.272V165zm11.053-5.2c0 3.472 2.096 5.392 4.752 5.392 1.328 0 2.416-.544 3.264-1.52l-1.024-1.136c-.592.656-1.28 1.04-2.208 1.04-1.744 0-2.88-1.44-2.88-3.824 0-2.352 1.232-3.792 2.944-3.792.8 0 1.392.336 1.936.864l1.024-1.152c-.656-.704-1.696-1.328-2.976-1.328-2.688 0-4.832 2.032-4.832 5.456zm9.588 5.2h1.84v-4.8c.48-1.184 1.232-1.616 1.856-1.616.336 0 .544.048.816.128l.32-1.6c-.24-.112-.496-.16-.896-.16-.832 0-1.664.56-2.224 1.584h-.064l-.128-1.392h-1.52V165zm5.3-3.92c0 2.592 1.696 4.112 3.872 4.112.992 0 1.936-.352 2.688-.848l-.624-1.152c-.576.368-1.152.576-1.824.576-1.264 0-2.16-.8-2.32-2.224h4.992c.048-.192.08-.512.08-.864 0-2.192-1.12-3.728-3.248-3.728-1.84 0-3.616 1.568-3.616 4.128zm1.776-.704c.16-1.312.96-2 1.888-2 1.072 0 1.6.752 1.6 2h-3.488zm3.936-6.88h-1.84l-1.424 2.336h1.36l1.904-2.336zm2.429 7.584c0 2.592 1.264 4.112 3.232 4.112.848 0 1.648-.464 2.224-1.04h.064l.128.848h1.52v-11.296h-1.84v2.848l.064 1.264c-.608-.528-1.168-.864-2.064-.864-1.712 0-3.328 1.568-3.328 4.128zm1.904-.016c0-1.648.816-2.592 1.824-2.592.528 0 1.056.176 1.6.656v3.664c-.528.608-1.04.88-1.648.88-1.136 0-1.776-.912-1.776-2.608zm8.536-5.296c.656 0 1.136-.432 1.136-1.04 0-.624-.48-1.056-1.136-1.056-.656 0-1.136.432-1.136 1.056 0 .608.48 1.04 1.136 1.04zm-.928 9.232h1.84v-7.856h-1.84V165zm4.459-2.656c0 1.696.672 2.848 2.496 2.848.624 0 1.168-.144 1.6-.288l-.32-1.36a2.252 2.252 0 0 1-.816.176c-.752 0-1.104-.448-1.104-1.376V158.6h2v-1.456h-2V155h-1.536l-.224 2.144-1.216.08v1.376h1.12v3.744zm4.841-1.264c0 2.608 1.776 4.112 3.728 4.112 1.968 0 3.744-1.504 3.744-4.112 0-2.624-1.776-4.128-3.744-4.128-1.952 0-3.728 1.504-3.728 4.128zm1.888 0c0-1.584.688-2.624 1.84-2.624 1.152 0 1.856 1.04 1.856 2.624 0 1.568-.704 2.608-1.856 2.608-1.152 0-1.84-1.04-1.84-2.608zm10.063-2.48h7.12v-1.344h-7.12v1.344zm0 3.584h7.12v-1.344h-7.12v1.344zM91.772 185h6.88v-1.568h-2.496c-.496 0-1.168.064-1.696.112 2.016-2.128 3.696-3.984 3.696-5.792 0-1.888-1.264-3.12-3.216-3.12-1.392 0-2.32.576-3.248 1.568l1.024 1.024c.544-.608 1.2-1.136 1.984-1.136 1.088 0 1.68.688 1.68 1.76 0 1.552-1.776 3.344-4.608 6.08V185zm9.707-4.048l1.856-2.832c.288-.544.576-1.056.832-1.584h.064a46.57 46.57 0 0 0-.08 2.112v2.304h-2.672zm5.68 0h-1.28v-6.128h-2.192l-4.032 6.304v1.248h4.496V185h1.728v-2.624h1.28v-1.424zm1.579 4.048h1.84v-5.488c.656-.64 1.104-.976 1.792-.976.864 0 1.232.48 1.232 1.776V185h1.84v-4.928c0-1.984-.736-3.12-2.416-3.12-1.072 0-1.856.56-2.512 1.184l.064-1.52v-2.912h-1.84V185zm11.723-3.92c0 2.592 1.264 4.112 3.232 4.112.848 0 1.648-.464 2.224-1.04h.064l.128.848h1.52v-11.296h-1.84v2.848l.064 1.264c-.608-.528-1.168-.864-2.064-.864-1.712 0-3.328 1.568-3.328 4.128zm1.904-.016c0-1.648.816-2.592 1.824-2.592.528 0 1.056.176 1.6.656v3.664c-.528.608-1.04.88-1.648.88-1.136 0-1.776-.912-1.776-2.608zm7.096.016c0 2.592 1.696 4.112 3.872 4.112.992 0 1.936-.352 2.688-.848l-.624-1.152c-.576.368-1.152.576-1.824.576-1.264 0-2.16-.8-2.32-2.224h4.992c.048-.192.08-.512.08-.864 0-2.192-1.12-3.728-3.248-3.728-1.84 0-3.616 1.568-3.616 4.128zm1.776-.704c.16-1.312.96-2 1.888-2 1.072 0 1.6.752 1.6 2h-3.488zm9.342 3.728c.768.624 1.904 1.088 2.976 1.088 1.984 0 3.056-1.088 3.056-2.432 0-1.472-1.184-1.984-2.256-2.384-.848-.304-1.632-.56-1.632-1.168 0-.496.368-.864 1.152-.864.624 0 1.184.272 1.728.672l.848-1.12c-.64-.496-1.52-.944-2.608-.944-1.76 0-2.864.976-2.864 2.352 0 1.312 1.168 1.904 2.208 2.288.832.32 1.68.608 1.68 1.264 0 .544-.4.944-1.248.944-.8 0-1.472-.336-2.176-.88l-.864 1.184zm7.163-3.024c0 2.592 1.696 4.112 3.872 4.112.992 0 1.936-.352 2.688-.848l-.624-1.152c-.576.368-1.152.576-1.824.576-1.264 0-2.16-.8-2.32-2.224h4.992c.048-.192.08-.512.08-.864 0-2.192-1.12-3.728-3.248-3.728-1.84 0-3.616 1.568-3.616 4.128zm1.776-.704c.16-1.312.96-2 1.888-2 1.072 0 1.6.752 1.6 2h-3.488zm7.697 5.776c0-.368.192-.72.608-1.04.304.08.64.112 1.072.112h1.072c.896 0 1.392.176 1.392.784 0 .672-.864 1.264-2.128 1.264-1.248 0-2.016-.416-2.016-1.12zm-1.536.272c0 1.376 1.392 2.048 3.264 2.048 2.56 0 4.192-1.216 4.192-2.768 0-1.36-.992-1.936-2.88-1.936h-1.392c-.96 0-1.28-.272-1.28-.72 0-.352.144-.544.384-.752.352.144.736.208 1.072.208 1.664 0 2.976-.928 2.976-2.672 0-.544-.192-1.024-.448-1.328h1.44v-1.36h-2.816a3.54 3.54 0 0 0-1.152-.192c-1.648 0-3.104 1.008-3.104 2.816 0 .928.496 1.68 1.024 2.08v.064c-.448.32-.864.848-.864 1.456 0 .64.304 1.056.704 1.312v.064c-.72.448-1.12 1.024-1.12 1.68zm3.36-5.072c-.768 0-1.376-.576-1.376-1.584 0-.992.608-1.552 1.376-1.552.768 0 1.36.576 1.36 1.552 0 1.008-.608 1.584-1.36 1.584zm5.401.72c0 1.984.736 3.12 2.416 3.12 1.072 0 1.84-.528 2.528-1.344h.048l.144 1.152h1.504v-7.856h-1.84v5.376c-.592.768-1.056 1.088-1.744 1.088-.848 0-1.216-.48-1.216-1.776v-4.688h-1.84v4.928zm8.97 2.928h1.84v-4.8c.48-1.184 1.232-1.616 1.856-1.616.336 0 .544.048.816.128l.32-1.6c-.24-.112-.496-.16-.896-.16-.832 0-1.664.56-2.224 1.584h-.064l-.128-1.392h-1.52V185zm5.301-3.92c0 2.608 1.776 4.112 3.728 4.112 1.968 0 3.744-1.504 3.744-4.112 0-2.624-1.776-4.128-3.744-4.128-1.952 0-3.728 1.504-3.728 4.128zm1.888 0c0-1.584.688-2.624 1.84-2.624 1.152 0 1.856 1.04 1.856 2.624 0 1.568-.704 2.608-1.856 2.608-1.152 0-1.84-1.04-1.84-2.608z" fill="#080B1A"/><g filter="url(#filter1_d)"><rect x="204" y="132" width="168" height="168" rx="8" fill="#fff"/></g><path fill-rule="evenodd" clip-rule="evenodd" d="M283.283 193.577c1.558-1.157 2.384-2.643 2.384-4.158 0-1.516-.826-3.002-2.384-4.158-1.558-1.156-3.775-1.912-6.283-1.912-2.508 0-4.725.756-6.283 1.912-1.558 1.156-2.384 2.642-2.384 4.158 0 1.515.826 3.001 2.384 4.158 1.558 1.155 3.775 1.911 6.283 1.911 2.508 0 4.725-.756 6.283-1.911zm2.384-.455c-1.728 2.221-4.962 3.715-8.667 3.715s-6.939-1.494-8.667-3.715v.68c0 1.943.472 3.489 1.69 4.571 1.24 1.1 3.379 1.836 6.977 1.836 3.951 0 6.068-.743 7.212-1.823 1.124-1.06 1.455-2.585 1.455-4.584v-.68zm1.333.68v-4.383c0-4.098-4.477-7.419-10-7.419s-10 3.321-10 7.419V203.581c0 2.067.533 3.981 2.156 5.353 1.593 1.348 4.115 2.066 7.844 2.066 4.044 0 6.587-.711 8.109-2.079 1.552-1.395 1.891-3.331 1.891-5.34v-9.779zm-1.333 4.972a5.444 5.444 0 0 1-.546.599c-1.522 1.437-4.072 2.185-8.121 2.185-3.735 0-6.263-.756-7.857-2.172a5.907 5.907 0 0 1-.81-.88v.354c0 1.836.467 3.294 1.678 4.318 1.24 1.05 3.385 1.752 6.989 1.752 3.956 0 6.079-.71 7.224-1.738 1.115-1.002 1.443-2.438 1.443-4.332v-.086zm-17.334 4.807v-.221c.236.303.509.588.823.853 1.593 1.348 4.115 2.066 7.844 2.066 4.044 0 6.587-.711 8.109-2.079.207-.186.392-.381.558-.584-.004 1.877-.335 3.301-1.443 4.297-1.145 1.028-3.268 1.738-7.224 1.738-3.604 0-5.749-.702-6.989-1.752-1.211-1.024-1.678-2.482-1.678-4.318zm8-18.209a.67.67 0 0 1 .667-.674c.875 0 1.742.122 2.551.359a7.302 7.302 0 0 1 2.163 1.023c.619.439 1.11.959 1.445 1.532.335.573.508 1.187.508 1.807a.67.67 0 0 1-.667.674.67.67 0 0 1-.667-.674c0-.361-.099-.74-.321-1.12-.225-.385-.576-.769-1.063-1.114a5.965 5.965 0 0 0-1.769-.832 7.77 7.77 0 0 0-2.18-.306.671.671 0 0 1-.667-.675z" fill="#127BF3"/><path fill-rule="evenodd" clip-rule="evenodd" d="M301.6 173.526c0 1.538-.867 3.046-2.503 4.219-1.636 1.172-3.964 1.939-6.597 1.939-2.633 0-4.961-.767-6.597-1.939-1.636-1.173-2.503-2.681-2.503-4.219 0-1.537.867-3.045 2.503-4.218 1.636-1.173 3.964-1.94 6.597-1.94 2.633 0 4.961.767 6.597 1.94 1.636 1.173 2.503 2.681 2.503 4.218zm-9.1 7.527c3.89 0 7.286-1.517 9.1-3.769v.69c0 2.027-.348 3.575-1.527 4.65-1.202 1.095-3.425 1.85-7.573 1.85-3.778 0-6.024-.747-7.326-1.864-1.278-1.097-1.774-2.665-1.774-4.636v-.69c1.814 2.252 5.21 3.769 9.1 3.769zm10.5-7.527v23.948c0 2.037-.355 4.002-1.985 5.417-1.598 1.387-4.269 2.109-8.515 2.109-2.278 0-4.128-.247-5.605-.722.003-.138.005-.278.005-.418v-1.034c1.325.504 3.138.806 5.6.806 4.154 0 6.383-.721 7.585-1.764 1.163-1.01 1.511-2.455 1.515-4.36a5.27 5.27 0 0 1-.585.593c-1.598 1.388-4.269 2.11-8.515 2.11-2.276 0-4.123-.247-5.6-.721v-1.453c1.325.504 3.138.805 5.6.805 4.154 0 6.383-.72 7.585-1.764 1.163-1.01 1.511-2.455 1.515-4.359a5.354 5.354 0 0 1-.585.593c-1.598 1.388-4.269 2.109-8.515 2.109-2.276 0-4.123-.246-5.6-.721v-1.453c1.325.504 3.138.806 5.6.806 4.154 0 6.383-.721 7.585-1.764 1.163-1.01 1.511-2.455 1.515-4.36a5.27 5.27 0 0 1-.585.593c-1.598 1.388-4.269 2.11-8.515 2.11-2.276 0-4.123-.247-5.6-.721v-.648c0-.28-.021-.557-.063-.83 1.33.519 3.162.83 5.663.83 4.154 0 6.383-.72 7.585-1.764 1.17-1.016 1.515-2.472 1.515-4.394v-.088a5.435 5.435 0 0 1-.573.608c-1.598 1.458-4.275 2.217-8.527 2.217-3.922 0-6.576-.767-8.249-2.203a6.095 6.095 0 0 1-.851-.893v.359c0 .19.005.376.016.558-.44-.283-.914-.54-1.416-.768v-9.369c0-4.156 4.701-7.526 10.5-7.526s10.5 3.37 10.5 7.526zm-10.5-4.789c-.387 0-.7.306-.7.684 0 .378.313.684.7.684.793 0 1.571.107 2.289.311a6.354 6.354 0 0 1 1.858.845c.511.349.879.739 1.115 1.129.234.386.338.771.338 1.136 0 .378.313.685.7.685.387 0 .7-.307.7-.685 0-.629-.181-1.251-.533-1.833-.352-.581-.867-1.109-1.517-1.553a7.793 7.793 0 0 0-2.271-1.039 9.9 9.9 0 0 0-2.679-.364z" fill="#127BF3"/><path opacity=".7" d="M229.421 241h1.856v-3.84h1.664c2.24 0 3.968-1.072 3.968-3.392 0-2.432-1.68-3.232-3.968-3.232h-3.52V241zm1.856-5.328v-3.648h1.504c1.52 0 2.304.432 2.304 1.744 0 1.28-.736 1.904-2.304 1.904h-1.504zm6.461 3.216c0 1.376.96 2.304 2.336 2.304.928 0 1.728-.464 2.432-1.056h.048l.144.864h1.504v-4.656c0-2.192-.96-3.392-2.928-3.392-1.248 0-2.352.48-3.216 1.024l.672 1.232c.688-.416 1.424-.768 2.208-.768 1.056 0 1.408.704 1.424 1.536-3.216.352-4.624 1.232-4.624 2.912zm1.792-.144c0-.784.704-1.344 2.832-1.616v1.76c-.576.544-1.072.864-1.712.864-.656 0-1.12-.304-1.12-1.008zm6.407-1.664c0 2.608 1.648 4.112 3.792 4.112.896 0 1.84-.352 2.576-1.008l-.768-1.168c-.432.352-.976.672-1.616.672-1.232 0-2.096-1.04-2.096-2.608 0-1.584.88-2.624 2.144-2.624.496 0 .912.208 1.328.576l.88-1.168c-.528-.512-1.296-.912-2.304-.912-2.096 0-3.936 1.504-3.936 4.128zm7 0c0 2.608 1.776 4.112 3.728 4.112 1.968 0 3.744-1.504 3.744-4.112 0-2.624-1.776-4.128-3.744-4.128-1.952 0-3.728 1.504-3.728 4.128zm1.888 0c0-1.584.688-2.624 1.84-2.624 1.152 0 1.856 1.04 1.856 2.624 0 1.568-.704 2.608-1.856 2.608-1.152 0-1.84-1.04-1.84-2.608zm7.678 1.264c0 1.696.671 2.848 2.496 2.848.624 0 1.168-.144 1.6-.288l-.32-1.36a2.252 2.252 0 0 1-.816.176c-.752 0-1.104-.448-1.104-1.376V234.6h2v-1.456h-2V231h-1.536l-.224 2.144-1.216.08v1.376h1.12v3.744zm4.841-1.264c0 2.592 1.695 4.112 3.872 4.112.992 0 1.936-.352 2.688-.848l-.624-1.152c-.576.368-1.152.576-1.824.576-1.264 0-2.16-.8-2.32-2.224h4.992c.048-.192.08-.512.08-.864 0-2.192-1.12-3.728-3.248-3.728-1.84 0-3.616 1.568-3.616 4.128zm1.776-.704c.16-1.312.96-2 1.888-2 1.072 0 1.6.752 1.6 2h-3.488zm6.061 3.728c.768.624 1.904 1.088 2.976 1.088 1.984 0 3.056-1.088 3.056-2.432 0-1.472-1.184-1.984-2.256-2.384-.848-.304-1.632-.56-1.632-1.168 0-.496.368-.864 1.152-.864.624 0 1.184.272 1.728.672l.848-1.12c-.64-.496-1.52-.944-2.608-.944-1.76 0-2.864.976-2.864 2.352 0 1.312 1.168 1.904 2.208 2.288.832.32 1.68.608 1.68 1.264 0 .544-.4.944-1.248.944-.8 0-1.472-.336-2.176-.88l-.864 1.184zm10.476-3.024c0 2.592 1.264 4.112 3.232 4.112.848 0 1.648-.464 2.224-1.04h.064l.128.848h1.52v-11.296h-1.84v2.848l.064 1.264c-.608-.528-1.168-.864-2.064-.864-1.712 0-3.328 1.568-3.328 4.128zm1.904-.016c0-1.648.816-2.592 1.824-2.592.528 0 1.056.176 1.6.656v3.664c-.528.608-1.04.88-1.648.88-1.136 0-1.776-.912-1.776-2.608zm7.095.016c0 2.592 1.696 4.112 3.872 4.112.992 0 1.936-.352 2.688-.848l-.624-1.152c-.576.368-1.152.576-1.824.576-1.264 0-2.16-.8-2.32-2.224h4.992c.048-.192.08-.512.08-.864 0-2.192-1.12-3.728-3.248-3.728-1.84 0-3.616 1.568-3.616 4.128zm1.776-.704c.16-1.312.96-2 1.888-2 1.072 0 1.6.752 1.6 2h-3.488zM306.575 241h6.128v-1.504h-2v-8.672h-1.376c-.64.384-1.344.64-2.352.832v1.152h1.872v6.688h-2.272V241zm11.115.192c2.112 0 3.456-1.888 3.456-5.328 0-3.424-1.344-5.232-3.456-5.232s-3.456 1.792-3.456 5.232c0 3.44 1.344 5.328 3.456 5.328zm0-1.44c-.976 0-1.696-1.008-1.696-3.888s.72-3.792 1.696-3.792c.992 0 1.696.912 1.696 3.792s-.704 3.888-1.696 3.888zm5.259 4.16c1.584-.544 2.496-1.76 2.496-3.328 0-1.184-.512-1.888-1.376-1.888-.672 0-1.232.448-1.232 1.136 0 .72.56 1.136 1.184 1.136h.144c0 .816-.592 1.536-1.616 1.936l.4 1.008zm7.143-2.912h6.88v-1.568h-2.496c-.496 0-1.168.064-1.696.112 2.016-2.128 3.696-3.984 3.696-5.792 0-1.888-1.264-3.12-3.216-3.12-1.392 0-2.32.576-3.248 1.568l1.024 1.024c.544-.608 1.2-1.136 1.984-1.136 1.088 0 1.68.688 1.68 1.76 0 1.552-1.776 3.344-4.608 6.08V241zm11.692.192c2.112 0 3.456-1.888 3.456-5.328 0-3.424-1.344-5.232-3.456-5.232s-3.456 1.792-3.456 5.232c0 3.44 1.344 5.328 3.456 5.328zm0-1.44c-.976 0-1.696-1.008-1.696-3.888s.72-3.792 1.696-3.792c.992 0 1.696.912 1.696 3.792s-.704 3.888-1.696 3.888zm-98.44 17.328c0 2.592 1.695 4.112 3.872 4.112.992 0 1.936-.352 2.688-.848l-.624-1.152c-.576.368-1.152.576-1.824.576-1.264 0-2.16-.8-2.32-2.224h4.992c.048-.192.08-.512.08-.864 0-2.192-1.12-3.728-3.248-3.728-1.84 0-3.616 1.568-3.616 4.128zm1.776-.704c.16-1.312.96-2 1.888-2 1.072 0 1.6.752 1.6 2h-3.488zm9.342 3.376c.72.8 1.808 1.44 3.456 1.44 1.952 0 3.568-1.088 3.568-2.944 0-1.344-.912-2.208-2.112-2.528v-.064c1.104-.432 1.776-1.2 1.776-2.336 0-1.728-1.344-2.688-3.296-2.688-1.216 0-2.192.512-3.056 1.28l.944 1.136c.624-.576 1.248-.96 2.048-.96.928 0 1.504.512 1.504 1.36 0 .944-.656 1.632-2.656 1.632v1.344c2.32 0 2.992.672 2.992 1.728 0 .96-.768 1.536-1.872 1.536-1.024 0-1.808-.496-2.416-1.12l-.88 1.184zm11.915 1.44c2.112 0 3.456-1.888 3.456-5.328 0-3.424-1.344-5.232-3.456-5.232s-3.456 1.792-3.456 5.232c0 3.44 1.344 5.328 3.456 5.328zm0-1.44c-.976 0-1.696-1.008-1.696-3.888s.72-3.792 1.696-3.792c.992 0 1.696.912 1.696 3.792s-.704 3.888-1.696 3.888zm8.141-3.952c0 3.472 2.096 5.392 4.752 5.392 1.328 0 2.416-.544 3.264-1.52l-1.024-1.136c-.592.656-1.28 1.04-2.208 1.04-1.744 0-2.88-1.44-2.88-3.824 0-2.352 1.232-3.792 2.944-3.792.8 0 1.392.336 1.936.864l1.024-1.152c-.656-.704-1.696-1.328-2.976-1.328-2.688 0-4.832 2.032-4.832 5.456zm9.588 5.2h1.84v-4.8c.48-1.184 1.232-1.616 1.856-1.616.336 0 .544.048.816.128l.32-1.6c-.24-.112-.496-.16-.896-.16-.832 0-1.664.56-2.224 1.584h-.064l-.128-1.392h-1.52V261zm5.3-3.92c0 2.592 1.696 4.112 3.872 4.112.992 0 1.936-.352 2.688-.848l-.624-1.152c-.576.368-1.152.576-1.824.576-1.264 0-2.16-.8-2.32-2.224h4.992c.048-.192.08-.512.08-.864 0-2.192-1.12-3.728-3.248-3.728-1.84 0-3.616 1.568-3.616 4.128zm1.776-.704c.16-1.312.96-2 1.888-2 1.072 0 1.6.752 1.6 2h-3.488zm3.936-6.88h-1.84l-1.424 2.336h1.36l1.904-2.336zm2.429 7.584c0 2.592 1.264 4.112 3.232 4.112.848 0 1.648-.464 2.224-1.04h.064l.128.848h1.52v-11.296h-1.84v2.848l.064 1.264c-.608-.528-1.168-.864-2.064-.864-1.712 0-3.328 1.568-3.328 4.128zm1.904-.016c0-1.648.816-2.592 1.824-2.592.528 0 1.056.176 1.6.656v3.664c-.528.608-1.04.88-1.648.88-1.136 0-1.776-.912-1.776-2.608zm8.536-5.296c.656 0 1.136-.432 1.136-1.04 0-.624-.48-1.056-1.136-1.056-.656 0-1.136.432-1.136 1.056 0 .608.48 1.04 1.136 1.04zm-.928 9.232h1.84v-7.856h-1.84V261zm4.459-2.656c0 1.696.672 2.848 2.496 2.848.624 0 1.168-.144 1.6-.288l-.32-1.36a2.252 2.252 0 0 1-.816.176c-.752 0-1.104-.448-1.104-1.376V254.6h2v-1.456h-2V251h-1.536l-.224 2.144-1.216.08v1.376h1.12v3.744zm4.841-1.264c0 2.608 1.776 4.112 3.728 4.112 1.968 0 3.744-1.504 3.744-4.112 0-2.624-1.776-4.128-3.744-4.128-1.952 0-3.728 1.504-3.728 4.128zm1.888 0c0-1.584.688-2.624 1.84-2.624 1.152 0 1.856 1.04 1.856 2.624 0 1.568-.704 2.608-1.856 2.608-1.152 0-1.84-1.04-1.84-2.608zm6.559 3.024c.768.624 1.904 1.088 2.976 1.088 1.984 0 3.056-1.088 3.056-2.432 0-1.472-1.184-1.984-2.256-2.384-.848-.304-1.632-.56-1.632-1.168 0-.496.368-.864 1.152-.864.624 0 1.184.272 1.728.672l.848-1.12c-.64-.496-1.52-.944-2.608-.944-1.76 0-2.864.976-2.864 2.352 0 1.312 1.168 1.904 2.208 2.288.832.32 1.68.608 1.68 1.264 0 .544-.4.944-1.248.944-.8 0-1.472-.336-2.176-.88l-.864 1.184z" fill="#080B1A"/><defs><filter id="filter0_d" x="0" y="0" width="280" height="280" filterUnits="userSpaceOnUse" color-interpolation-filters="sRGB"><feFlood flood-opacity="0" result="BackgroundImageFix"/><feColorMatrix in="SourceAlpha" values="0 0 0 0 0 0 0 0 0 0 0 0 0 0 0 0 0 0 127 0"/><feOffset/><feGaussianBlur stdDeviation="28"/><feColorMatrix values="0 0 0 0 0 0 0 0 0 0 0 0 0 0 0 0 0 0 0.06 0"/><feBlend in2="BackgroundImageFix" result="effect1_dropShadow"/><feBlend in="SourceGraphic" in2="effect1_dropShadow" result="shape"/></filter><filter id="filter1_d" x="148" y="76" width="280" height="280" filterUnits="userSpaceOnUse" color-interpolation-filters="sRGB"><feFlood flood-opacity="0" result="BackgroundImageFix"/><feColorMatrix in="SourceAlpha" values="0 0 0 0 0 0 0 0 0 0 0 0 0 0 0 0 0 0 127 0"/><feOffset/><feGaussianBlur stdDeviation="28"/><feColorMatrix values="0 0 0 0 0 0 0 0 0 0 0 0 0 0 0 0 0 0 0.06 0"/><feBlend in2="BackgroundImageFix" result="effect1_dropShadow"/><feBlend in="SourceGraphic" in2="effect1_dropShadow" result="shape"/></filter></defs></svg>