<svg width="54" height="27" fill="none" xmlns="http://www.w3.org/2000/svg"><path d="M1.915 9.113l2.708-6.789a2 2 0 0 1 1.858-1.259h8.611m24.979 8.918L31.76 3.82a14 14 0 0 0-8.34-2.755h-8.329m0 0v8.918" stroke="#127BF3" stroke-width="2" stroke-linecap="round"/><circle cx="12" cy="22" r="4" stroke="#127BF3" stroke-width="2"/><circle cx="41.336" cy="22" r="4" stroke="#127BF3" stroke-width="2"/><path d="M19.27 22.068h14.838m14.598-.07l.148.002c2.58.034 4.452-2.444 3.716-4.916v0a8.607 8.607 0 0 0-6.674-6.006l-5.884-1.095H1.919v10.085a2 2 0 0 0 2 2h1.026" stroke="#127BF3" stroke-width="2" stroke-linecap="round"/></svg>