<svg width="57" height="46" fill="none" xmlns="http://www.w3.org/2000/svg"><mask id="a" maskUnits="userSpaceOnUse" x="28" y="0" width="29" height="30"><path fill="#C4C4C4" stroke="#127BF3" stroke-width="2" stroke-linecap="round" d="M29.259 1.84h26.672v26.672H29.259z"/></mask><g mask="url(#a)" stroke="#127BF3" stroke-width="2" stroke-linecap="round"><path d="M42.591 18.235v1.525M38.052 6.205a2 2 0 0 1 1.414-.586h6.257a2 2 0 0 1 1.414.586l4.43 4.429a2 2 0 0 1 .585 1.414v6.257a2 2 0 0 1-.586 1.414l-4.429 4.43a2 2 0 0 1-1.414.585h-6.257a2 2 0 0 1-1.414-.586l-4.429-4.429a2 2 0 0 1-.586-1.414v-6.257a2 2 0 0 1 .586-1.414l4.43-4.43zM42.595 10.159v4.966"/></g><mask id="b" maskUnits="userSpaceOnUse" x="0" y="11" width="36" height="35"><path fill="#C4C4C4" stroke="#127BF3" stroke-width="2" d="M1.849 12.23h32.632v32.632H1.849z"/></mask><g mask="url(#b)" stroke="#127BF3" stroke-width="2"><path d="M18.406 32.394a3.607 3.607 0 1 0 0-7.215 3.607 3.607 0 0 0 0 7.215z"/><path d="M27.304 32.394a1.985 1.985 0 0 0 .397 2.188l.072.073a2.404 2.404 0 0 1-.78 3.925 2.405 2.405 0 0 1-2.623-.522l-.072-.072a1.984 1.984 0 0 0-2.188-.397 1.984 1.984 0 0 0-1.203 1.815v.205a2.405 2.405 0 0 1-4.81 0V39.5a1.984 1.984 0 0 0-1.299-1.816 1.984 1.984 0 0 0-2.188.397l-.072.072a2.405 2.405 0 0 1-3.925-2.623c.12-.292.298-.557.522-.78l.072-.072a1.984 1.984 0 0 0 .397-2.189 1.984 1.984 0 0 0-1.816-1.202h-.205a2.405 2.405 0 0 1 0-4.81h.109a1.984 1.984 0 0 0 1.815-1.3 1.984 1.984 0 0 0-.396-2.188l-.073-.072a2.405 2.405 0 0 1 1.702-4.108 2.405 2.405 0 0 1 1.701.705l.073.072a1.984 1.984 0 0 0 2.188.397h.096a1.984 1.984 0 0 0 1.203-1.816v-.204a2.405 2.405 0 0 1 4.81 0v.108a1.984 1.984 0 0 0 1.202 1.816 1.983 1.983 0 0 0 2.189-.397l.072-.072a2.405 2.405 0 0 1 3.925 2.622 2.404 2.404 0 0 1-.522.781l-.072.072a1.984 1.984 0 0 0-.397 2.189v.096a1.985 1.985 0 0 0 1.816 1.202h.204a2.405 2.405 0 1 1 0 4.81h-.108a1.984 1.984 0 0 0-1.816 1.203v0z"/></g></svg>