<svg width="54" height="27" viewBox="0 0 54 27" fill="none" xmlns="http://www.w3.org/2000/svg">
<path d="M1.91462 9.11283L4.62323 2.32403C4.92653 1.56386 5.66239 1.06519 6.48083 1.06519H15.0925M40.0709 9.98315L31.7605 3.82007C29.3481 2.03102 26.4243 1.06519 23.421 1.06519H15.0925M15.0925 1.06519V9.98315" stroke="#FF9500" stroke-width="2" stroke-linecap="round"/>
<circle cx="12" cy="22" r="4" stroke="#FF9500" stroke-width="2"/>
<circle cx="41.3362" cy="22" r="4" stroke="#FF9500" stroke-width="2"/>
<path d="M19.2694 22.0683H34.1081M48.7059 21.9985L48.8537 22.0005C51.4336 22.0341 53.3062 19.5564 52.5698 17.0836V17.0836C51.648 13.9882 49.0709 11.6694 45.8957 11.0784L40.0116 9.98315H1.91858V20.0683C1.91858 21.1729 2.81401 22.0683 3.91858 22.0683H4.94514" stroke="#FF9500" stroke-width="2" stroke-linecap="round"/>
</svg>
