<svg width="51" height="34" fill="none" xmlns="http://www.w3.org/2000/svg"><path d="M44.902 2.347a1 1 0 1 0-1.414 1.414l1.414-1.414zm-1.414 25.955a1 1 0 0 0 1.414 1.414l-1.414-1.414zm0-24.541c6.777 6.777 6.777 17.764 0 24.54l1.414 1.415c7.558-7.558 7.558-19.812 0-27.37l-1.414 1.415z" fill="#127BF3"/><path d="M39.707 6.136a1 1 0 1 0-1.414 1.414l1.414-1.414zm-1.414 17.768a1 1 0 0 0 1.414 1.414l-1.414-1.414zm0-16.354c4.516 4.516 4.516 11.838 0 16.354l1.414 1.414c5.297-5.297 5.297-13.885 0-19.182L38.293 7.55z" fill="#127BF3"/><rect x="1.421" y="1.619" width="29.171" height="24.4" rx="7" stroke="#127BF3" stroke-width="2"/><path d="M30.594 17.306v2.73c0 4.48 0 6.72-.872 8.431a8 8 0 0 1-3.496 3.497c-1.712.872-3.952.872-8.432.872h-3.556c-4.48 0-6.721 0-8.432-.872a8 8 0 0 1-3.497-3.497c-.872-1.71-.872-3.951-.872-8.431v-2.73" stroke="#127BF3" stroke-width="2"/><path d="M6.918 12.723v2.17h-.391v-2.17h.391zM10.274 12.735v2.158h-.498l-1.358-1.66v1.66h-.403v-2.158h.51l1.358 1.65v-1.65h.391zM13.53 12.978a9.2 9.2 0 0 1-.214.313c-.079-.065-.21-.122-.394-.169a2.093 2.093 0 0 0-.543-.074.973.973 0 0 0-.436.086c-.115.056-.172.139-.172.25 0 .053.032.095.095.125s.145.05.246.062l.338.03c.125.009.248.023.37.044.125.02.238.049.339.086a.533.533 0 0 1 .249.169c.063.076.095.17.095.283 0 .215-.098.4-.294.553-.195.152-.463.228-.803.228-.218 0-.416-.025-.594-.074-.175-.05-.305-.1-.388-.15a1.026 1.026 0 0 1-.202-.17l.264-.304c.251.215.555.323.91.323a1.235 1.235 0 0 0 .454-.07.432.432 0 0 0 .17-.109.243.243 0 0 0 .062-.166c0-.07-.033-.124-.098-.163a.612.612 0 0 0-.25-.076 4.759 4.759 0 0 0-.34-.034 5.996 5.996 0 0 1-.377-.037 1.956 1.956 0 0 1-.34-.08.553.553 0 0 1-.253-.17.47.47 0 0 1-.095-.3c0-.214.104-.385.311-.514.208-.131.47-.197.786-.197.238 0 .452.031.644.092.192.062.345.133.46.213zM16.378 12.735v.366h-.863v1.792h-.391v-1.792h-.84v-.366h2.094zM19.417 14.893h-.46l-.27-.566h-1.299l-.308.566h-.477l1.251-2.17h.477l1.086 2.17zm-1.338-1.835l-.492.903h.925l-.433-.903zM22.523 12.735v2.158h-.499l-1.358-1.66v1.66h-.403v-2.158h.51l1.358 1.65v-1.65h.392zM25.505 12.735v.366h-.863v1.792h-.392v-1.792h-.839v-.366h2.094z" fill="#127BF3"/></svg>