<svg width="98" height="98.2" fill="none" xmlns="http://www.w3.org/2000/svg"><g filter="url(#filter0_d)"><circle cx="49.263" cy="48.737" r="48.4" fill="url(#paint0_linear)"/></g><path d="M64.052 35.715S59.99 31.79 48.806 31.79c-11.184 0-15.247 3.966-15.247 3.966a30.408 30.408 0 0 0-.362 4.728c0 11.82 6.316 22.157 15.609 27.285 9.293-5.169 15.608-15.465 15.608-27.325 0-1.603-.12-3.165-.362-4.728z" fill="#fff"/><path d="M59.748 38.473c.107.072.196.136.269.19.148 1.09.223 2.182.223 3.3 0 9.028-4.624 16.86-11.436 20.945-6.808-4.055-11.432-11.915-11.432-20.913a24.2 24.2 0 0 1 .222-3.302c.073-.055.164-.121.273-.196a10.818 10.818 0 0 1 1.91-1.007c1.793-.747 4.697-1.527 9.029-1.527 4.333 0 7.238.772 9.032 1.512.898.371 1.522.736 1.91.998z" stroke="#127BF3" stroke-width="2"/><path d="M48.541 31.789c11.373 0 15.505 3.926 15.505 3.926.246 1.563.368 3.125.368 4.728 0 11.86-6.422 22.157-15.873 27.325v-35.98z" fill="#000" fill-opacity=".06"/><path d="M55.949 41.313l-8.44 4.536 2.479.019 5.96-4.555zm-9.771 7.482l2.47-1.89c-4.183.683-6.849 2.056-7.514 2.44.256 0 3.928-.044 6.663 1.49l1.962-2.319c-1.2-.014-2.398.08-3.581.282v-.003z" fill="#127DF3"/><path d="M46.178 48.795l2.474-1.918c-4.182.692-6.853 2.084-7.518 2.469.256 0 3.928-.045 6.663 1.49l1.969-2.32a19.85 19.85 0 0 0-3.588.284v-.005z" fill="#127DF3"/><path d="M49.988 45.868h2.033l3.928-4.555-5.961 4.555zm-3.81 2.927a20.21 20.21 0 0 1 3.58-.29l1.644-1.917c-.982.064-1.9.168-2.761.308l-2.463 1.9z" fill="#127DF3"/><path d="M52.02 45.882h1.618l2.31-4.57-3.927 4.57zm-2.261 2.623c.806.012 1.609.108 2.396.288l1.155-2.266c-.653 0-1.284.023-1.892.069l-1.66 1.909z" fill="#127DF3"/><path d="M56.01 41.392a.1.1 0 1 0-.122-.159l.122.159zm-6.083 4.396a.1.1 0 1 0 .121.16l-.121-.16zm.121.16l5.962-4.556-.122-.159-5.961 4.555.121.16zm5.9-4.635l.18.09a.2.2 0 0 0-.274-.267l.095.177zm-8.44 4.536l-.094-.176a.2.2 0 0 0 .093.376l.001-.2zm2.48.019l-.002.2h.002v-.2zm-3.81 2.927l-.123-.158a.2.2 0 0 0-.077.158h.2zm2.47-1.89l.121.159a.2.2 0 0 0-.154-.356l.032.197zm-7.514 2.44l-.1-.172a.2.2 0 0 0 .1.373v-.2zm6.663 1.49l-.097.174a.2.2 0 0 0 .25-.046l-.153-.129zm1.962-2.319l.153.13a.2.2 0 0 0-.15-.33l-.003.2zm-3.581.282h-.2a.2.2 0 0 0 .233.197l-.033-.197zm2.474-1.921l.123.158a.2.2 0 0 0-.155-.356l.032.198zm-.855 3.96l-.098.174a.2.2 0 0 0 .25-.045l-.152-.13zm1.969-2.32l.152.129a.2.2 0 0 0-.15-.33l-.002.2zm-3.588.283h-.2a.2.2 0 0 0 .233.197l-.033-.197zm5.843-2.932v.2a.2.2 0 0 0 .151-.07l-.151-.13zm-.62.72l.152.13a.2.2 0 0 0-.164-.33l.013.2zm-2.76.308l-.032-.198a.2.2 0 0 0-.09.04l.122.158zm3.38-1.014l-.152-.13a.2.2 0 0 0 .152.33v-.2zm1.617 0v.2a.2.2 0 0 0 .179-.11l-.179-.09zm-1.483 2.91l-.045.196a.2.2 0 0 0 .223-.104l-.178-.091zm1.155-2.265l.178.09a.2.2 0 0 0-.178-.29v.2zm-1.892.069l-.015-.2a.2.2 0 0 0-.136.068l.15.132zm4.436-5.46l-8.44 4.537.19.352 8.44-4.536-.19-.353zm-8.347 4.913l2.48.019.002-.4-2.479-.02-.003.4zm-1.208 2.905l2.47-1.89-.243-.318-2.47 1.89.243.318zm2.316-2.246c-4.21.687-6.899 2.07-7.582 2.465l.2.346c.65-.375 3.293-1.738 7.447-2.417l-.065-.394zm-7.481 2.838c.261 0 3.881-.042 6.566 1.463l.195-.35c-2.787-1.562-6.51-1.513-6.761-1.513v.4zm6.816 1.417l1.962-2.317-.306-.259-1.961 2.318.305.258zm1.811-2.647a20.187 20.187 0 0 0-3.617.284l.067.395a19.786 19.786 0 0 1 3.546-.279l.004-.4zm-3.383.481v-.002h-.4v.002h.4zm-.078.156l2.475-1.918-.245-.316-2.475 1.918.245.316zm2.32-2.274c-4.21.697-6.904 2.099-7.587 2.494l.2.346c.65-.376 3.298-1.757 7.452-2.445l-.066-.395zm-7.486 2.867c.261 0 3.881-.042 6.565 1.465l.196-.349c-2.787-1.565-6.51-1.516-6.761-1.516v.4zm6.816 1.42l1.968-2.32-.305-.259-1.968 2.32.305.259zm1.818-2.65a20.05 20.05 0 0 0-3.624.287l.067.394a19.66 19.66 0 0 1 3.552-.28l.005-.4zm-3.39.484v-.005h-.4v.005h.4zm3.61-2.732h2.033v-.4h-2.033v.4zm2.184-.07l3.928-4.555-.303-.261-3.928 4.555.303.261zm-5.96 2.994a20.012 20.012 0 0 1 3.545-.287l.004-.4a20.411 20.411 0 0 0-3.617.293l.067.394zm3.699-.357l1.642-1.916-.303-.26-1.643 1.915.304.26zm1.478-2.246c-.988.064-1.912.169-2.78.31l.063.394a28.895 28.895 0 0 1 2.743-.305l-.026-.4zm-2.87.348l-2.464 1.9.245.316 2.463-1.9-.244-.316zm3.502-.655h1.617v-.4h-1.617v.4zm1.796-.11l2.31-4.57-.357-.18-2.31 4.57.357.18zm1.98-4.79l-3.928 4.57.304.26 3.927-4.57-.303-.26zm-6.041 7.523c.792.011 1.581.106 2.354.283l.09-.39c-.801-.183-1.618-.281-2.438-.293l-.006.4zm2.577.179l1.155-2.266-.356-.182-1.155 2.266.356.182zm.977-2.557c-.658 0-1.293.023-1.907.07l.03.398a25.077 25.077 0 0 1 1.877-.068v-.4zm-2.043.137l-1.66 1.91.303.262 1.659-1.91-.302-.262z" fill="#127DF3" mask="url(#path-5-outside-1)"/><defs><filter id="filter0_d" x=".526" y="0" width="97.474" height="97.474" filterUnits="userSpaceOnUse" color-interpolation-filters="sRGB"><feFlood flood-opacity="0" result="BackgroundImageFix"/><feColorMatrix in="SourceAlpha" values="0 0 0 0 0 0 0 0 0 0 0 0 0 0 0 0 0 0 127 0"/><feOffset/><feGaussianBlur stdDeviation="6"/><feColorMatrix values="0 0 0 0 0 0 0 0 0 0 0 0 0 0 0 0 0 0 0.12 0"/><feBlend in2="BackgroundImageFix" result="effect1_dropShadow"/><feBlend in="SourceGraphic" in2="effect1_dropShadow" result="shape"/></filter><linearGradient id="paint0_linear" x1="48.409" y1="-27.3" x2="48.409" y2="109.395" gradientUnits="userSpaceOnUse"><stop stop-color="#1052F3"/><stop offset="1" stop-color="#15DCF4"/></linearGradient></defs></svg>