<svg width="24" height="24" viewBox="0 0 24 24" fill="none" xmlns="http://www.w3.org/2000/svg">
<mask id="mask0" mask-type="alpha" maskUnits="userSpaceOnUse" x="0" y="0" width="24" height="24">
<rect x="0.5" y="0.5" width="23" height="23" fill="#C4C4C4" stroke="#FF9500" stroke-linecap="round"/>
</mask>
<g mask="url(#mask0)">
<path d="M20 11.0834C20.0029 12.1832 19.7459 13.2683 19.25 14.25C18.662 15.4265 17.7581 16.416 16.6395 17.1078C15.521 17.7995 14.2319 18.1662 12.9167 18.1667C11.8168 18.1696 10.7318 17.9126 9.75 17.4167L5 19L6.58333 14.25C6.08744 13.2683 5.83047 12.1832 5.83333 11.0834C5.83384 9.76815 6.20051 8.47907 6.89227 7.36048C7.58402 6.2419 8.57355 5.338 9.75 4.75002C10.7318 4.25413 11.8168 3.99716 12.9167 4.00002H13.3333C15.0703 4.09585 16.7109 4.82899 17.941 6.05907C19.171 7.28915 19.9042 8.92973 20 10.6667V11.0834Z" stroke="#FF9500" stroke-width="2" stroke-linecap="round"/>
</g>
</svg>
