<svg width="163" height="78" fill="none" xmlns="http://www.w3.org/2000/svg"><g clip-path="url(#clip0)" fill="#127BF3"><path d="M100.485 2.188a1.669 1.669 0 0 0-1.186-.496H12.034a1.67 1.67 0 0 0-1.186.496 1.7 1.7 0 0 0-.492 1.197v55h-.839l-.839.846V3.385A3.4 3.4 0 0 1 9.661.99 3.342 3.342 0 0 1 12.034 0H99.3c.89 0 1.744.357 2.373.991.63.635.983 1.496.983 2.394v65.154h-63.77v-.847l.84-.846h61.252V3.385c0-.45-.177-.88-.492-1.197zM12.034 67.692v.847h8.391v-.847l-.839-.846h-7.552v.846z"/><path d="M130.65 16.083a4.275 4.275 0 0 0-2.495-.852h-25.5v51.615h14.265v1.693h-14.265c-.445 0-.872-.179-1.186-.496a1.699 1.699 0 0 1-.492-1.197V15.231c0-.45.177-.88.492-1.197a1.669 1.669 0 0 1 1.186-.495h25.5l-.009-.009a5.957 5.957 0 0 1 3.469 1.174 6.035 6.035 0 0 1 2.145 2.99l2.299 6.768a16.88 16.88 0 0 0 8.391 9.74l.562.27a8.463 8.463 0 0 1 3.399 3.168 8.561 8.561 0 0 1 1.233 4.498v3.131l-.839-.846h-.839v-2.285a6.817 6.817 0 0 0-.974-3.6 6.74 6.74 0 0 0-2.718-2.534l-.563-.27a18.355 18.355 0 0 1-5.676-4.432 18.525 18.525 0 0 1-3.553-6.29l-2.3-6.769a4.333 4.333 0 0 0-1.532-2.16zM149.152 68.043a1.67 1.67 0 0 1-1.186.495h-10.908v-1.692h12.586c0 .449-.177.88-.492 1.197zM148.805 53.73h-.839v4.655h1.678v-5.077l-.839.423z"/><path d="M151.076 60.325a.835.835 0 0 0-.593-.248h-15.104l-.839-.846-.839-.846h16.782c.667 0 1.308.267 1.78.743a2.55 2.55 0 0 1 .737 1.795V66a2.55 2.55 0 0 1-.737 1.795 2.508 2.508 0 0 1-1.78.743h-13.426v-1.692h13.426c.222 0 .436-.089.593-.248a.852.852 0 0 0 .246-.598v-5.077a.852.852 0 0 0-.246-.598zM8.924 66.598c.157.159.37.248.593.248h10.07v1.693H9.516a2.507 2.507 0 0 1-1.78-.744A2.55 2.55 0 0 1 7 66v-5.077c0-.673.265-1.319.737-1.795a2.507 2.507 0 0 1 1.78-.743h110.759l-.839.846-.839.846H37.207v-1.692H22.103l-.839.846-.839.846H9.517a.836.836 0 0 0-.593.248.85.85 0 0 0-.246.598V66c0 .224.089.44.246.598zM39.724 67.692v.847h77.196v-1.693H39.724v.846zM147.966 45.692c.222 0 .435.09.593.248a.851.851 0 0 1 .246.599v5.076c0 .225-.089.44-.246.599a.837.837 0 0 1-.593.248h-4.196c-.445 0-.872-.179-1.186-.496a1.699 1.699 0 0 1-.492-1.197v-3.384c0-.45.177-.88.492-1.197a1.668 1.668 0 0 1 1.186-.496h4.196zm0-1.692h-4.196c-.89 0-1.744.357-2.373.991a3.397 3.397 0 0 0-.983 2.394v3.384c0 .898.353 1.759.983 2.394a3.34 3.34 0 0 0 2.373.99h4.196c.667 0 1.307-.267 1.779-.743a2.546 2.546 0 0 0 .738-1.795v-5.077c0-.673-.265-1.318-.738-1.794a2.506 2.506 0 0 0-1.779-.744zM124.035 21.154c3.205 0 4.195.965 4.539 2.894a16.5 16.5 0 0 0 4.951 9.637l.176.161H107.69V21.154h16.345zm0-1.692H107.69c-.445 0-.872.178-1.187.495a1.699 1.699 0 0 0-.492 1.197v12.692c0 .449.177.88.492 1.197.315.317.742.495 1.187.495h26.011c.339.001.671-.101.951-.294.28-.193.495-.467.618-.786a1.697 1.697 0 0 0-.436-1.864l-.176-.16a14.75 14.75 0 0 1-4.431-8.657c-.604-3.825-3.624-4.316-6.192-4.316zM30.545 29.37v5.838h-1.04V29.37h1.04zM39.506 29.404v5.805h-1.334l-3.625-4.468v4.468h-1.074v-5.805h1.36l3.624 4.442v-4.442h1.049zM48.19 30.055c-.234.364-.427.643-.57.846a2.742 2.742 0 0 0-1.049-.456c-.473-.133-.96-.201-1.452-.204a2.568 2.568 0 0 0-1.157.237.698.698 0 0 0-.462.669.383.383 0 0 0 .252.338c.209.089.429.146.654.17l.906.076c.328 0 .663.067.99.118.306.052.607.131.898.237.26.085.492.24.672.449.172.215.26.485.251.761a1.84 1.84 0 0 1-.788 1.49 3.336 3.336 0 0 1-2.14.617 5.77 5.77 0 0 1-1.586-.203 3.922 3.922 0 0 1-1.04-.406 2.943 2.943 0 0 1-.537-.457l.704-.846a3.614 3.614 0 0 0 2.434.846c.208.003.415-.01.62-.042.201-.025.398-.074.588-.144a1.2 1.2 0 0 0 .453-.288.672.672 0 0 0 .168-.448.503.503 0 0 0-.26-.44 1.62 1.62 0 0 0-.671-.203 8.605 8.605 0 0 0-.907-.094l-1.007-.101a5.115 5.115 0 0 1-.906-.212 1.476 1.476 0 0 1-.68-.457 1.302 1.302 0 0 1-.251-.846 1.574 1.574 0 0 1 .839-1.379 3.825 3.825 0 0 1 2.098-.533 5.711 5.711 0 0 1 1.678.245c.451.152.876.375 1.258.66zM55.792 29.404v.981h-2.299v4.823h-1.048v-4.823h-2.24v-.981h5.587zM63.906 35.209h-1.225l-.721-1.524h-3.466l-.839 1.523H56.38l3.356-5.838h1.276l2.894 5.838zm-3.574-4.942l-1.309 2.437h2.467l-1.158-2.437zM72.197 29.404v5.805h-1.335l-3.624-4.468v4.468h-1.074v-5.805h1.359l3.625 4.442v-4.442h1.049zM80.151 29.404v.981h-2.3v4.823h-1.048v-4.823h-2.24v-.981h5.588z"/><path d="M29.655 56.692c1.826 0 3.61.546 5.128 1.569a9.292 9.292 0 0 1 3.4 4.177 9.38 9.38 0 0 1 .525 5.378 9.332 9.332 0 0 1-2.526 4.766 9.206 9.206 0 0 1-4.726 2.547 9.158 9.158 0 0 1-5.333-.53 9.247 9.247 0 0 1-4.142-3.428A9.364 9.364 0 0 1 20.425 66c0-2.469.973-4.836 2.704-6.581a9.19 9.19 0 0 1 6.526-2.727zm0-1.692c-2.157 0-4.266.645-6.06 1.854a10.98 10.98 0 0 0-4.018 4.937 11.086 11.086 0 0 0-.62 6.355 11.029 11.029 0 0 0 2.985 5.632 10.88 10.88 0 0 0 5.585 3.01c2.116.425 4.31.207 6.302-.625a10.929 10.929 0 0 0 4.896-4.052A11.066 11.066 0 0 0 40.563 66c0-2.917-1.15-5.715-3.195-7.778A10.862 10.862 0 0 0 29.655 55z"/><path d="M29.655 62.615c.664 0 1.313.199 1.865.57.552.373.982.901 1.236 1.52a3.41 3.41 0 0 1-.728 3.688 3.33 3.33 0 0 1-3.658.734 3.363 3.363 0 0 1-1.506-1.247 3.405 3.405 0 0 1 .418-4.273 3.342 3.342 0 0 1 2.373-.992zm0-1.692c-.996 0-1.969.298-2.797.856a5.068 5.068 0 0 0-1.854 2.278 5.118 5.118 0 0 0-.287 2.933 5.09 5.09 0 0 0 1.378 2.6 5.021 5.021 0 0 0 2.578 1.39 4.996 4.996 0 0 0 2.909-.29 5.044 5.044 0 0 0 2.26-1.87 5.108 5.108 0 0 0-.627-6.41 5.013 5.013 0 0 0-3.56-1.487zM126.988 56.692c1.826 0 3.61.546 5.128 1.569a9.295 9.295 0 0 1 3.4 4.177c.698 1.7.881 3.572.525 5.378a9.33 9.33 0 0 1-2.526 4.766 9.205 9.205 0 0 1-4.726 2.547 9.159 9.159 0 0 1-5.333-.53 9.249 9.249 0 0 1-4.142-3.428A9.365 9.365 0 0 1 117.759 66c0-2.469.972-4.836 2.703-6.581a9.191 9.191 0 0 1 6.526-2.727zm0-1.692c-2.157 0-4.266.645-6.06 1.854a10.974 10.974 0 0 0-4.017 4.937 11.082 11.082 0 0 0-.621 6.355 11.033 11.033 0 0 0 2.985 5.632 10.882 10.882 0 0 0 5.585 3.01c2.116.425 4.31.207 6.303-.625a10.926 10.926 0 0 0 4.895-4.052A11.064 11.064 0 0 0 137.897 66a11.05 11.05 0 0 0-3.195-7.778A10.865 10.865 0 0 0 126.988 55z"/><path d="M126.988 62.615c.664 0 1.313.199 1.865.57a3.407 3.407 0 0 1 .509 5.207 3.352 3.352 0 0 1-1.719.928 3.33 3.33 0 0 1-1.939-.193 3.365 3.365 0 0 1-1.506-1.247 3.404 3.404 0 0 1 .417-4.273 3.343 3.343 0 0 1 2.373-.992zm0-1.692c-.995 0-1.969.298-2.797.856a5.073 5.073 0 0 0-1.854 2.278 5.11 5.11 0 0 0 1.092 5.533 4.996 4.996 0 0 0 5.486 1.1 5.042 5.042 0 0 0 2.259-1.87 5.102 5.102 0 0 0 .849-2.82c0-1.347-.53-2.638-1.475-3.59a5.012 5.012 0 0 0-3.56-1.487z"/></g><path stroke="#127BF3" stroke-width="2" stroke-linecap="round" stroke-dasharray="6 6 6 6 6 6" d="M1 77h161"/><defs><clipPath id="clip0"><path fill="#fff" transform="translate(7)" d="M0 0h146v77H0z"/></clipPath></defs></svg>