<svg width="32" height="37" fill="none" xmlns="http://www.w3.org/2000/svg"><path d="M31.052 4.241S26.99.315 15.806.315C4.622.315.559 4.28.559 4.28A30.412 30.412 0 0 0 .197 9.01c0 11.82 6.316 22.157 15.609 27.285C25.099 31.126 31.414 20.83 31.414 8.97c0-1.602-.12-3.165-.362-4.728z" fill="#fff"/><path d="M26.748 6.999c.107.072.197.136.269.19.149 1.09.223 2.182.223 3.3 0 9.028-4.624 16.861-11.436 20.946C8.996 27.38 4.372 19.519 4.372 10.522c0-1.12.074-2.235.222-3.302.073-.056.164-.122.273-.196a10.81 10.81 0 0 1 1.91-1.007c1.793-.748 4.697-1.527 9.029-1.527 4.333 0 7.239.771 9.032 1.512.898.37 1.522.736 1.91.997zm.508.385l.001.001s0 0 0 0z" stroke="#127BF3" stroke-width="2"/><path d="M15.541.315c11.373 0 15.505 3.926 15.505 3.926.246 1.563.369 3.126.369 4.728 0 11.86-6.423 22.157-15.874 27.325V.314z" fill="#000" fill-opacity=".06"/><mask id="a" maskUnits="userSpaceOnUse" x="7.134" y="8.839" width="17" height="11" fill="#000"><path fill="#fff" d="M7.134 8.839h17v11h-17z"/><path d="M22.949 9.839l-8.44 4.536 2.479.02 5.96-4.556zm-9.771 7.482l2.47-1.89c-4.182.683-6.849 2.056-7.514 2.441.256 0 3.928-.045 6.663 1.488l1.962-2.317c-1.2-.014-2.398.08-3.581.28v-.002z"/><path d="M13.178 17.322l2.474-1.919c-4.182.692-6.853 2.084-7.518 2.469.256 0 3.928-.045 6.663 1.49l1.969-2.32a19.85 19.85 0 0 0-3.588.284v-.005z"/><path d="M16.988 14.394h2.033l3.928-4.555-5.961 4.555zm-3.81 2.928c1.183-.203 2.381-.3 3.581-.291l1.643-1.916c-.982.063-1.9.168-2.761.307l-2.463 1.9z"/><path d="M19.021 14.408h1.617l2.31-4.57-3.927 4.57zm-2.262 2.623a11.54 11.54 0 0 1 2.396.288l1.155-2.266c-.653 0-1.284.023-1.892.069l-1.659 1.909z"/></mask><path d="M22.949 9.839l-8.44 4.536 2.479.02 5.96-4.556zm-9.771 7.482l2.47-1.89c-4.182.683-6.849 2.056-7.514 2.441.256 0 3.928-.045 6.663 1.488l1.962-2.317c-1.2-.014-2.398.08-3.581.28v-.002z" fill="#127DF3"/><path d="M13.178 17.322l2.474-1.919c-4.182.692-6.853 2.084-7.518 2.469.256 0 3.928-.045 6.663 1.49l1.969-2.32a19.85 19.85 0 0 0-3.588.284v-.005z" fill="#127DF3"/><path d="M16.988 14.394h2.033l3.928-4.555-5.961 4.555zm-3.81 2.928c1.183-.203 2.381-.3 3.581-.291l1.643-1.916c-.982.063-1.9.168-2.761.307l-2.463 1.9z" fill="#127DF3"/><path d="M19.021 14.408h1.617l2.31-4.57-3.927 4.57zm-2.262 2.623a11.54 11.54 0 0 1 2.396.288l1.155-2.266c-.653 0-1.284.023-1.892.069l-1.659 1.909z" fill="#127DF3"/><path d="M23.01 9.918a.1.1 0 1 0-.122-.159l.121.16zm-6.083 4.397a.1.1 0 0 0 .121.159l-.121-.16zm.121.159l5.962-4.556-.122-.159-5.961 4.556.121.159zm5.9-4.635l.18.09a.2.2 0 0 0-.274-.266l.095.176zm-8.44 4.536l-.094-.176a.2.2 0 0 0 .093.376l.002-.2zm2.48.02l-.002.2h.002v-.2zm-3.81 2.927l-.123-.159a.2.2 0 0 0-.077.159h.2zm2.47-1.89l.121.158a.2.2 0 0 0-.154-.356l.033.197zm-7.514 2.44l-.1-.173a.2.2 0 0 0 .1.373v-.2zm6.663 1.488l-.098.175a.2.2 0 0 0 .251-.045l-.153-.13zm1.962-2.317l.153.129a.2.2 0 0 0-.15-.33l-.003.2zm-3.581.28h-.2a.2.2 0 0 0 .233.198l-.033-.197zm2.474-1.92l.123.158a.2.2 0 0 0-.155-.355l.032.197zm-.855 3.96l-.098.174a.2.2 0 0 0 .25-.045l-.152-.13zm1.969-2.32l.152.13a.2.2 0 0 0-.15-.33l-.002.2zm-3.588.283h-.2a.2.2 0 0 0 .233.197l-.033-.197zm5.843-2.932v.2a.2.2 0 0 0 .151-.07l-.151-.13zm-.62.72l.153.13a.2.2 0 0 0-.165-.329l.013.2zm-2.76.308l-.032-.198a.2.2 0 0 0-.09.04l.122.158zm3.38-1.014l-.152-.13a.2.2 0 0 0 .152.33v-.2zm1.617 0v.2a.2.2 0 0 0 .179-.11l-.179-.09zm-1.483 2.911l-.045.195a.2.2 0 0 0 .223-.104l-.178-.09zm1.155-2.266l.178.091a.2.2 0 0 0-.178-.29v.2zm-1.892.069l-.015-.2a.2.2 0 0 0-.136.069l.15.13zm4.436-5.46l-8.44 4.537.19.352 8.44-4.536-.19-.352zm-8.347 4.913l2.48.02.002-.4-2.479-.02-.003.4zm-1.208 2.905l2.47-1.89-.243-.317-2.47 1.89.243.317zm2.316-2.246c-4.21.687-6.899 2.07-7.581 2.465l.2.346c.648-.375 3.292-1.738 7.446-2.416l-.065-.395zm-7.481 2.838c.261 0 3.881-.041 6.566 1.463l.195-.349c-2.787-1.562-6.51-1.514-6.761-1.514v.4zm6.816 1.418l1.962-2.318-.306-.259-1.961 2.318.305.259zm1.811-2.647a20.195 20.195 0 0 0-3.617.284l.067.394a19.797 19.797 0 0 1 3.546-.278l.004-.4zm-3.383.48v-.002h-.4v.003h.4zm-.078.157l2.475-1.919-.245-.316-2.475 1.918.245.317zm2.32-2.274c-4.21.697-6.904 2.098-7.586 2.493l.2.346c.649-.376 3.297-1.757 7.45-2.445l-.064-.394zm-7.486 2.866c.261 0 3.881-.041 6.565 1.465l.196-.349c-2.787-1.564-6.51-1.516-6.761-1.516v.4zm6.816 1.42l1.968-2.32-.305-.259-1.968 2.32.305.26zm1.818-2.65a20.048 20.048 0 0 0-3.624.287l.067.394a19.66 19.66 0 0 1 3.553-.28l.004-.4zm-3.39.484v-.005h-.4v.005h.4zm3.61-2.732h2.033v-.4h-2.033v.4zm2.184-.07L23.1 9.97l-.303-.26-3.928 4.555.303.26zm-5.96 2.995a20.02 20.02 0 0 1 3.545-.288l.004-.4a20.412 20.412 0 0 0-3.617.293l.067.395zm3.699-.358l1.643-1.916-.304-.26-1.643 1.916.304.26zm1.478-2.246c-.988.064-1.912.169-2.78.31l.064.394a28.891 28.891 0 0 1 2.742-.305l-.026-.399zm-2.87.349l-2.463 1.9.244.316 2.463-1.9-.245-.316zm3.502-.656h1.617v-.4h-1.617v.4zm1.796-.11l2.31-4.569-.357-.18-2.31 4.569.357.18zm1.98-4.79l-3.928 4.57.304.26L23.1 9.97l-.304-.26zm-6.041 7.523c.792.012 1.581.106 2.354.283l.09-.39a11.74 11.74 0 0 0-2.438-.293l-.006.4zm2.577.179l1.155-2.266-.356-.182-1.155 2.266.356.182zm.977-2.557c-.657 0-1.293.023-1.907.07l.03.398a25.131 25.131 0 0 1 1.877-.068v-.4zm-2.043.138L16.608 16.9l.302.262 1.659-1.909-.302-.262z" fill="#127DF3" mask="url(#a)"/></svg>