<svg width="3365" height="3349" viewBox="0 0 3365 3349" fill="none" xmlns="http://www.w3.org/2000/svg">
<g clip-path="url(#clip0)">
<rect width="2732" height="2732" transform="translate(302 285)" fill="white"/>
<path d="M302 285H3034V3017H302V285Z" fill="#127BF3"/>
<path opacity="0.08" d="M1823 1577C1823 1662.6 1753.6 1732 1668 1732C1582.4 1732 1513 1662.6 1513 1577C1513 1491.4 1582.4 1422 1668 1422C1753.6 1422 1823 1491.4 1823 1577Z" fill="#56CCF2"/>
<path opacity="0.08" d="M1792 1577C1792 1645.48 1736.48 1701 1668 1701C1599.52 1701 1544 1645.48 1544 1577C1544 1508.52 1599.52 1453 1668 1453C1736.48 1453 1792 1508.52 1792 1577Z" fill="#56CCF2"/>
<path opacity="0.1" d="M1765 1577C1765 1630.57 1721.57 1674 1668 1674C1614.43 1674 1571 1630.57 1571 1577C1571 1523.43 1614.43 1480 1668 1480C1721.57 1480 1765 1523.43 1765 1577Z" fill="#56CCF2"/>
<g filter="url(#filter0_d)">
<circle cx="1668.26" cy="1577.26" r="61.2632" fill="url(#paint0_linear)"/>
</g>
<path d="M1692.93 1555.55C1692.93 1555.55 1686.15 1549 1667.5 1549C1648.85 1549 1642.07 1555.61 1642.07 1555.61C1641.67 1558.15 1641.47 1560.83 1641.47 1563.5C1641.47 1583.21 1652 1600.45 1667.5 1609C1683 1600.38 1693.53 1583.21 1693.53 1563.43C1693.53 1560.76 1693.33 1558.15 1692.93 1555.55Z" fill="white"/>
<path d="M1686.12 1559.59C1686.43 1559.8 1686.67 1559.98 1686.82 1560.1C1687.1 1562.04 1687.24 1563.98 1687.24 1565.97C1687.24 1581.4 1679.25 1594.79 1667.5 1601.67C1655.75 1594.85 1647.76 1581.4 1647.76 1566.02C1647.76 1564.03 1647.9 1562.05 1648.18 1560.16C1648.33 1560.03 1648.57 1559.85 1648.88 1559.64C1649.57 1559.17 1650.65 1558.53 1652.19 1557.89C1655.26 1556.61 1660.19 1555.29 1667.5 1555.29C1674.81 1555.29 1679.74 1556.6 1682.82 1557.87C1684.36 1558.5 1685.44 1559.13 1686.12 1559.59Z" stroke="#127BF3" stroke-width="2"/>
<path d="M1667.06 1549C1686.02 1549 1692.92 1555.55 1692.92 1555.55C1693.32 1558.15 1693.53 1560.76 1693.53 1563.43C1693.53 1583.21 1682.82 1600.38 1667.06 1609V1549Z" fill="black" fill-opacity="0.06"/>
<mask id="path-9-outside-1" maskUnits="userSpaceOnUse" x="1653.71" y="1563.88" width="26" height="18" fill="black">
<rect fill="white" x="1653.71" y="1563.88" width="26" height="18"/>
<path d="M1679.41 1564.88L1665.34 1572.45L1669.47 1572.48L1679.41 1564.88ZM1663.12 1577.36L1667.24 1574.21C1660.26 1575.35 1655.82 1577.64 1654.71 1578.28C1655.13 1578.28 1661.26 1578.2 1665.82 1580.76L1669.09 1576.9C1667.09 1576.87 1665.09 1577.03 1663.12 1577.36V1577.36Z"/>
<path d="M1663.12 1577.36L1667.24 1574.16C1660.27 1575.32 1655.82 1577.64 1654.71 1578.28C1655.13 1578.28 1661.26 1578.2 1665.82 1580.76L1669.1 1576.9C1667.1 1576.87 1665.09 1577.03 1663.12 1577.37V1577.36Z"/>
<path d="M1669.47 1572.48H1672.86L1679.41 1564.88L1669.47 1572.48ZM1663.12 1577.36C1665.09 1577.02 1667.09 1576.86 1669.09 1576.88L1671.83 1573.68C1670.19 1573.79 1668.66 1573.96 1667.22 1574.19L1663.12 1577.36Z"/>
<path d="M1672.86 1572.5H1675.56L1679.41 1564.88L1672.86 1572.5ZM1669.09 1576.88C1670.43 1576.9 1671.77 1577.06 1673.09 1577.36L1675.01 1573.58C1673.92 1573.58 1672.87 1573.62 1671.86 1573.69L1669.09 1576.88Z"/>
</mask>
<path d="M1679.41 1564.88L1665.34 1572.45L1669.47 1572.48L1679.41 1564.88ZM1663.12 1577.36L1667.24 1574.21C1660.26 1575.35 1655.82 1577.64 1654.71 1578.28C1655.13 1578.28 1661.26 1578.2 1665.82 1580.76L1669.09 1576.9C1667.09 1576.87 1665.09 1577.03 1663.12 1577.36V1577.36Z" fill="#127DF3"/>
<path d="M1663.12 1577.36L1667.24 1574.16C1660.27 1575.32 1655.82 1577.64 1654.71 1578.28C1655.13 1578.28 1661.26 1578.2 1665.82 1580.76L1669.1 1576.9C1667.1 1576.87 1665.09 1577.03 1663.12 1577.37V1577.36Z" fill="#127DF3"/>
<path d="M1669.47 1572.48H1672.86L1679.41 1564.88L1669.47 1572.48ZM1663.12 1577.36C1665.09 1577.02 1667.09 1576.86 1669.09 1576.88L1671.83 1573.68C1670.19 1573.79 1668.66 1573.96 1667.22 1574.19L1663.12 1577.36Z" fill="#127DF3"/>
<path d="M1672.86 1572.5H1675.56L1679.41 1564.88L1672.86 1572.5ZM1669.09 1576.88C1670.43 1576.9 1671.77 1577.06 1673.09 1577.36L1675.01 1573.58C1673.92 1573.58 1672.87 1573.62 1671.86 1573.69L1669.09 1576.88Z" fill="#127DF3"/>
<path d="M1679.47 1564.96C1679.52 1564.93 1679.52 1564.87 1679.49 1564.82C1679.46 1564.78 1679.4 1564.77 1679.35 1564.8L1679.47 1564.96ZM1669.41 1572.4C1669.37 1572.43 1669.36 1572.5 1669.39 1572.54C1669.43 1572.58 1669.49 1572.59 1669.53 1572.56L1669.41 1572.4ZM1669.53 1572.56L1679.47 1564.96L1679.35 1564.8L1669.41 1572.4L1669.53 1572.56ZM1679.41 1564.88L1679.59 1564.97C1679.63 1564.89 1679.61 1564.8 1679.55 1564.74C1679.49 1564.68 1679.39 1564.66 1679.32 1564.71L1679.41 1564.88ZM1665.34 1572.45L1665.24 1572.27C1665.16 1572.31 1665.12 1572.41 1665.14 1572.5C1665.16 1572.58 1665.24 1572.65 1665.34 1572.65L1665.34 1572.45ZM1669.47 1572.48L1669.47 1572.68H1669.47V1572.48ZM1663.12 1577.36L1662.99 1577.2C1662.95 1577.24 1662.92 1577.3 1662.92 1577.36H1663.12ZM1667.24 1574.21L1667.36 1574.37C1667.43 1574.31 1667.46 1574.21 1667.42 1574.13C1667.38 1574.04 1667.29 1574 1667.2 1574.01L1667.24 1574.21ZM1654.71 1578.28L1654.61 1578.11C1654.53 1578.15 1654.49 1578.24 1654.51 1578.33C1654.54 1578.42 1654.62 1578.48 1654.71 1578.48V1578.28ZM1665.82 1580.76L1665.72 1580.94C1665.8 1580.98 1665.91 1580.96 1665.97 1580.89L1665.82 1580.76ZM1669.09 1576.9L1669.24 1577.02C1669.29 1576.97 1669.3 1576.88 1669.27 1576.81C1669.24 1576.74 1669.17 1576.7 1669.09 1576.7L1669.09 1576.9ZM1663.12 1577.36H1662.92C1662.92 1577.42 1662.94 1577.48 1662.99 1577.52C1663.03 1577.56 1663.09 1577.57 1663.15 1577.56L1663.12 1577.36ZM1667.24 1574.16L1667.37 1574.32C1667.44 1574.26 1667.46 1574.17 1667.43 1574.08C1667.39 1574 1667.3 1573.95 1667.21 1573.96L1667.24 1574.16ZM1665.82 1580.76L1665.72 1580.94C1665.8 1580.99 1665.91 1580.97 1665.97 1580.89L1665.82 1580.76ZM1669.1 1576.9L1669.25 1577.02C1669.3 1576.97 1669.32 1576.88 1669.28 1576.81C1669.25 1576.74 1669.18 1576.7 1669.1 1576.7L1669.1 1576.9ZM1663.12 1577.37H1662.92C1662.92 1577.43 1662.94 1577.48 1662.99 1577.52C1663.03 1577.56 1663.09 1577.58 1663.15 1577.57L1663.12 1577.37ZM1672.86 1572.48V1572.68C1672.92 1572.68 1672.98 1572.65 1673.01 1572.61L1672.86 1572.48ZM1671.83 1573.68L1671.98 1573.81C1672.03 1573.75 1672.04 1573.66 1672.01 1573.59C1671.97 1573.52 1671.9 1573.48 1671.82 1573.48L1671.83 1573.68ZM1667.22 1574.19L1667.19 1574C1667.16 1574 1667.13 1574.01 1667.1 1574.03L1667.22 1574.19ZM1672.86 1572.5L1672.71 1572.37C1672.66 1572.43 1672.65 1572.51 1672.68 1572.59C1672.71 1572.66 1672.78 1572.7 1672.86 1572.7V1572.5ZM1675.56 1572.5V1572.7C1675.63 1572.7 1675.7 1572.66 1675.74 1572.59L1675.56 1572.5ZM1673.09 1577.36L1673.04 1577.55C1673.13 1577.57 1673.22 1577.53 1673.26 1577.45L1673.09 1577.36ZM1675.01 1573.58L1675.19 1573.67C1675.22 1573.61 1675.22 1573.53 1675.18 1573.47C1675.15 1573.41 1675.08 1573.38 1675.01 1573.38V1573.58ZM1671.86 1573.69L1671.84 1573.49C1671.79 1573.5 1671.74 1573.52 1671.71 1573.56L1671.86 1573.69ZM1679.32 1564.71L1665.24 1572.27L1665.43 1572.62L1679.51 1565.06L1679.32 1564.71ZM1665.34 1572.65L1669.47 1572.68L1669.47 1572.28L1665.34 1572.25L1665.34 1572.65ZM1663.24 1577.52L1667.36 1574.37L1667.11 1574.05L1663 1577.2L1663.24 1577.52ZM1667.2 1574.01C1660.2 1575.15 1655.73 1577.45 1654.61 1578.11L1654.81 1578.45C1655.9 1577.82 1660.32 1575.54 1667.27 1574.41L1667.2 1574.01ZM1654.71 1578.48C1655.14 1578.48 1661.21 1578.41 1665.72 1580.94L1665.92 1580.59C1661.3 1578 1655.13 1578.08 1654.71 1578.08V1578.48ZM1665.97 1580.89L1669.24 1577.02L1668.94 1576.77L1665.67 1580.63L1665.97 1580.89ZM1669.09 1576.7C1667.08 1576.67 1665.07 1576.83 1663.08 1577.17L1663.15 1577.56C1665.11 1577.23 1667.1 1577.07 1669.09 1577.1L1669.09 1576.7ZM1663.32 1577.36V1577.36H1662.92V1577.36H1663.32ZM1663.24 1577.52L1667.37 1574.32L1667.12 1574L1662.99 1577.2L1663.24 1577.52ZM1667.21 1573.96C1660.21 1575.12 1655.73 1577.45 1654.61 1578.11L1654.81 1578.45C1655.9 1577.82 1660.33 1575.51 1667.28 1574.36L1667.21 1573.96ZM1654.71 1578.48C1655.14 1578.48 1661.21 1578.41 1665.72 1580.94L1665.92 1580.59C1661.3 1578 1655.13 1578.08 1654.71 1578.08V1578.48ZM1665.97 1580.89L1669.25 1577.02L1668.95 1576.77L1665.67 1580.64L1665.97 1580.89ZM1669.1 1576.7C1667.09 1576.67 1665.07 1576.83 1663.08 1577.17L1663.15 1577.57C1665.12 1577.23 1667.11 1577.07 1669.1 1577.1L1669.1 1576.7ZM1663.32 1577.37V1577.36H1662.92V1577.37H1663.32ZM1669.47 1572.68H1672.86V1572.28H1669.47V1572.68ZM1673.01 1572.61L1679.56 1565.01L1679.26 1564.75L1672.71 1572.35L1673.01 1572.61ZM1663.15 1577.56C1665.11 1577.22 1667.1 1577.06 1669.09 1577.08L1669.09 1576.68C1667.08 1576.66 1665.07 1576.82 1663.08 1577.16L1663.15 1577.56ZM1669.24 1577.01L1671.98 1573.81L1671.68 1573.55L1668.94 1576.75L1669.24 1577.01ZM1671.82 1573.48C1670.17 1573.59 1668.64 1573.76 1667.19 1574L1667.26 1574.39C1668.69 1574.16 1670.21 1573.99 1671.84 1573.88L1671.82 1573.48ZM1667.1 1574.03L1663 1577.2L1663.24 1577.52L1667.35 1574.35L1667.1 1574.03ZM1672.86 1572.7H1675.56V1572.3H1672.86V1572.7ZM1675.74 1572.59L1679.59 1564.97L1679.23 1564.79L1675.38 1572.41L1675.74 1572.59ZM1679.26 1564.75L1672.71 1572.37L1673.01 1572.63L1679.56 1565.01L1679.26 1564.75ZM1669.09 1577.08C1670.42 1577.1 1671.74 1577.26 1673.04 1577.55L1673.13 1577.16C1671.8 1576.86 1670.45 1576.7 1669.09 1576.68L1669.09 1577.08ZM1673.26 1577.45L1675.19 1573.67L1674.83 1573.49L1672.91 1577.27L1673.26 1577.45ZM1675.01 1573.38C1673.92 1573.38 1672.86 1573.42 1671.84 1573.49L1671.87 1573.89C1672.88 1573.82 1673.93 1573.78 1675.01 1573.78V1573.38ZM1671.71 1573.56L1668.94 1576.74L1669.24 1577.01L1672.01 1573.82L1671.71 1573.56Z" fill="#127DF3" mask="url(#path-9-outside-1)"/>
<path d="M1619.11 1662.26V1673.55H1617V1662.26H1619.11Z" fill="white"/>
<path d="M1637.22 1662.32V1673.55H1634.53L1627.2 1664.91V1673.55H1625.03V1662.32H1627.78L1635.11 1670.91V1662.32H1637.22Z" fill="white"/>
<path d="M1654.78 1663.58C1654.3 1664.29 1653.92 1664.83 1653.63 1665.22C1653.2 1664.87 1652.49 1664.58 1651.5 1664.34C1650.51 1664.08 1649.53 1663.95 1648.57 1663.95C1647.63 1663.95 1646.84 1664.1 1646.22 1664.4C1645.6 1664.69 1645.29 1665.12 1645.29 1665.7C1645.29 1665.97 1645.47 1666.19 1645.81 1666.35C1646.15 1666.5 1646.59 1666.61 1647.13 1666.67C1647.69 1666.73 1648.3 1666.78 1648.96 1666.83C1649.63 1666.87 1650.3 1666.95 1650.96 1667.06C1651.63 1667.16 1652.24 1667.31 1652.78 1667.5C1653.34 1667.69 1653.79 1667.98 1654.13 1668.38C1654.47 1668.78 1654.64 1669.27 1654.64 1669.86C1654.64 1670.98 1654.11 1671.94 1653.05 1672.74C1652 1673.53 1650.55 1673.92 1648.72 1673.92C1647.55 1673.92 1646.48 1673.79 1645.52 1673.54C1644.57 1673.28 1643.87 1673.02 1643.42 1672.75C1642.99 1672.47 1642.62 1672.18 1642.33 1671.87L1643.76 1670.29C1645.11 1671.41 1646.75 1671.97 1648.67 1671.97C1649.11 1671.97 1649.53 1671.94 1649.93 1671.89C1650.35 1671.82 1650.75 1671.73 1651.12 1671.6C1651.5 1671.46 1651.81 1671.27 1652.03 1671.04C1652.25 1670.79 1652.37 1670.51 1652.37 1670.18C1652.37 1669.81 1652.19 1669.53 1651.84 1669.33C1651.5 1669.13 1651.05 1668.99 1650.49 1668.93C1649.94 1668.85 1649.33 1668.79 1648.65 1668.75C1647.98 1668.71 1647.31 1668.65 1646.62 1668.56C1645.95 1668.46 1645.34 1668.33 1644.78 1668.14C1644.23 1667.96 1643.77 1667.67 1643.42 1667.26C1643.08 1666.85 1642.91 1666.33 1642.91 1665.7C1642.91 1664.59 1643.47 1663.7 1644.59 1663.02C1645.71 1662.34 1647.12 1662 1648.83 1662C1650.11 1662 1651.27 1662.16 1652.3 1662.48C1653.34 1662.8 1654.16 1663.17 1654.78 1663.58Z" fill="white"/>
<path d="M1670.15 1662.32V1664.22H1665.5V1673.55H1663.38V1664.22H1658.86V1662.32H1670.15Z" fill="white"/>
<path d="M1686.55 1673.55H1684.07L1682.61 1670.61H1675.6L1673.94 1673.55H1671.36L1678.11 1662.26H1680.69L1686.55 1673.55ZM1679.33 1664L1676.67 1668.7H1681.67L1679.33 1664Z" fill="white"/>
<path d="M1703.3 1662.32V1673.55H1700.61L1693.29 1664.91V1673.55H1691.11V1662.32H1693.86L1701.19 1670.91V1662.32H1703.3Z" fill="white"/>
<path d="M1719.39 1662.32V1664.22H1714.74V1673.55H1712.62V1664.22H1708.1V1662.32H1719.39Z" fill="white"/>
<ellipse opacity="0.04" cx="1635" cy="2002.5" rx="213" ry="213.5" transform="rotate(-180 1635 2002.5)" fill="white"/>
<ellipse opacity="0.04" cx="1635" cy="2002.5" rx="152" ry="152.5" transform="rotate(-180 1635 2002.5)" fill="white"/>
<ellipse opacity="0.04" cx="1635" cy="2002.5" rx="89" ry="89.5" transform="rotate(-180 1635 2002.5)" fill="white"/>
<ellipse opacity="0.04" cx="2125" cy="1732.5" rx="213" ry="213.5" transform="rotate(-180 2125 1732.5)" fill="white"/>
<ellipse opacity="0.04" cx="2125" cy="1732.5" rx="152" ry="152.5" transform="rotate(-180 2125 1732.5)" fill="white"/>
<ellipse opacity="0.04" cx="2125" cy="1732.5" rx="89" ry="89.5" transform="rotate(-180 2125 1732.5)" fill="white"/>
<ellipse opacity="0.04" cx="1064" cy="1796.5" rx="213" ry="213.5" transform="rotate(-180 1064 1796.5)" fill="white"/>
<ellipse opacity="0.04" cx="1064" cy="1796.5" rx="152" ry="152.5" transform="rotate(-180 1064 1796.5)" fill="white"/>
<ellipse opacity="0.04" cx="1064" cy="1796.5" rx="89" ry="89.5" transform="rotate(-180 1064 1796.5)" fill="white"/>
<ellipse opacity="0.04" cx="2095" cy="2268.5" rx="213" ry="213.5" transform="rotate(-180 2095 2268.5)" fill="white"/>
<ellipse opacity="0.04" cx="2095" cy="2268.5" rx="152" ry="152.5" transform="rotate(-180 2095 2268.5)" fill="white"/>
<ellipse opacity="0.04" cx="2095" cy="2268.5" rx="89" ry="89.5" transform="rotate(-180 2095 2268.5)" fill="white"/>
<ellipse opacity="0.04" cx="1133" cy="2358.5" rx="213" ry="213.5" transform="rotate(-180 1133 2358.5)" fill="white"/>
<ellipse opacity="0.04" cx="1133" cy="2358.5" rx="152" ry="152.5" transform="rotate(-180 1133 2358.5)" fill="white"/>
<ellipse opacity="0.04" cx="1133" cy="2358.5" rx="89" ry="89.5" transform="rotate(-180 1133 2358.5)" fill="white"/>
<ellipse opacity="0.04" cx="1635" cy="2610.5" rx="213" ry="213.5" transform="rotate(-180 1635 2610.5)" fill="white"/>
<ellipse opacity="0.04" cx="1635" cy="2610.5" rx="152" ry="152.5" transform="rotate(-180 1635 2610.5)" fill="white"/>
<ellipse opacity="0.04" cx="1635" cy="2610.5" rx="89" ry="89.5" transform="rotate(-180 1635 2610.5)" fill="white"/>
<ellipse opacity="0.04" cx="2186" cy="2803.5" rx="213" ry="213.5" transform="rotate(-180 2186 2803.5)" fill="white"/>
<ellipse opacity="0.04" cx="2186" cy="2803.5" rx="152" ry="152.5" transform="rotate(-180 2186 2803.5)" fill="white"/>
<ellipse opacity="0.04" cx="2186" cy="2803.5" rx="89" ry="89.5" transform="rotate(-180 2186 2803.5)" fill="white"/>
<ellipse opacity="0.04" cx="2677" cy="2458.5" rx="213" ry="213.5" transform="rotate(-180 2677 2458.5)" fill="white"/>
<ellipse opacity="0.04" cx="2677" cy="2458.5" rx="152" ry="152.5" transform="rotate(-180 2677 2458.5)" fill="white"/>
<ellipse opacity="0.04" cx="2677" cy="2458.5" rx="89" ry="89.5" transform="rotate(-180 2677 2458.5)" fill="white"/>
<ellipse opacity="0.04" cx="2684" cy="1885.5" rx="213" ry="213.5" transform="rotate(-180 2684 1885.5)" fill="white"/>
<ellipse opacity="0.04" cx="2684" cy="1885.5" rx="152" ry="152.5" transform="rotate(-180 2684 1885.5)" fill="white"/>
<ellipse opacity="0.04" cx="2684" cy="1885.5" rx="89" ry="89.5" transform="rotate(-180 2684 1885.5)" fill="white"/>
<ellipse opacity="0.04" cx="2493" cy="1329.5" rx="213" ry="213.5" transform="rotate(-180 2493 1329.5)" fill="white"/>
<ellipse opacity="0.04" cx="2493" cy="1329.5" rx="152" ry="152.5" transform="rotate(-180 2493 1329.5)" fill="white"/>
<ellipse opacity="0.04" cx="2493" cy="1329.5" rx="89" ry="89.5" transform="rotate(-180 2493 1329.5)" fill="white"/>
<ellipse opacity="0.04" cx="2999" cy="1087.5" rx="213" ry="213.5" transform="rotate(-180 2999 1087.5)" fill="white"/>
<ellipse opacity="0.04" cx="2999" cy="1087.5" rx="152" ry="152.5" transform="rotate(-180 2999 1087.5)" fill="white"/>
<ellipse opacity="0.04" cx="2999" cy="1087.5" rx="89" ry="89.5" transform="rotate(-180 2999 1087.5)" fill="white"/>
<ellipse opacity="0.04" cx="1943" cy="1239.5" rx="213" ry="213.5" transform="rotate(-180 1943 1239.5)" fill="white"/>
<ellipse opacity="0.04" cx="1943" cy="1239.5" rx="152" ry="152.5" transform="rotate(-180 1943 1239.5)" fill="white"/>
<ellipse opacity="0.04" cx="1943" cy="1239.5" rx="89" ry="89.5" transform="rotate(-180 1943 1239.5)" fill="white"/>
<ellipse opacity="0.04" cx="1376" cy="1279.5" rx="213" ry="213.5" transform="rotate(-180 1376 1279.5)" fill="white"/>
<ellipse opacity="0.04" cx="1376" cy="1279.5" rx="152" ry="152.5" transform="rotate(-180 1376 1279.5)" fill="white"/>
<ellipse opacity="0.04" cx="1376" cy="1279.5" rx="89" ry="89.5" transform="rotate(-180 1376 1279.5)" fill="white"/>
<ellipse opacity="0.04" cx="899" cy="2938.5" rx="213" ry="213.5" transform="rotate(-180 899 2938.5)" fill="white"/>
<ellipse opacity="0.04" cx="899" cy="2938.5" rx="152" ry="152.5" transform="rotate(-180 899 2938.5)" fill="white"/>
<ellipse opacity="0.04" cx="899" cy="2938.5" rx="89" ry="89.5" transform="rotate(-180 899 2938.5)" fill="white"/>
<ellipse opacity="0.04" cx="598" cy="1437.5" rx="213" ry="213.5" transform="rotate(-180 598 1437.5)" fill="white"/>
<ellipse opacity="0.04" cx="598" cy="1437.5" rx="152" ry="152.5" transform="rotate(-180 598 1437.5)" fill="white"/>
<ellipse opacity="0.04" cx="598" cy="1437.5" rx="89" ry="89.5" transform="rotate(-180 598 1437.5)" fill="white"/>
<ellipse opacity="0.04" cx="902" cy="950.5" rx="213" ry="213.5" transform="rotate(-180 902 950.5)" fill="white"/>
<ellipse opacity="0.04" cx="902" cy="950.5" rx="152" ry="152.5" transform="rotate(-180 902 950.5)" fill="white"/>
<ellipse opacity="0.04" cx="902" cy="950.5" rx="89" ry="89.5" transform="rotate(-180 902 950.5)" fill="white"/>
<ellipse opacity="0.04" cx="419" cy="479.5" rx="213" ry="213.5" transform="rotate(-180 419 479.5)" fill="white"/>
<ellipse opacity="0.04" cx="419" cy="479.5" rx="152" ry="152.5" transform="rotate(-180 419 479.5)" fill="white"/>
<ellipse opacity="0.04" cx="419" cy="479.5" rx="89" ry="89.5" transform="rotate(-180 419 479.5)" fill="white"/>
<ellipse opacity="0.04" cx="1011" cy="431.5" rx="213" ry="213.5" transform="rotate(-180 1011 431.5)" fill="white"/>
<ellipse opacity="0.04" cx="1011" cy="431.5" rx="152" ry="152.5" transform="rotate(-180 1011 431.5)" fill="white"/>
<ellipse opacity="0.04" cx="1011" cy="431.5" rx="89" ry="89.5" transform="rotate(-180 1011 431.5)" fill="white"/>
<ellipse opacity="0.04" cx="1506" cy="763.5" rx="213" ry="213.5" transform="rotate(-180 1506 763.5)" fill="white"/>
<ellipse opacity="0.04" cx="1506" cy="763.5" rx="152" ry="152.5" transform="rotate(-180 1506 763.5)" fill="white"/>
<ellipse opacity="0.04" cx="1506" cy="763.5" rx="89" ry="89.5" transform="rotate(-180 1506 763.5)" fill="white"/>
<ellipse opacity="0.04" cx="2156" cy="764.5" rx="213" ry="213.5" transform="rotate(-180 2156 764.5)" fill="white"/>
<ellipse opacity="0.04" cx="2156" cy="764.5" rx="152" ry="152.5" transform="rotate(-180 2156 764.5)" fill="white"/>
<ellipse opacity="0.04" cx="2156" cy="764.5" rx="89" ry="89.5" transform="rotate(-180 2156 764.5)" fill="white"/>
<ellipse opacity="0.04" cx="2677" cy="634.5" rx="213" ry="213.5" transform="rotate(-180 2677 634.5)" fill="white"/>
<ellipse opacity="0.04" cx="2677" cy="634.5" rx="152" ry="152.5" transform="rotate(-180 2677 634.5)" fill="white"/>
<ellipse opacity="0.04" cx="2677" cy="634.5" rx="89" ry="89.5" transform="rotate(-180 2677 634.5)" fill="white"/>
<ellipse opacity="0.04" cx="369" cy="1913.5" rx="213" ry="213.5" transform="rotate(-180 369 1913.5)" fill="white"/>
<ellipse opacity="0.04" cx="369" cy="1913.5" rx="152" ry="152.5" transform="rotate(-180 369 1913.5)" fill="white"/>
<ellipse opacity="0.04" cx="369" cy="1913.5" rx="89" ry="89.5" transform="rotate(-180 369 1913.5)" fill="white"/>
</g>
<ellipse opacity="0.04" cx="3048" cy="213.5" rx="213" ry="213.5" transform="rotate(-180 3048 213.5)" fill="white"/>
<ellipse opacity="0.04" cx="3048" cy="213.5" rx="152" ry="152.5" transform="rotate(-180 3048 213.5)" fill="white"/>
<ellipse opacity="0.04" cx="3048" cy="213.5" rx="89" ry="89.5" transform="rotate(-180 3048 213.5)" fill="white"/>
<ellipse opacity="0.04" cx="2290" cy="239.5" rx="213" ry="213.5" transform="rotate(-180 2290 239.5)" fill="white"/>
<ellipse opacity="0.04" cx="2290" cy="239.5" rx="152" ry="152.5" transform="rotate(-180 2290 239.5)" fill="white"/>
<ellipse opacity="0.04" cx="2290" cy="239.5" rx="89" ry="89.5" transform="rotate(-180 2290 239.5)" fill="white"/>
<ellipse opacity="0.04" cx="1730" cy="239.5" rx="213" ry="213.5" transform="rotate(-180 1730 239.5)" fill="white"/>
<ellipse opacity="0.04" cx="1730" cy="239.5" rx="152" ry="152.5" transform="rotate(-180 1730 239.5)" fill="white"/>
<ellipse opacity="0.04" cx="1730" cy="239.5" rx="89" ry="89.5" transform="rotate(-180 1730 239.5)" fill="white"/>
<ellipse opacity="0.04" cx="213" cy="1003.5" rx="213" ry="213.5" transform="rotate(-180 213 1003.5)" fill="white"/>
<ellipse opacity="0.04" cx="213" cy="1003.5" rx="152" ry="152.5" transform="rotate(-180 213 1003.5)" fill="white"/>
<ellipse opacity="0.04" cx="213" cy="1003.5" rx="89" ry="89.5" transform="rotate(-180 213 1003.5)" fill="white"/>
<ellipse opacity="0.04" cx="337" cy="2885.5" rx="213" ry="213.5" transform="rotate(-180 337 2885.5)" fill="white"/>
<ellipse opacity="0.04" cx="337" cy="2885.5" rx="152" ry="152.5" transform="rotate(-180 337 2885.5)" fill="white"/>
<ellipse opacity="0.04" cx="337" cy="2885.5" rx="89" ry="89.5" transform="rotate(-180 337 2885.5)" fill="white"/>
<ellipse opacity="0.04" cx="598" cy="2366.5" rx="213" ry="213.5" transform="rotate(-180 598 2366.5)" fill="white"/>
<ellipse opacity="0.04" cx="598" cy="2366.5" rx="152" ry="152.5" transform="rotate(-180 598 2366.5)" fill="white"/>
<ellipse opacity="0.04" cx="598" cy="2366.5" rx="89" ry="89.5" transform="rotate(-180 598 2366.5)" fill="white"/>
<ellipse opacity="0.04" cx="3152" cy="1546.5" rx="213" ry="213.5" transform="rotate(-180 3152 1546.5)" fill="white"/>
<ellipse opacity="0.04" cx="3152" cy="1546.5" rx="152" ry="152.5" transform="rotate(-180 3152 1546.5)" fill="white"/>
<ellipse opacity="0.04" cx="3152" cy="1546.5" rx="89" ry="89.5" transform="rotate(-180 3152 1546.5)" fill="white"/>
<ellipse opacity="0.04" cx="3091" cy="2803.5" rx="213" ry="213.5" transform="rotate(-180 3091 2803.5)" fill="white"/>
<ellipse opacity="0.04" cx="3091" cy="2803.5" rx="152" ry="152.5" transform="rotate(-180 3091 2803.5)" fill="white"/>
<ellipse opacity="0.04" cx="3091" cy="2803.5" rx="89" ry="89.5" transform="rotate(-180 3091 2803.5)" fill="white"/>
<ellipse opacity="0.04" cx="2622" cy="3058.5" rx="213" ry="213.5" transform="rotate(-180 2622 3058.5)" fill="white"/>
<ellipse opacity="0.04" cx="2622" cy="3058.5" rx="152" ry="152.5" transform="rotate(-180 2622 3058.5)" fill="white"/>
<ellipse opacity="0.04" cx="2622" cy="3058.5" rx="89" ry="89.5" transform="rotate(-180 2622 3058.5)" fill="white"/>
<ellipse opacity="0.04" cx="1455" cy="3135.5" rx="213" ry="213.5" transform="rotate(-180 1455 3135.5)" fill="white"/>
<ellipse opacity="0.04" cx="1455" cy="3135.5" rx="152" ry="152.5" transform="rotate(-180 1455 3135.5)" fill="white"/>
<ellipse opacity="0.04" cx="1455" cy="3135.5" rx="89" ry="89.5" transform="rotate(-180 1455 3135.5)" fill="white"/>
<defs>
<filter id="filter0_d" x="1595" y="1504" width="146.526" height="146.526" filterUnits="userSpaceOnUse" color-interpolation-filters="sRGB">
<feFlood flood-opacity="0" result="BackgroundImageFix"/>
<feColorMatrix in="SourceAlpha" type="matrix" values="0 0 0 0 0 0 0 0 0 0 0 0 0 0 0 0 0 0 127 0"/>
<feOffset/>
<feGaussianBlur stdDeviation="6"/>
<feColorMatrix type="matrix" values="0 0 0 0 0 0 0 0 0 0 0 0 0 0 0 0 0 0 0.12 0"/>
<feBlend mode="normal" in2="BackgroundImageFix" result="effect1_dropShadow"/>
<feBlend mode="normal" in="SourceGraphic" in2="effect1_dropShadow" result="shape"/>
</filter>
<linearGradient id="paint0_linear" x1="1666.84" y1="1450.46" x2="1666.84" y2="1678.42" gradientUnits="userSpaceOnUse">
<stop stop-color="#1052F3"/>
<stop offset="1" stop-color="#15DCF4"/>
</linearGradient>
<clipPath id="clip0">
<rect width="2732" height="2732" fill="white" transform="translate(302 285)"/>
</clipPath>
</defs>
</svg>
