<svg width="103" height="12" fill="none" xmlns="http://www.w3.org/2000/svg"><path d="M2.112.256v11.296H0V.256h2.112zM20.22.32v11.232h-2.688l-7.328-8.64v8.64H8.028V.32h2.752l7.328 8.592V.32h2.112zM37.782 1.584c-.48.704-.864 1.248-1.152 1.632-.426-.341-1.136-.635-2.128-.88a11.687 11.687 0 0 0-2.928-.384c-.949 0-1.733.15-2.352.448-.618.288-.928.72-.928 1.296 0 .277.171.496.512.656.342.15.784.256 1.328.32.555.053 1.163.107 1.824.16.672.043 1.339.117 2 .224.672.107 1.28.256 1.824.448.555.181 1.003.475 1.344.88.342.395.512.885.512 1.472 0 1.12-.528 2.08-1.584 2.88-1.056.79-2.501 1.184-4.336 1.184-1.173 0-2.24-.128-3.2-.384-.949-.256-1.648-.517-2.096-.784a5.5 5.5 0 0 1-1.088-.88l1.424-1.584c1.355 1.12 2.992 1.68 4.912 1.68.438 0 .859-.027 1.264-.08.416-.064.811-.16 1.184-.288.384-.139.688-.325.912-.56a1.24 1.24 0 0 0 .336-.864c0-.363-.176-.645-.528-.848-.341-.203-.789-.336-1.344-.4a26.422 26.422 0 0 0-1.84-.176 33.489 33.489 0 0 1-2.032-.192 10.876 10.876 0 0 1-1.84-.416 2.988 2.988 0 0 1-1.36-.88c-.341-.416-.512-.939-.512-1.568 0-1.11.56-2 1.68-2.672C28.71.341 30.124 0 31.83 0c1.28 0 2.438.16 3.472.48 1.035.32 1.862.688 2.48 1.104zM53.151.32v1.904h-4.656v9.328h-2.112V2.224h-4.528V.32h11.296zM69.546 11.552h-2.48L65.61 8.608h-7.008l-1.664 2.944h-2.576L61.114.256h2.576l5.856 11.296zM62.33 2l-2.656 4.704h4.992L62.33 2zM86.301.32v11.232h-2.688l-7.328-8.64v8.64H74.11V.32h2.752l7.328 8.592V.32h2.112zM102.392.32v1.904h-4.656v9.328h-2.112V2.224h-4.528V.32h11.296z" fill="#3D4045"/></svg>