<svg width="147" height="170" fill="none" xmlns="http://www.w3.org/2000/svg"><g filter="url(#filter0_d)"><circle cx="73.263" cy="73.263" r="61.263" fill="url(#paint0_linear)"/></g><path d="M97.926 51.548S91.15 45 72.5 45s-25.425 6.615-25.425 6.615a50.717 50.717 0 0 0-.604 7.884c0 19.71 10.532 36.949 26.03 45.501 15.496-8.62 26.028-25.79 26.028-45.568 0-2.672-.2-5.278-.603-7.884z" fill="#fff"/><path d="M91.12 55.592c.315.211.545.387.7.511.277 1.937.416 3.877.416 5.864 0 15.434-7.984 28.827-19.738 35.704-11.75-6.826-19.733-20.269-19.733-35.65 0-1.988.139-3.973.415-5.866.154-.125.386-.304.703-.52.684-.465 1.764-1.1 3.304-1.743 3.076-1.283 8.008-2.598 15.313-2.598 7.307 0 12.24 1.302 15.317 2.572 1.54.636 2.62 1.266 3.304 1.726z" stroke="#127BF3" stroke-width="2"/><path d="M72.059 45c18.966 0 25.856 6.548 25.856 6.548.41 2.606.614 5.212.614 7.884 0 19.777-10.71 36.949-26.47 45.568V45z" fill="#000" fill-opacity=".06"/><mask id="a" maskUnits="userSpaceOnUse" x="58.706" y="59.882" width="26" height="18" fill="#000"><path fill="#fff" d="M58.706 59.882h26v18h-26z"/><path d="M84.412 60.882l-14.075 7.565 4.134.032 9.94-7.597zM68.117 73.361l4.12-3.153c-6.975 1.14-11.421 3.428-12.53 4.07.427 0 6.55-.074 11.111 2.483l3.272-3.865c-2-.024-4 .133-5.973.468v-.004z"/><path d="M68.117 73.36l4.127-3.199c-6.974 1.155-11.428 3.475-12.538 4.117.428 0 6.55-.074 11.112 2.487l3.283-3.87a33.105 33.105 0 0 0-5.984.473v-.007z"/><path d="M74.471 68.479h3.39l6.55-7.597-9.94 7.597zm-6.354 4.882c1.974-.34 3.972-.501 5.973-.485l2.74-3.196a48.46 48.46 0 0 0-4.605.513l-4.108 3.168z"/><path d="M77.862 68.502h2.697l3.853-7.62-6.55 7.62zm-3.772 4.374c1.344.02 2.683.18 3.995.48l1.927-3.778c-1.09 0-2.141.038-3.156.114l-2.766 3.184z"/></mask><path d="M84.412 60.882l-14.075 7.565 4.134.032 9.94-7.597zM68.117 73.361l4.12-3.153c-6.975 1.14-11.421 3.428-12.53 4.07.427 0 6.55-.074 11.111 2.483l3.272-3.865c-2-.024-4 .133-5.973.468v-.004z" fill="#127DF3"/><path d="M68.117 73.36l4.127-3.199c-6.974 1.155-11.428 3.475-12.538 4.117.428 0 6.55-.074 11.112 2.487l3.283-3.87a33.105 33.105 0 0 0-5.984.473v-.007z" fill="#127DF3"/><path d="M74.471 68.479h3.39l6.55-7.597-9.94 7.597zm-6.354 4.882c1.974-.34 3.972-.501 5.973-.485l2.74-3.196a48.46 48.46 0 0 0-4.605.513l-4.108 3.168z" fill="#127DF3"/><path d="M77.862 68.502h2.697l3.853-7.62-6.55 7.62zm-3.772 4.374c1.344.02 2.683.18 3.995.48l1.927-3.778c-1.09 0-2.141.038-3.156.114l-2.766 3.184z" fill="#127DF3"/><path d="M84.473 60.962a.1.1 0 0 0-.122-.16l.122.16zM74.41 68.399a.1.1 0 1 0 .122.16l-.122-.16zm.122.16l9.94-7.597-.12-.16L74.41 68.4l.122.16zm9.88-7.677l.178.09a.2.2 0 0 0-.273-.266l.095.176zm-14.075 7.565l-.095-.176a.2.2 0 0 0 .093.376l.002-.2zm4.134.032l-.002.2h.002v-.2zm-6.354 4.882l-.122-.159a.2.2 0 0 0-.078.159h.2zm4.12-3.153l.12.16a.2.2 0 0 0-.153-.357l.032.197zm-12.53 4.07l-.101-.173a.2.2 0 0 0 .1.373v-.2zm11.111 2.483l-.097.174a.2.2 0 0 0 .25-.045l-.153-.13zm3.272-3.865l.152.129a.2.2 0 0 0-.15-.33l-.002.2zm-5.973.468h-.2a.2.2 0 0 0 .234.198l-.034-.198zm4.127-3.203l.123.158a.2.2 0 0 0-.156-.355l.033.197zm-1.426 6.604l-.098.174a.2.2 0 0 0 .25-.045l-.152-.13zm3.283-3.87l.153.13a.2.2 0 0 0-.15-.33l-.003.2zm-5.984.473h-.2a.2.2 0 0 0 .234.198l-.034-.198zm9.745-4.89v.2a.2.2 0 0 0 .151-.069l-.151-.13zm-1.033 1.203l.152.13a.2.2 0 0 0-.165-.33l.013.2zm-4.604.512l-.032-.198a.2.2 0 0 0-.09.04l.122.158zm5.637-1.69l-.152-.131a.2.2 0 0 0 .152.33v-.2zm2.697 0v.2a.2.2 0 0 0 .178-.11l-.178-.09zm-2.474 4.853l-.044.196a.2.2 0 0 0 .222-.105l-.178-.09zm1.927-3.778l.178.09a.2.2 0 0 0-.178-.29v.2zm-3.156.114l-.015-.2a.2.2 0 0 0-.136.07l.151.13zm7.461-8.986l-14.075 7.565.19.352 14.075-7.565-.19-.352zm-13.982 7.941l4.135.032.002-.4-4.134-.032-.003.4zM68.24 73.52l4.119-3.152-.243-.317-4.12 3.152.244.317zm3.965-3.508c-7.002 1.143-11.471 3.442-12.598 4.094l.2.347c1.093-.633 5.516-2.912 12.463-4.046l-.065-.395zm-12.498 4.468c.433 0 6.504-.072 11.014 2.456l.196-.349C66.302 74 60.13 74.08 59.706 74.08v.4zm11.265 2.41l3.271-3.864-.305-.259-3.271 3.865.305.259zm3.12-4.194a33.538 33.538 0 0 0-6.007.472l.067.395a33.138 33.138 0 0 1 5.936-.466l.005-.4zm-5.774.67v-.004h-.4v.003h.4zm-.077.154l4.127-3.2-.246-.316-4.126 3.2.245.316zm3.971-3.555c-7.002 1.159-11.479 3.49-12.605 4.141l.2.347c1.093-.633 5.525-2.944 12.47-4.093l-.065-.395zm-12.505 4.514c.433 0 6.504-.071 11.014 2.461l.196-.349C66.302 74 60.13 74.08 59.706 74.08v.4zm11.265 2.416l3.283-3.87-.305-.258-3.283 3.87.305.258zm3.132-4.198a33.312 33.312 0 0 0-6.02.475l.068.394a32.914 32.914 0 0 1 5.948-.47l.004-.4zm-5.786.672v-.007h-.4v.007h.4zm6.154-4.69h3.39v-.4h-3.39v.4zm3.542-.069l6.55-7.596-.303-.261-6.55 7.596.303.261zm-9.862 4.949a33.526 33.526 0 0 1 5.937-.482l.003-.4a33.925 33.925 0 0 0-6.007.487l.067.395zm6.09-.552l2.74-3.195-.304-.26-2.74 3.195.304.26zm2.575-3.525c-1.643.107-3.18.28-4.623.514l.064.395a48.301 48.301 0 0 1 4.585-.51l-.026-.4zm-4.713.553l-4.108 3.168.244.317 4.108-3.168-.244-.317zm5.759-1.332h2.697v-.4h-2.697v.4zm2.875-.11l3.853-7.62-.356-.18-3.854 7.62.357.18zm3.523-7.84l-6.55 7.62.303.26 6.55-7.62-.303-.26zM74.087 73.076c1.33.02 2.655.179 3.954.476l.089-.39a19.435 19.435 0 0 0-4.037-.486l-.006.4zm4.176.371l1.927-3.778-.356-.182-1.927 3.779.356.181zm1.749-4.069c-1.094 0-2.15.038-3.17.115l.029.399a41.962 41.962 0 0 1 3.14-.114v-.4zm-3.307.183l-2.766 3.184.302.262 2.766-3.184-.302-.262z" fill="#127DF3" mask="url(#a)"/><path d="M24.112 158.256v11.296H22v-11.296h2.112zM42.22 158.32v11.232h-2.688l-7.328-8.64v8.64h-2.176V158.32h2.752l7.328 8.592v-8.592h2.112zM59.782 159.584c-.48.704-.864 1.248-1.152 1.632-.426-.341-1.136-.635-2.128-.88a11.687 11.687 0 0 0-2.928-.384c-.949 0-1.733.149-2.352.448-.618.288-.928.72-.928 1.296 0 .277.171.496.512.656.342.149.784.256 1.328.32.555.053 1.163.107 1.824.16.672.043 1.339.117 2 .224.672.107 1.28.256 1.824.448.555.181 1.003.475 1.344.88.342.395.512.885.512 1.472 0 1.12-.528 2.08-1.584 2.88-1.056.789-2.501 1.184-4.336 1.184-1.173 0-2.24-.128-3.2-.384-.949-.256-1.648-.517-2.096-.784a5.5 5.5 0 0 1-1.088-.88l1.424-1.584c1.355 1.12 2.992 1.68 4.912 1.68.438 0 .859-.027 1.264-.08.416-.064.811-.16 1.184-.288.384-.139.688-.325.912-.56.224-.245.336-.533.336-.864 0-.363-.176-.645-.528-.848-.341-.203-.789-.336-1.344-.4a26.422 26.422 0 0 0-1.84-.176 34.028 34.028 0 0 1-2.032-.192 10.908 10.908 0 0 1-1.84-.416 2.988 2.988 0 0 1-1.36-.88c-.341-.416-.512-.939-.512-1.568 0-1.109.56-2 1.68-2.672 1.12-.683 2.534-1.024 4.24-1.024 1.28 0 2.438.16 3.472.48 1.035.32 1.862.688 2.48 1.104zM75.151 158.32v1.904h-4.656v9.328h-2.112v-9.328h-4.528v-1.904h11.296zM91.546 169.552h-2.48l-1.456-2.944h-7.008l-1.664 2.944h-2.576l6.752-11.296h2.576l5.856 11.296zM84.33 160l-2.656 4.704h4.992L84.33 160zM108.301 158.32v11.232h-2.688l-7.328-8.64v8.64H96.11V158.32h2.752l7.328 8.592v-8.592h2.112zM124.392 158.32v1.904h-4.656v9.328h-2.112v-9.328h-4.528v-1.904h11.296z" fill="#127BF3"/><defs><filter id="filter0_d" x="0" y="0" width="146.526" height="146.526" filterUnits="userSpaceOnUse" color-interpolation-filters="sRGB"><feFlood flood-opacity="0" result="BackgroundImageFix"/><feColorMatrix in="SourceAlpha" values="0 0 0 0 0 0 0 0 0 0 0 0 0 0 0 0 0 0 127 0"/><feOffset/><feGaussianBlur stdDeviation="6"/><feColorMatrix values="0 0 0 0 0 0 0 0 0 0 0 0 0 0 0 0 0 0 0.12 0"/><feBlend in2="BackgroundImageFix" result="effect1_dropShadow"/><feBlend in="SourceGraphic" in2="effect1_dropShadow" result="shape"/></filter><linearGradient id="paint0_linear" x1="71.838" y1="-53.537" x2="71.838" y2="174.419" gradientUnits="userSpaceOnUse"><stop stop-color="#1052F3"/><stop offset="1" stop-color="#15DCF4"/></linearGradient></defs></svg>