<svg width="264" height="264" fill="none" xmlns="http://www.w3.org/2000/svg"><rect x="113" y="145.016" width="40" height="4" rx="2" fill="#D0D7E1"/><rect x="107" y="152.016" width="52" height="2" rx="1" fill="#D0D7E1"/><rect x="122" y="156.016" width="22" height="2" rx="1" fill="#D0D7E1"/><path opacity=".7" d="M41.16 241.018h2.94c2.043 0 3.471-.882 3.471-2.688 0-1.26-.784-1.988-2.128-2.198v-.056c1.092-.28 1.61-1.092 1.61-2.002 0-1.61-1.302-2.24-3.164-2.24h-2.73v9.184zm1.175-5.264v-2.996h1.414c1.414 0 2.156.42 2.156 1.414 0 1.022-.658 1.582-2.212 1.582h-1.358zm0 4.34v-3.472h1.596c1.61 0 2.492.518 2.492 1.652 0 1.246-.924 1.82-2.492 1.82h-1.596zm6.58-.84c0 1.218.855 1.932 2.002 1.932.84 0 1.596-.448 2.255-.98h.028l.097.812h.953v-4.172c0-1.694-.7-2.8-2.367-2.8-1.092 0-2.044.476-2.674.882l.462.798c.532-.364 1.233-.728 2.03-.728 1.106 0 1.4.84 1.4 1.708-2.898.322-4.185 1.064-4.185 2.548zm1.135-.084c0-.868.77-1.428 3.052-1.708v1.89c-.658.588-1.204.91-1.862.91-.672 0-1.19-.322-1.19-1.092zm6.954-6.356c.448 0 .798-.308.798-.742 0-.448-.35-.742-.798-.742-.448 0-.798.294-.798.742 0 .434.35.742.798.742zm-.588 8.204h1.148v-6.804h-1.148v6.804zm2.493 0h1.204l.924-1.582c.224-.42.448-.826.686-1.218h.056c.252.392.504.812.742 1.218l.994 1.582h1.246l-2.212-3.43 2.058-3.374h-1.204l-.826 1.498c-.21.364-.42.756-.616 1.134h-.056c-.238-.378-.462-.77-.672-1.134l-.91-1.498h-1.246l2.058 3.248-2.226 3.556zm6.464-3.388c0 2.226 1.441 3.556 3.261 3.556.924 0 1.653-.322 2.24-.7l-.405-.756c-.504.322-1.05.532-1.694.532-1.303 0-2.184-.924-2.269-2.394H71.1c.027-.168.041-.392.041-.63 0-1.946-.98-3.192-2.716-3.192-1.553 0-3.052 1.358-3.052 3.584zm1.12-.518c.14-1.372 1.008-2.156 1.96-2.156 1.063 0 1.68.77 1.68 2.156h-3.64zm8.655.518c0 2.254 1.484 3.556 3.15 3.556s3.15-1.302 3.15-3.556c0-2.282-1.484-3.584-3.15-3.584s-3.15 1.302-3.15 3.584zm1.19 0c0-1.568.798-2.632 1.96-2.632 1.176 0 1.96 1.064 1.96 2.632 0 1.554-.784 2.604-1.96 2.604-1.162 0-1.96-1.05-1.96-2.604zm9.396 1.624c0 1.218.854 1.932 2.002 1.932.84 0 1.596-.448 2.254-.98h.028l.098.812h.952v-4.172c0-1.694-.7-2.8-2.366-2.8-1.092 0-2.044.476-2.674.882l.462.798c.532-.364 1.232-.728 2.03-.728 1.106 0 1.4.84 1.4 1.708-2.898.322-4.186 1.064-4.186 2.548zm1.134-.084c0-.868.77-1.428 3.052-1.708v1.89c-.658.588-1.204.91-1.862.91-.672 0-1.19-.322-1.19-1.092zm7.486 1.232c.63.49 1.26.784 1.89.784 1.554 0 2.94-1.358 2.94-3.668 0-2.114-.938-3.472-2.688-3.472-.798 0-1.554.434-2.17.952h-.042l-.098-.784h-.952v9.674h1.148v-2.296l-.028-1.19zm.028-.896v-3.57c.672-.602 1.246-.924 1.82-.924 1.288 0 1.792 1.008 1.792 2.506 0 1.68-.826 2.702-1.946 2.702-.448 0-1.05-.196-1.666-.714zm6.618.14c0 .994.35 1.54 1.218 1.54.308 0 .504-.042.658-.112l-.154-.868c-.126.028-.182.028-.252.028-.168 0-.322-.14-.322-.504v-8.68H101v8.596zm4.156-6.832c.448 0 .798-.308.798-.742 0-.448-.35-.742-.798-.742-.448 0-.798.294-.798.742 0 .434.35.742.798.742zm-.588 8.204h1.148v-6.804h-1.148v6.804zm2.941-3.388c0 2.254 1.386 3.556 3.192 3.556.812 0 1.596-.336 2.212-.882l-.518-.756c-.406.364-.952.686-1.596.686-1.246 0-2.1-1.05-2.1-2.604 0-1.568.896-2.632 2.128-2.632.546 0 .966.252 1.372.602l.574-.742c-.462-.434-1.092-.812-1.988-.812-1.75 0-3.276 1.302-3.276 3.584zm6.416 1.624c0 1.218.854 1.932 2.002 1.932.84 0 1.596-.448 2.254-.98h.028l.098.812h.952v-4.172c0-1.694-.7-2.8-2.366-2.8-1.092 0-2.044.476-2.674.882l.462.798c.532-.364 1.232-.728 2.03-.728 1.106 0 1.4.84 1.4 1.708-2.898.322-4.186 1.064-4.186 2.548zm1.134-.084c0-.868.77-1.428 3.052-1.708v1.89c-.658.588-1.204.91-1.862.91-.672 0-1.19-.322-1.19-1.092zm6.562-.252c0 1.344.49 2.268 1.946 2.268.42 0 .882-.126 1.26-.252l-.224-.868c-.224.084-.532.182-.77.182-.784 0-1.05-.476-1.05-1.316v-3.78h1.834v-.938h-1.834v-1.904h-.966l-.14 1.904-1.064.07v.868h1.008v3.766zm5.123-6.104c.448 0 .798-.308.798-.742 0-.448-.35-.742-.798-.742-.448 0-.798.294-.798.742 0 .434.35.742.798.742zm-.588 8.204h1.148v-6.804h-1.148v6.804zm4.915 0h1.344l2.408-6.804h-1.134l-1.288 3.864c-.196.672-.42 1.358-.616 2.002h-.056c-.21-.644-.434-1.33-.63-2.002l-1.288-3.864h-1.19l2.45 6.804zm4.507-3.388c0 2.254 1.484 3.556 3.15 3.556s3.15-1.302 3.15-3.556c0-2.282-1.484-3.584-3.15-3.584s-3.15 1.302-3.15 3.584zm1.19 0c0-1.568.798-2.632 1.96-2.632 1.176 0 1.96 1.064 1.96 2.632 0 1.554-.784 2.604-1.96 2.604-1.162 0-1.96-1.05-1.96-2.604zm9.228 0c0 2.226 1.442 3.556 3.262 3.556.924 0 1.652-.322 2.24-.7l-.406-.756c-.504.322-1.05.532-1.694.532-1.302 0-2.184-.924-2.268-2.394h4.592c.028-.168.042-.392.042-.63 0-1.946-.98-3.192-2.716-3.192-1.554 0-3.052 1.358-3.052 3.584zm1.12-.518c.14-1.372 1.008-2.156 1.96-2.156 1.064 0 1.68.77 1.68 2.156h-3.64zm8.403 3.136c.644.532 1.568.938 2.534.938 1.61 0 2.492-.924 2.492-2.03 0-1.288-1.092-1.694-2.072-2.058-.77-.294-1.512-.546-1.512-1.176 0-.518.392-.98 1.246-.98.602 0 1.092.252 1.554.602l.546-.728c-.518-.42-1.26-.77-2.114-.77-1.47 0-2.338.84-2.338 1.932 0 1.148 1.064 1.61 2.03 1.96.742.28 1.554.588 1.554 1.288 0 .588-.448 1.064-1.344 1.064-.812 0-1.414-.336-2.002-.812l-.574.77zm7.209-7.434c.448 0 .798-.308.798-.742 0-.448-.35-.742-.798-.742-.448 0-.798.294-.798.742 0 .434.35.742.798.742zm-.588 8.204h1.148v-6.804h-1.148v6.804zm3.446 0h1.148v-4.928c.686-.686 1.162-1.05 1.862-1.05.896 0 1.288.546 1.288 1.82v4.158h1.148v-4.312c0-1.736-.644-2.66-2.072-2.66-.938 0-1.638.504-2.282 1.148h-.042l-.098-.98h-.952v6.804zm7.152-3.388c0 2.254 1.386 3.556 3.192 3.556.812 0 1.596-.336 2.212-.882l-.518-.756c-.406.364-.952.686-1.596.686-1.246 0-2.1-1.05-2.1-2.604 0-1.568.896-2.632 2.128-2.632.546 0 .966.252 1.372.602l.574-.742c-.462-.434-1.092-.812-1.988-.812-1.75 0-3.276 1.302-3.276 3.584zm6.889 3.388h1.148v-4.368c.462-1.148 1.148-1.568 1.722-1.568.28 0 .434.042.658.112l.224-1.008a1.69 1.69 0 0 0-.728-.14c-.77 0-1.47.546-1.932 1.4h-.042l-.098-1.232h-.952v6.804zm4.212-3.388c0 2.254 1.484 3.556 3.15 3.556s3.15-1.302 3.15-3.556c0-2.282-1.484-3.584-3.15-3.584s-3.15 1.302-3.15 3.584zm1.19 0c0-1.568.798-2.632 1.96-2.632 1.176 0 1.96 1.064 1.96 2.632 0 1.554-.784 2.604-1.96 2.604-1.162 0-1.96-1.05-1.96-2.604zm6.902 3.388h1.148v-4.928c.686-.686 1.162-1.05 1.862-1.05.896 0 1.288.546 1.288 1.82v4.158h1.148v-4.312c0-1.736-.644-2.66-2.072-2.66-.938 0-1.638.504-2.282 1.148h-.042l-.098-.98h-.952v6.804zm8.244-8.204c.448 0 .798-.308.798-.742 0-.448-.35-.742-.798-.742-.448 0-.798.294-.798.742 0 .434.35.742.798.742zm-.588 8.204h1.148v-6.804h-1.148v6.804zm2.732 0h5.152v-.938h-3.696l3.584-5.25v-.616h-4.648v.938h3.192l-3.584 5.25v.616zm6.02-3.388c0 2.226 1.442 3.556 3.262 3.556.924 0 1.652-.322 2.24-.7l-.406-.756c-.504.322-1.05.532-1.694.532-1.302 0-2.184-.924-2.268-2.394h4.592c.028-.168.042-.392.042-.63 0-1.946-.98-3.192-2.716-3.192-1.554 0-3.052 1.358-3.052 3.584zm1.12-.518c.14-1.372 1.008-2.156 1.96-2.156 1.064 0 1.68.77 1.68 2.156h-3.64zm8.656.518c0 2.254 1.484 3.556 3.15 3.556s3.15-1.302 3.15-3.556c0-2.282-1.484-3.584-3.15-3.584s-3.15 1.302-3.15 3.584zm1.19 0c0-1.568.798-2.632 1.96-2.632 1.176 0 1.96 1.064 1.96 2.632 0 1.554-.784 2.604-1.96 2.604-1.162 0-1.96-1.05-1.96-2.604zM58.427 258.018h1.106v-4.802c0-.966-.084-1.946-.14-2.87h.056l.994 1.89 3.318 5.782h1.204v-9.184h-1.106v4.746c0 .966.098 2.002.154 2.926h-.056l-.994-1.904-3.332-5.768h-1.204v9.184zm8.982 0h1.106v-4.802c0-.966-.084-1.946-.14-2.87h.056l.994 1.89 3.318 5.782h1.204v-9.184h-1.106v4.746c0 .966.098 2.002.154 2.926h-.056l-.994-1.904-3.332-5.768H67.41v9.184zm8.983 0h1.106v-4.802c0-.966-.084-1.946-.14-2.87h.056l.994 1.89 3.318 5.782h1.204v-9.184h-1.106v4.746c0 .966.098 2.002.154 2.926h-.056l-.994-1.904-3.332-5.768h-1.204v9.184zm8.982 0h1.106v-4.802c0-.966-.084-1.946-.14-2.87h.056l.994 1.89 3.318 5.782h1.204v-9.184h-1.106v4.746c0 .966.098 2.002.154 2.926h-.056l-.994-1.904-3.332-5.768h-1.204v9.184zm8.983 0h1.106v-4.802c0-.966-.084-1.946-.14-2.87h.056l.994 1.89 3.318 5.782h1.204v-9.184h-1.106v4.746c0 .966.098 2.002.154 2.926h-.056l-.994-1.904-3.332-5.768h-1.204v9.184zm8.982 0h1.106v-4.802c0-.966-.084-1.946-.14-2.87h.056l.994 1.89 3.318 5.782h1.204v-9.184h-1.106v4.746c0 .966.098 2.002.154 2.926h-.056l-.994-1.904-3.332-5.768h-1.204v9.184zm11.239-3.388c0 2.254 1.386 3.556 3.192 3.556.812 0 1.596-.336 2.212-.882l-.518-.756c-.406.364-.952.686-1.596.686-1.246 0-2.1-1.05-2.1-2.604 0-1.568.896-2.632 2.128-2.632.546 0 .966.252 1.372.602l.574-.742c-.462-.434-1.092-.812-1.988-.812-1.75 0-3.276 1.302-3.276 3.584zm6.084 0c0 2.254 1.484 3.556 3.15 3.556s3.15-1.302 3.15-3.556c0-2.282-1.484-3.584-3.15-3.584s-3.15 1.302-3.15 3.584zm1.19 0c0-1.568.798-2.632 1.96-2.632 1.176 0 1.96 1.064 1.96 2.632 0 1.554-.784 2.604-1.96 2.604-1.162 0-1.96-1.05-1.96-2.604zm6.901 3.388h1.148v-4.928c.63-.7 1.204-1.05 1.708-1.05.868 0 1.274.546 1.274 1.82v4.158h1.148v-4.928c.63-.7 1.176-1.05 1.708-1.05.854 0 1.26.546 1.26 1.82v4.158h1.148v-4.312c0-1.736-.672-2.66-2.072-2.66-.826 0-1.526.532-2.24 1.302-.28-.812-.84-1.302-1.876-1.302-.812 0-1.526.504-2.114 1.148h-.042l-.098-.98h-.952v6.804zm13.682-.77c.644.532 1.568.938 2.534.938 1.61 0 2.492-.924 2.492-2.03 0-1.288-1.092-1.694-2.072-2.058-.77-.294-1.512-.546-1.512-1.176 0-.518.392-.98 1.246-.98.602 0 1.092.252 1.554.602l.546-.728c-.518-.42-1.26-.77-2.114-.77-1.47 0-2.338.84-2.338 1.932 0 1.148 1.064 1.61 2.03 1.96.742.28 1.554.588 1.554 1.288 0 .588-.448 1.064-1.344 1.064-.812 0-1.414-.336-2.002-.812l-.574.77zm6.117-2.618c0 2.226 1.442 3.556 3.262 3.556.924 0 1.652-.322 2.24-.7l-.406-.756c-.504.322-1.05.532-1.694.532-1.302 0-2.184-.924-2.268-2.394h4.592c.028-.168.042-.392.042-.63 0-1.946-.98-3.192-2.716-3.192-1.554 0-3.052 1.358-3.052 3.584zm1.12-.518c.14-1.372 1.008-2.156 1.96-2.156 1.064 0 1.68.77 1.68 2.156h-3.64zm6.232 1.414c0 1.736.644 2.66 2.086 2.66.938 0 1.61-.49 2.24-1.232h.042l.098 1.064h.952v-6.804h-1.148v4.83c-.644.798-1.134 1.148-1.834 1.148-.896 0-1.274-.546-1.274-1.82v-4.158h-1.162v4.312zm10.039-.896c0 2.254 1.386 3.556 3.192 3.556.812 0 1.596-.336 2.212-.882l-.518-.756c-.406.364-.952.686-1.596.686-1.246 0-2.1-1.05-2.1-2.604 0-1.568.896-2.632 2.128-2.632.546 0 .966.252 1.372.602l.574-.742c-.462-.434-1.092-.812-1.988-.812-1.75 0-3.276 1.302-3.276 3.584zm6.084 0c0 2.226 1.442 3.556 3.262 3.556.924 0 1.652-.322 2.24-.7l-.406-.756c-.504.322-1.05.532-1.694.532-1.302 0-2.184-.924-2.268-2.394h4.592c.028-.168.042-.392.042-.63 0-1.946-.98-3.192-2.716-3.192-1.554 0-3.052 1.358-3.052 3.584zm1.12-.518c.14-1.372 1.008-2.156 1.96-2.156 1.064 0 1.68.77 1.68 2.156h-3.64zm6.329 2.534c0 .994.35 1.54 1.218 1.54.308 0 .504-.042.658-.112l-.154-.868c-.126.028-.182.028-.252.028-.168 0-.322-.14-.322-.504v-8.68h-1.148v8.596zm3.47-1.12c0 1.736.644 2.66 2.086 2.66.938 0 1.61-.49 2.24-1.232h.042l.098 1.064h.952v-6.804h-1.148v4.83c-.644.798-1.134 1.148-1.834 1.148-.896 0-1.274-.546-1.274-1.82v-4.158h-1.162v4.312zm7.714 1.12c0 .994.35 1.54 1.218 1.54.308 0 .504-.042.658-.112l-.154-.868c-.126.028-.182.028-.252.028-.168 0-.322-.14-.322-.504v-8.68h-1.148v8.596zm3.232-.392c0 1.218.854 1.932 2.002 1.932.84 0 1.596-.448 2.254-.98h.028l.098.812h.952v-4.172c0-1.694-.7-2.8-2.366-2.8-1.092 0-2.044.476-2.674.882l.462.798c.532-.364 1.232-.728 2.03-.728 1.106 0 1.4.84 1.4 1.708-2.898.322-4.186 1.064-4.186 2.548zm1.134-.084c0-.868.77-1.428 3.052-1.708v1.89c-.658.588-1.204.91-1.862.91-.672 0-1.19-.322-1.19-1.092zm6.366 1.848h1.148v-4.368c.462-1.148 1.148-1.568 1.722-1.568.28 0 .434.042.658.112l.224-1.008a1.69 1.69 0 0 0-.728-.14c-.77 0-1.47.546-1.932 1.4h-.042l-.098-1.232h-.952v6.804zm3.823-.7c0 .504.378.868.84.868.448 0 .826-.364.826-.868 0-.532-.378-.896-.826-.896-.462 0-.84.364-.84.896z" fill="#080B1A"/><path d="M38.592 216.672a5.382 5.382 0 0 0 3.76 1.536c2.352 0 3.76-1.408 3.76-3.104 0-1.52-.864-2.304-2.112-2.832l-1.408-.592c-.864-.352-1.664-.656-1.664-1.472 0-.768.64-1.232 1.632-1.232.896 0 1.616.336 2.272.896l.96-1.184a4.628 4.628 0 0 0-3.232-1.328c-2.032 0-3.504 1.28-3.504 2.944 0 1.536 1.072 2.352 2.112 2.784l1.424.624c.96.4 1.632.672 1.632 1.536 0 .816-.656 1.344-1.824 1.344-.976 0-1.984-.48-2.736-1.184l-1.072 1.264zm10.176-7.888c.656 0 1.136-.432 1.136-1.04 0-.624-.48-1.056-1.136-1.056-.656 0-1.136.432-1.136 1.056 0 .608.48 1.04 1.136 1.04zm-.928 9.232h1.84v-7.856h-1.84v7.856zm4.187 0h1.84v-5.488c.656-.64 1.104-.976 1.792-.976.864 0 1.232.48 1.232 1.776v4.688h1.84v-4.928c0-1.984-.736-3.12-2.416-3.12-1.072 0-1.872.56-2.576 1.248h-.064l-.128-1.056h-1.52v7.856zm8.441-3.92c0 2.608 1.648 4.112 3.792 4.112.896 0 1.84-.352 2.576-1.008l-.767-1.168c-.433.352-.977.672-1.617.672-1.231 0-2.096-1.04-2.096-2.608 0-1.584.88-2.624 2.145-2.624.495 0 .911.208 1.328.576l.88-1.168c-.529-.512-1.297-.912-2.305-.912-2.095 0-3.935 1.504-3.935 4.128zm7.903 3.92h1.84v-4.8c.48-1.184 1.232-1.616 1.856-1.616.336 0 .544.048.816.128l.32-1.6c-.24-.112-.496-.16-.896-.16-.832 0-1.664.56-2.224 1.584h-.064l-.128-1.392h-1.52v7.856zm5.3-3.92c0 2.608 1.777 4.112 3.729 4.112 1.968 0 3.744-1.504 3.744-4.112 0-2.624-1.776-4.128-3.744-4.128-1.952 0-3.728 1.504-3.728 4.128zm1.889 0c0-1.584.688-2.624 1.84-2.624 1.152 0 1.856 1.04 1.856 2.624 0 1.568-.704 2.608-1.856 2.608-1.152 0-1.84-1.04-1.84-2.608zm7.405 3.92h1.84v-5.488c.656-.64 1.104-.976 1.792-.976.864 0 1.232.48 1.232 1.776v4.688h1.84v-4.928c0-1.984-.736-3.12-2.416-3.12-1.072 0-1.872.56-2.576 1.248h-.064l-.128-1.056h-1.52v7.856zm9.881-9.232c.656 0 1.136-.432 1.136-1.04 0-.624-.48-1.056-1.136-1.056-.656 0-1.136.432-1.136 1.056 0 .608.48 1.04 1.136 1.04zm-.928 9.232h1.84v-7.856h-1.84v7.856zm3.563 0h6.145v-1.472h-3.825l3.697-5.408v-.976h-5.6v1.456h3.296l-3.713 5.408v.992zm7.05-3.92c0 2.592 1.696 4.112 3.872 4.112.992 0 1.936-.352 2.688-.848l-.624-1.152c-.576.368-1.152.576-1.824.576-1.264 0-2.16-.8-2.32-2.224h4.992c.048-.192.08-.512.08-.864 0-2.192-1.12-3.728-3.248-3.728-1.84 0-3.616 1.568-3.616 4.128zm1.776-.704c.16-1.312.96-2 1.888-2 1.072 0 1.6.752 1.6 2h-3.488zm9.615.704c0 2.608 1.648 4.112 3.792 4.112.896 0 1.84-.352 2.576-1.008l-.768-1.168c-.432.352-.976.672-1.616.672-1.232 0-2.096-1.04-2.096-2.608 0-1.584.88-2.624 2.144-2.624.496 0 .912.208 1.328.576l.88-1.168c-.528-.512-1.296-.912-2.304-.912-2.096 0-3.936 1.504-3.936 4.128zm7 0c0 2.608 1.776 4.112 3.728 4.112 1.968 0 3.744-1.504 3.744-4.112 0-2.624-1.776-4.128-3.744-4.128-1.952 0-3.728 1.504-3.728 4.128zm1.888 0c0-1.584.688-2.624 1.84-2.624 1.152 0 1.856 1.04 1.856 2.624 0 1.568-.704 2.608-1.856 2.608-1.152 0-1.84-1.04-1.84-2.608zm7.405 3.92h1.84v-5.488c.608-.656 1.168-.976 1.648-.976.832 0 1.216.48 1.216 1.776v4.688h1.84v-5.488c.608-.656 1.152-.976 1.648-.976.816 0 1.2.48 1.2 1.776v4.688h1.856v-4.928c0-1.984-.768-3.12-2.432-3.12-.992 0-1.776.608-2.528 1.408-.368-.88-1.024-1.408-2.176-1.408-.976 0-1.744.56-2.4 1.264h-.064l-.128-1.072h-1.52v7.856zm16.254-3.92c0 2.608 1.776 4.112 3.728 4.112 1.968 0 3.744-1.504 3.744-4.112 0-2.624-1.776-4.128-3.744-4.128-1.952 0-3.728 1.504-3.728 4.128zm1.888 0c0-1.584.688-2.624 1.84-2.624 1.152 0 1.856 1.04 1.856 2.624 0 1.568-.704 2.608-1.856 2.608-1.152 0-1.84-1.04-1.84-2.608zm10.35 1.808c0 1.376.96 2.304 2.336 2.304.928 0 1.728-.464 2.432-1.056h.048l.144.864h1.504v-4.656c0-2.192-.96-3.392-2.928-3.392-1.248 0-2.352.48-3.216 1.024l.672 1.232c.688-.416 1.424-.768 2.208-.768 1.056 0 1.408.704 1.424 1.536-3.216.352-4.624 1.232-4.624 2.912zm1.792-.144c0-.784.704-1.344 2.832-1.616v1.76c-.576.544-1.072.864-1.712.864-.656 0-1.12-.304-1.12-1.008zm8.711 1.584c.64.544 1.328.864 2.016.864 1.744 0 3.36-1.552 3.36-4.24 0-2.432-1.136-4-3.088-4-.864 0-1.712.464-2.368 1.024h-.064l-.128-.832h-1.52v10.96h1.84v-2.464l-.048-1.312zm.048-1.312v-3.664c.608-.592 1.152-.88 1.728-.88 1.184 0 1.696.928 1.696 2.496 0 1.776-.8 2.704-1.84 2.704-.464 0-1.008-.176-1.584-.656zm7.191-.032c0 1.36.48 2.208 1.792 2.208.432 0 .752-.064.976-.16l-.24-1.376c-.144.032-.208.032-.288.032-.192 0-.4-.16-.4-.608v-9.376h-1.84V216zm5.272-7.216c.656 0 1.136-.432 1.136-1.04 0-.624-.48-1.056-1.136-1.056-.656 0-1.136.432-1.136 1.056 0 .608.48 1.04 1.136 1.04zm-.928 9.232h1.84v-7.856h-1.84v7.856zm3.676-3.92c0 2.608 1.648 4.112 3.792 4.112.896 0 1.84-.352 2.576-1.008l-.768-1.168c-.432.352-.976.672-1.616.672-1.232 0-2.096-1.04-2.096-2.608 0-1.584.88-2.624 2.144-2.624.496 0 .912.208 1.328.576l.88-1.168c-.528-.512-1.296-.912-2.304-.912-2.096 0-3.936 1.504-3.936 4.128zm7.41 1.808c0 1.376.96 2.304 2.336 2.304.928 0 1.728-.464 2.432-1.056h.048l.144.864h1.504v-4.656c0-2.192-.96-3.392-2.928-3.392-1.248 0-2.352.48-3.216 1.024l.672 1.232c.688-.416 1.424-.768 2.208-.768 1.056 0 1.408.704 1.424 1.536-3.216.352-4.624 1.232-4.624 2.912zm1.792-.144c0-.784.704-1.344 2.832-1.616v1.76c-.576.544-1.072.864-1.712.864-.656 0-1.12-.304-1.12-1.008zm7.191-.4c0 1.696.672 2.848 2.496 2.848.624 0 1.168-.144 1.6-.288l-.32-1.36a2.252 2.252 0 0 1-.816.176c-.752 0-1.104-.448-1.104-1.376v-3.744h2v-1.456h-2v-2.144h-1.536l-.224 2.144-1.216.08v1.376h1.12v3.744zm6.437-6.576c.656 0 1.136-.432 1.136-1.04 0-.624-.48-1.056-1.136-1.056-.656 0-1.136.432-1.136 1.056 0 .608.48 1.04 1.136 1.04zm-.928 9.232h1.84v-7.856h-1.84v7.856zm5.948 0h2.128l2.672-7.856h-1.776l-1.248 4.08c-.224.768-.448 1.568-.672 2.368h-.064c-.208-.8-.448-1.6-.656-2.368l-1.248-4.08h-1.872l2.736 7.856zm5.556-3.92c0 2.608 1.776 4.112 3.728 4.112 1.968 0 3.744-1.504 3.744-4.112 0-2.624-1.776-4.128-3.744-4.128-1.952 0-3.728 1.504-3.728 4.128zm1.888 0c0-1.584.688-2.624 1.84-2.624 1.152 0 1.856 1.04 1.856 2.624 0 1.568-.704 2.608-1.856 2.608-1.152 0-1.84-1.04-1.84-2.608z" fill="#080B1A"/><path opacity=".04" d="M52.46 46.516c25.68-44.482 82.558-59.722 127.04-34.04 44.481 25.68 59.721 82.558 34.04 127.04-25.681 44.481-82.559 59.721-127.04 34.04-44.482-25.681-59.722-82.56-34.04-127.04z" fill="url(#paint0_linear)"/><mask id="a" maskUnits="userSpaceOnUse" x="39" y="0" width="187" height="187"><circle cx="133" cy="93.016" r="93" transform="rotate(90 133 93.016)" fill="#C4C4C4"/></mask><g mask="url(#a)"><rect x="88" y="62.016" width="90" height="165" rx="8" fill="url(#paint1_linear)"/><rect x="88" y="79.016" width="90" height="141" rx="1" fill="#F0F2F9"/><path d="M88 70.016a8 8 0 0 1 8-8h74a8 8 0 0 1 8 8v9H88v-9z" fill="url(#paint2_linear)"/><path d="M119.843 127.828c.333 0 .642.167.838.436a14.895 14.895 0 0 0 12.076 6.127c4.975 0 9.379-2.417 12.076-6.127.196-.269.505-.436.838-.436h.946a1 1 0 0 0 1-1v-14.25a1 1 0 0 0-1-1h-.946c-.333 0-.642-.167-.838-.436a14.894 14.894 0 0 0-12.076-6.126 14.894 14.894 0 0 0-12.076 6.126 1.042 1.042 0 0 1-.838.436h-.946a1 1 0 0 0-1 1v14.25a1 1 0 0 0 1 1h.946z" fill="url(#paint3_linear)"/><path fill-rule="evenodd" clip-rule="evenodd" d="M119.841 119.876c0 6.935 5.699 12.57 12.743 12.57 7.045 0 12.743-5.635 12.743-12.57 0-6.935-5.698-12.57-12.743-12.57-7.044 0-12.743 5.635-12.743 12.57zm-.562 0c0 7.253 5.957 13.132 13.305 13.132s13.305-5.879 13.305-13.132-5.957-13.132-13.305-13.132-13.305 5.879-13.305 13.132z" fill="#0B71E5" fill-opacity=".8"/><path d="M148.309 111.582a.691.691 0 0 1 0 1.382h-4.914c-.52 0-1.029-.144-1.472-.417l-.461-.285c-.315-.195-.178-.68.192-.68h6.655zM148.309 128.17a.691.691 0 0 0 0-1.382h-4.914c-.52 0-1.029.144-1.472.417l-.461.285c-.315.195-.178.68.192.68h6.655zM116.514 128.17a.691.691 0 0 1 0-1.382h4.666c.514 0 1.017.147 1.449.425l.473.305c.298.191.162.652-.191.652h-6.397zM116.514 111.582a.691.691 0 0 0 0 1.382h4.666c.514 0 1.017-.148 1.449-.425l.473-.305c.298-.191.162-.652-.191-.652h-6.397z" fill="#0B71E6"/><path transform="rotate(90 147.617 111.582)" fill="url(#paint4_linear)" d="M147.617 111.582h16.588v6.221h-16.588z"/><path transform="rotate(-90 117.897 128.17)" fill="url(#paint5_linear)" d="M117.897 128.17h16.588v6.221h-16.588z"/><path d="M111.281 41.32a1 1 0 1 0 1.438 1.39l-1.438-1.39zm42 1.39a1 1 0 1 0 1.438-1.39l-1.438 1.39zm-40.562 0c11.205-11.593 29.357-11.593 40.562 0l1.438-1.39c-11.991-12.406-31.447-12.406-43.438 0l1.438 1.39z" fill="#127BF3"/><path d="M116.329 45.274a1 1 0 1 0 1.342 1.483l-1.342-1.483zm32 1.483a1 1 0 1 0 1.342-1.483l-1.342 1.483zm-30.658 0c8.455-7.655 22.202-7.655 30.658 0l1.342-1.483c-9.218-8.345-24.125-8.345-33.342 0l1.342 1.483z" fill="#127BF3"/><path d="M120.373 50.237a1 1 0 1 0 1.254 1.558l-1.254-1.558zm24 1.558a1 1 0 0 0 1.254-1.558l-1.254 1.558zm-22.746 0c6.261-5.04 16.484-5.04 22.746 0l1.254-1.558c-6.994-5.628-18.261-5.628-25.254 0l1.254 1.558z" fill="#127BF3"/><rect x="125" y="118.943" width="16" height="2" rx="1" fill="#fff"/></g><defs><linearGradient id="paint0_linear" x1="86.5" y1="173.556" x2="196.311" y2="-16.643" gradientUnits="userSpaceOnUse"><stop stop-color="#127BF3"/><stop offset="1" stop-color="#127BF3" stop-opacity=".2"/></linearGradient><linearGradient id="paint1_linear" x1="133" y1="62.016" x2="133" y2="227.016" gradientUnits="userSpaceOnUse"><stop stop-color="#4398FA"/><stop offset="1" stop-color="#127BF3"/></linearGradient><linearGradient id="paint2_linear" x1="133" y1="62.016" x2="133" y2="77.801" gradientUnits="userSpaceOnUse"><stop stop-color="#0B71E5"/><stop offset="1" stop-color="#0B71E5" stop-opacity="0"/></linearGradient><linearGradient id="paint3_linear" x1="147.617" y1="119.703" x2="117.897" y2="119.703" gradientUnits="userSpaceOnUse"><stop stop-color="#4398FA"/><stop offset="1" stop-color="#127BF3"/></linearGradient><linearGradient id="paint4_linear" x1="155.912" y1="111.582" x2="155.912" y2="117.358" gradientUnits="userSpaceOnUse"><stop stop-color="#0B71E5"/><stop offset="1" stop-color="#0B71E5" stop-opacity="0"/></linearGradient><linearGradient id="paint5_linear" x1="126.191" y1="128.17" x2="126.191" y2="133.946" gradientUnits="userSpaceOnUse"><stop stop-color="#0B71E5"/><stop offset="1" stop-color="#0B71E5" stop-opacity="0"/></linearGradient></defs></svg>