<svg width="24" height="24" fill="none" xmlns="http://www.w3.org/2000/svg"><mask id="a" maskUnits="userSpaceOnUse" x="0" y="0" width="24" height="24"><path fill="#C4C4C4" stroke="#127BF3" stroke-linecap="round" d="M.5.5h23v23H.5z"/></mask><g mask="url(#a)"><path d="M20 11.083a6.983 6.983 0 0 1-.75 3.167 7.084 7.084 0 0 1-6.333 3.917 6.983 6.983 0 0 1-3.167-.75L5 19l1.583-4.75a6.983 6.983 0 0 1-.75-3.167A7.083 7.083 0 0 1 9.75 4.75 6.984 6.984 0 0 1 12.917 4h.416A7.067 7.067 0 0 1 20 10.667v.416z" stroke="#127BF3" stroke-width="2" stroke-linecap="round"/></g></svg>